<svg width="170" height="176" viewBox="0 0 170 176" fill="none" xmlns="http://www.w3.org/2000/svg">
<g clip-path="url(#clip0_31_2)">
<path d="M63 0C72.94 0 81 8.06 81 18V36C81 45.94 72.94 54 63 54H54V61H63C72.94 61 81 69.06 81 79V97C81 106.94 72.94 115 63 115H54V122H63C72.94 122 81 130.06 81 140V158C81 167.94 72.94 176 63 176H45C35.06 176 27 167.94 27 158V145.5H18C8.06 145.5 0 137.44 0 127.5V109.5C0 99.56 8.06 91.5 18 91.5H27V84.5H18C8.06 84.5 0 76.44 0 66.5V48.5C0 38.56 8.06 30.5 18 30.5H27V18C27 8.06 35.06 0 45 0H63ZM125 0C134.94 0 143 8.06 143 18V30.5H152C161.94 30.5 170 38.56 170 48.5V66.5C170 76.44 161.94 84.5 152 84.5H143V91.5H152C161.94 91.5 170 99.56 170 109.5V127.5C170 137.44 161.94 145.5 152 145.5H143V158C143 167.94 134.94 176 125 176H107C97.06 176 89 167.94 89 158V140C89 130.06 97.06 122 107 122H116V115H107C97.06 115 89 106.94 89 97V79C89 69.06 97.06 61 107 61H116V54H107C97.06 54 89 45.94 89 36V18C89 8.06 97.06 0 107 0H125Z" fill="black"/>
</g>
<defs>
<clipPath id="clip0_31_2">
<rect width="170" height="176" fill="white"/>
</clipPath>
</defs>
</svg>
