<?xml version="1.0" encoding="UTF-8" standalone="no"?>
<svg
   version="1.0"
   width="100"
   height="100"
   id="svg6"
   xmlns="http://www.w3.org/2000/svg"
   xmlns:svg="http://www.w3.org/2000/svg" viewBox="-0.00 -0.00 28.63 28.63">
  <defs
     id="defs1">
    <pattern
       id="EMFhbasepattern"
       patternUnits="userSpaceOnUse"
       width="6"
       height="6"
       x="0"
       y="0" />
  </defs>
  <path
     style="fill:#fafafa;fill-opacity:1;fill-rule:nonzero;stroke:none"
     d="M 14.391771,28.31979 C 1.9118637,28.31979 -4.3280901,13.279902 4.4718447,4.4799668 13.271779,-4.3999674 28.391667,1.8399864 28.391667,14.319894 c -0.08,7.759942 -6.319953,13.999896 -13.999896,13.999896 z"
     id="path1" />
  <path
     style="fill:#005073;fill-opacity:1;fill-rule:nonzero;stroke:none"
     d="m 14.391771,0.47999644 c 12.239909,0 18.399864,14.87988956 9.759928,23.59982556 -8.719936,8.639936 -23.59982528,2.479981 -23.59982528,-9.759928 0,-7.6799432 6.15995438,-13.83989756 13.83989728,-13.83989756 z M 14.391771,0 C 1.591866,0 -4.8080866,15.359886 4.2318465,24.399819 13.271779,33.439752 28.631665,27.0398 28.631665,14.319894 28.631665,6.3999526 22.231713,0 14.391771,0 Z"
     id="path2" />
  <path
     style="fill:#fafafa;fill-opacity:1;fill-rule:nonzero;stroke:none"
     d="m 14.391771,23.119829 c -7.9199411,0 -11.8399121,-9.51993 -6.2399536,-15.0398889 5.5199586,-5.5999585 15.0398886,-1.6799875 15.0398886,6.2399539 0,4.879964 -3.919971,8.799935 -8.799935,8.799935 z"
     id="path3" />
  <path
     style="fill:#005073;fill-opacity:1;fill-rule:nonzero;stroke:none"
     d="m 14.391771,5.9999556 c 7.439945,0 11.199917,8.9599334 5.919956,14.2398944 -5.279961,5.279961 -14.2398941,1.519989 -14.2398941,-5.919956 0,-4.5599663 3.7599721,-8.3199384 8.3199381,-8.3199384 z m 0,-0.9599929 c -8.3199381,0 -12.4799073,9.9999263 -6.6399506,15.9198823 5.9199556,5.839956 15.9198816,1.679987 15.9198816,-6.639951 0,-5.1199621 -4.159969,-9.3599307 -9.279931,-9.2799313 z"
     id="path4" />
  <path
     style="fill:#005073;fill-opacity:1;fill-rule:nonzero;stroke:none"
     d="m 2.4718595,12.559907 h 7.1999467 v 3.519974 H 2.4718595 Z"
     id="path5" />
  <path
     style="fill:#005073;fill-opacity:1;fill-rule:nonzero;stroke:none"
     d="m 19.031737,12.559907 h 7.199946 v 3.519974 h -7.199946 z"
     id="path6" />
</svg>
