<?xml version="1.0" encoding="UTF-8" standalone="no"?>
<svg
   version="1.0"
   width="100"
   height="100"
   id="svg5"
   xmlns="http://www.w3.org/2000/svg"
   xmlns:svg="http://www.w3.org/2000/svg" viewBox="-4.24 -0.00 34.88 34.88">
  <defs
     id="defs1">
    <pattern
       id="EMFhbasepattern"
       patternUnits="userSpaceOnUse"
       width="6"
       height="6"
       x="0"
       y="0" />
  </defs>
  <path
     style="fill:#ffffff;fill-opacity:1;fill-rule:nonzero;stroke:none"
     d="M 1.9999852,0.47999644 H 24.399819 c 0.799994,0 1.43999,0.71999466 1.43999,1.51998876 V 32.879756 c 0,0.799995 -0.639996,1.519989 -1.43999,1.519989 H 1.9999852 c -0.7999941,0 -1.51998876,-0.719994 -1.51998876,-1.519989 V 1.9999852 c 0,-0.7999941 0.71999466,-1.51998876 1.51998876,-1.51998876 z"
     id="path1" />
  <path
     style="fill:#005073;fill-opacity:1;fill-rule:nonzero;stroke:none"
     d="m 24.399819,1.0399923 c 0.559996,0 0.959993,0.399997 0.959993,0.9599929 V 32.879756 c 0,0.559996 -0.399997,1.039993 -0.959993,1.039993 H 1.9999852 c -0.5599959,0 -0.9599929,-0.479997 -0.9599929,-1.039993 V 1.9999852 c 0,-0.5599959 0.399997,-0.9599929 0.9599929,-0.9599929 z M 24.399819,0 H 1.9999852 C 0.87999348,0 0,0.87999348 0,1.9999852 V 32.879756 c 0,1.119992 0.87999348,1.999986 1.9999852,1.999986 H 24.399819 c 1.119992,0 1.999985,-0.879994 1.999985,-1.999986 V 1.9999852 C 26.399804,0.87999348 25.519811,0 24.399819,0 Z"
     id="path2" />
  <path
     style="fill:#005073;fill-opacity:1;fill-rule:nonzero;stroke:none"
     d="m 13.199902,2.0799846 c 0.799994,0.079999 0.799994,1.2799905 0,1.3599899 -0.799994,0.079999 -0.799994,-1.4399893 0,-1.3599899 z"
     id="path3" />
  <path
     style="fill:#005073;fill-opacity:1;fill-rule:nonzero;stroke:none"
     d="m 13.199902,32.559759 c -1.119991,0 -1.679987,-1.35999 -0.879993,-2.159984 0.719994,-0.799994 2.079984,-0.239998 2.079984,0.879993 0,0.719995 -0.559996,1.279991 -1.199991,1.279991 z"
     id="path4" />
  <path
     style="fill:#005073;fill-opacity:1;fill-rule:nonzero;stroke:none"
     d="M 2.4799816,4.4799668 H 23.919823 V 28.799787 H 2.4799816 Z"
     id="path5" />
</svg>
