<?xml version="1.0" encoding="UTF-8" standalone="no"?>
<svg
   version="1.0"
   width="100"
   height="100"
   id="svg6"
   xmlns="http://www.w3.org/2000/svg"
   xmlns:svg="http://www.w3.org/2000/svg" viewBox="-0.00 -0.00 26.64 26.64">
  <defs
     id="defs1">
    <pattern
       id="EMFhbasepattern"
       patternUnits="userSpaceOnUse"
       width="6"
       height="6"
       x="0"
       y="0" />
  </defs>
  <path
     style="fill:#fafafa;fill-opacity:1;fill-rule:nonzero;stroke:none"
     d="M 1.5199887,0.23999822 H 25.119814 c 0.719995,0 1.27999,0.55999585 1.27999,1.27999048 V 25.119814 c 0,0.719995 -0.559995,1.27999 -1.27999,1.27999 H 1.5199887 c -0.71999463,0 -1.27999048,-0.559995 -1.27999048,-1.27999 V 1.5199887 c 0,-0.71999463 0.55999585,-1.27999048 1.27999048,-1.27999048 z"
     id="path1" />
  <path
     style="fill:#005073;fill-opacity:1;fill-rule:nonzero;stroke:none"
     d="m 25.119814,0.47999644 c 0.559996,0 1.039992,0.47999645 1.039992,1.03999226 V 25.119814 c 0,0.559996 -0.479996,1.039992 -1.039992,1.039992 H 1.5199887 c -0.55999581,0 -1.03999226,-0.479996 -1.03999226,-1.039992 V 1.5199887 c 0,-0.55999581 0.47999645,-1.03999226 1.03999226,-1.03999226 z M 25.119814,0 H 1.5199887 C 0.63999526,0 0,0.63999526 0,1.5199887 V 25.119814 c 0,0.879993 0.63999526,1.519989 1.5199887,1.519989 H 25.119814 c 0.879993,0 1.519989,-0.639996 1.519989,-1.519989 V 1.5199887 C 26.639803,0.63999526 25.999807,0 25.119814,0 Z"
     id="path2" />
  <path
     style="fill:#005073;fill-opacity:1;fill-rule:nonzero;stroke:none"
     d="M 16.079881,9.5999289 15.439886,7.3599455 c -0.08,-0.1599988 -0.159999,-0.2399982 -0.239999,-0.2399982 H 12.15991 c -0.08,0 -0.159999,0.079999 -0.239998,0.2399982 l -0.639996,2.2399834 c -1.199991,0.079999 -1.9999847,0.399997 -2.0799841,0.7199951 0,0.319997 0.7199946,0.399997 1.7599871,0.559995 -0.08,0.319998 -0.159999,0.559996 -0.159999,0.879994 0,0.319998 0.08,0.639995 0.159999,0.879993 h -0.08 c -0.239998,0 -0.479996,0.239999 -0.479996,0.479997 v 0.559996 c -0.3999971,0 -0.7199947,0.399997 -0.6399953,0.799994 v 2.879978 c -0.079999,0.479997 0.3199973,0.799994 0.7199943,0.879994 H 13.5199 v -3.759972 h 0.319997 v 3.759972 h 3.039978 c 0.399997,-0.08 0.719995,-0.399997 0.719995,-0.879994 v -2.879978 c 0,-0.399997 -0.239999,-0.799994 -0.639996,-0.799994 v -0.559996 c 0,-0.239998 -0.239998,-0.479997 -0.479996,-0.479997 h -0.08 c 0.08,-0.239998 0.159998,-0.559995 0.159998,-0.879993 0,-0.319998 -0.08,-0.559996 -0.159998,-0.879994 1.039992,-0.159998 1.679987,-0.319997 1.679987,-0.559995 0,-0.159999 -0.799994,-0.6399957 -1.999985,-0.7999945 M 15.839883,12.15991 c 0,0.159999 -0.08,0.399997 -0.239999,0.479996 h -0.319997 c -0.239998,0 -0.479997,0.239999 -0.479997,0.479997 v 0.959993 c -0.719994,0.319997 -1.519988,0.319997 -2.239983,0 v -0.959993 c 0,-0.239998 -0.239998,-0.479997 -0.479996,-0.479997 h -0.319998 c -0.159999,-0.08 -0.239998,-0.239998 -0.239998,-0.479996 v -0.799994 c 0,-0.159999 0.08,-0.319998 0.08,-0.399997 0.719995,0.08 1.35999,0.08 1.999985,0.08 h 0.159999 c 0.639995,0 1.35999,0 1.999985,-0.08 0.08,0.08 0.08,0.239998 0.08,0.399997 z"
     id="path3" />
  <path
     style="fill:#005073;fill-opacity:1;fill-rule:nonzero;stroke:none"
     d="M 13.039903,11.279916 H 12.15991 c -0.08,0 -0.08,0.08 -0.08,0.08 v 0.639995 c 0,0.239998 0.159998,0.399997 0.399997,0.399997 h 0.559995 c 0.159999,0 0.319998,-0.159999 0.319998,-0.399997 v -0.399997 c 0,-0.239998 0,-0.319998 -0.239998,-0.319998 z"
     id="path4" />
  <path
     style="fill:#005073;fill-opacity:1;fill-rule:nonzero;stroke:none"
     d="m 15.359886,11.279916 h -1.039992 c -0.319998,0 -0.239998,0.08 -0.239998,0.399997 v 0.319998 c 0,0.239998 0.159999,0.399997 0.399997,0.399997 h 0.559996 c 0.159998,0 0.319997,-0.159999 0.319997,-0.399997 v -0.639995 z"
     id="path5" />
  <path
     style="fill:#005073;fill-opacity:1;fill-rule:evenodd;stroke:none"
     d="M 21.59984,6.1599544 C 21.039844,6.2399538 20.559848,6.3199532 19.999852,6.2399538 18.319864,6.3199532 16.719876,5.9199561 15.359886,5.0399627 14.959889,4.719965 14.639892,4.4799668 14.319894,4.1599692 14.239895,3.919971 14.159895,3.8399716 13.999896,3.8399716 v -0.08 l -0.319997,-0.5599958 -0.399997,0.5599958 -0.08,0.08 c -1.439989,1.6799875 -3.5999731,2.559981 -5.7599571,2.3999822 -0.6399953,0.079999 -1.1999911,0 -1.759987,-0.079999 H 5.1999615 v 0.4799964 c 0.079999,2.3999822 0.399997,4.7199648 1.0399923,7.0399478 0.9599929,3.679972 3.0399775,7.99994 7.1999462,9.839927 h 0.399997 c 4.15997,-1.919986 6.239954,-6.159955 7.279947,-9.839927 0.559995,-2.319983 0.879993,-4.6399656 0.959992,-7.0399478 V 6.1599544 Z M 21.119844,8.639936 C 20.719847,12.399908 19.199858,19.999852 13.679899,22.559833 9.9999259,20.879845 8.0799401,17.039874 7.1199473,13.359901 6.6399508,11.839912 6.3199532,10.239924 6.2399538,8.639936 6.1599544,7.9999407 6.1599544,7.5199443 6.079955,7.1199473 c 0.4799964,0 0.8799934,0.079999 1.3599899,0.079999 2.3199828,0.079999 4.6399661,-0.7999941 6.2399541,-2.5599811 1.599988,1.759987 3.919971,2.7199799 6.319953,2.5599811 0.399997,0 0.799994,-0.079999 1.27999,-0.079999 0,0.5599958 -0.08,1.0399923 -0.159998,1.5199887"
     id="path6" />
</svg>
