<?xml version="1.0" encoding="UTF-8" standalone="no"?>
<svg
   version="1.0"
   width="100"
   height="100"
   id="svg19"
   xmlns="http://www.w3.org/2000/svg"
   xmlns:svg="http://www.w3.org/2000/svg" viewBox="-0.00 -0.00 26.64 26.64">
  <defs
     id="defs1">
    <pattern
       id="EMFhbasepattern"
       patternUnits="userSpaceOnUse"
       width="6"
       height="6"
       x="0"
       y="0" />
  </defs>
  <path
     style="fill:#fafafa;fill-opacity:1;fill-rule:nonzero;stroke:none"
     d="M 1.5199887,0.23999822 H 25.119814 c 0.719995,0 1.27999,0.55999585 1.27999,1.27999048 V 25.119814 c 0,0.719995 -0.559995,1.27999 -1.27999,1.27999 H 1.5199887 c -0.71999463,0 -1.27999048,-0.559995 -1.27999048,-1.27999 V 1.5199887 c 0,-0.71999463 0.55999585,-1.27999048 1.27999048,-1.27999048 z"
     id="path1" />
  <path
     style="fill:#005073;fill-opacity:1;fill-rule:nonzero;stroke:none"
     d="m 25.119814,0.47999644 c 0.559996,0 1.039992,0.47999645 1.039992,1.03999226 V 25.119814 c 0,0.559996 -0.479996,1.039992 -1.039992,1.039992 H 1.5199887 c -0.55999581,0 -1.03999226,-0.479996 -1.03999226,-1.039992 V 1.5199887 c 0,-0.55999581 0.47999645,-1.03999226 1.03999226,-1.03999226 z M 25.119814,0 H 1.5199887 C 0.63999526,0 0,0.63999526 0,1.5199887 V 25.119814 c 0,0.879993 0.63999526,1.519989 1.5199887,1.519989 H 25.119814 c 0.879993,0 1.519989,-0.639996 1.519989,-1.519989 V 1.5199887 C 26.639803,0.63999526 25.999807,0 25.119814,0 Z"
     id="path2" />
  <path
     style="fill:#005073;fill-opacity:1;fill-rule:nonzero;stroke:none"
     d="M 24.799816,3.9999704 19.999852,6.2399538 V 4.719965 H 14.719891 V 3.2799757 h 5.279961 V 1.759987 Z"
     id="path3" />
  <path
     style="fill:#005073;fill-opacity:1;fill-rule:nonzero;stroke:none"
     d="m 22.079836,11.119918 -4.799964,2.239983 v -1.519989 h -5.279961 v -1.439989 h 5.279961 V 8.7999348 Z"
     id="path4" />
  <path
     style="fill:#005073;fill-opacity:1;fill-rule:nonzero;stroke:none"
     d="m 1.9999852,14.639892 4.7999644,-2.239984 v 1.519989 h 5.2799614 v 1.439989 H 6.7999496 v 1.519989 z"
     id="path5" />
  <path
     style="fill:#005073;fill-opacity:1;fill-rule:nonzero;stroke:none"
     d="M 4.6399656,7.5199443 9.4399301,5.2799609 V 6.7999496 H 14.719891 V 8.239939 H 9.4399301 v 1.5999881 z"
     id="path6" />
  <path
     style="fill:#005073;fill-opacity:1;fill-rule:nonzero;stroke:none"
     d="m 8.7199354,21.439841 v 0.399997 L 9.3599307,21.199843 8.7199354,20.479848 v 0.559996 H 7.3599455 c 0.6399952,-0.799994 1.7599869,-2.319983 1.1999911,-2.799979 -0.079999,-0.08 -0.1599988,-0.08 -0.3199976,-0.08 -0.8799935,0.239999 -1.759987,0.719995 -2.3999823,1.35999 v -1.35999 H 6.3199532 L 5.5999585,17.51987 4.9599633,18.159865 h 0.4799964 v 1.35999 C 4.719965,18.799861 3.919971,18.319864 3.0399775,18.079866 c -0.1599988,0 -0.3199976,0.08 -0.3999971,0.159999 -0.4799964,0.479996 0.6399953,1.919986 1.2799906,2.71998 h -1.35999 v -0.479997 l -0.6399952,0.719995 0.6399952,0.639995 v -0.399997 h 1.35999 c -0.6399953,0.719995 -1.8399864,2.319983 -1.2799906,2.799979 0.08,0.08 0.1599989,0.159999 0.3199977,0.159999 C 3.919971,24.079822 4.719965,23.599825 5.4399597,22.879831 V 24.23982 H 4.9599633 L 5.5999585,24.959815 6.3199532,24.23982 H 5.8399567 v -1.359989 c 0.7199947,0.719994 1.5199888,1.199991 2.4799817,1.519988 0.1599988,0 0.2399982,-0.08 0.399997,-0.159999 C 9.1999319,23.679825 7.9999407,22.239835 7.2799461,21.439841 Z M 8.239939,18.479863 h 0.079999 c 0,0 -0.1599988,0.959993 -1.4399894,2.399982 C 6.7199502,20.719847 6.5599514,20.559848 6.3999526,20.479848 6.2399538,20.319849 6.079955,20.079851 5.9199561,19.999852 6.5599514,19.279857 7.3599455,18.799861 8.239939,18.479863 Z m -1.6799876,2.71998 C 6.479952,21.359842 6.2399538,21.519841 6.079955,21.679839 5.9199561,21.839838 5.7599573,21.999837 5.5999585,22.159836 L 5.1999615,21.759839 C 5.0399627,21.59984 4.7999644,21.359842 4.6399656,21.199843 4.7999644,21.039844 4.9599633,20.879845 5.1199621,20.799846 5.2799609,20.559848 5.4399597,20.399849 5.5999585,20.23985 l 0.5599959,0.479997 z m -3.5199739,-2.63998 v 0 c 0.8799935,0.239998 1.6799875,0.799994 2.3199828,1.439989 l -0.5599959,0.479996 -0.399997,0.479997 C 3.1199769,19.439856 2.8799787,18.639862 3.0399775,18.559863 Z m 0,5.439959 H 2.8799787 c -0.079999,-0.08 0.2399982,-0.959993 1.5199887,-2.479981 l 0.4799965,0.559995 c 0.1599988,0.159999 0.3199976,0.239999 0.4799964,0.399997 -0.6399953,0.719995 -1.4399893,1.199992 -2.3199828,1.519989 z m 5.4399597,0 H 8.3199384 C 7.4399449,23.679825 6.5599514,23.199828 5.9199561,22.479833 L 6.3999526,21.999837 6.879949,21.519841 c 1.2799906,1.519988 1.5999882,2.319982 1.5199888,2.479981 z"
     id="path7" />
  <path
     style="fill:#6696ab;fill-opacity:1;fill-rule:nonzero;stroke:none"
     d="M 6.3999526,22.239835 C 7.3599455,21.59984 7.0399479,20.079851 5.8399567,19.839853 4.719965,19.679854 3.8399716,20.959845 4.5599662,21.919838 c 0.3999971,0.559995 1.1999911,0.719994 1.8399864,0.319997 z"
     id="path8" />
  <path
     style="fill:#005073;fill-opacity:1;fill-rule:nonzero;stroke:none"
     d="m 24.479819,23.919823 h -1.599988 v -0.399997 h 1.199991 v -1.199991 h 0.399997 z"
     id="path9" />
  <path
     style="fill:#005073;fill-opacity:1;fill-rule:nonzero;stroke:none"
     d="M 20.879845,23.919823 H 18.87986 v -0.399997 h 1.999985 z m -3.99997,0 H 14.87989 v -0.399997 h 1.999985 z"
     id="path10" />
  <path
     style="fill:#005073;fill-opacity:1;fill-rule:nonzero;stroke:none"
     d="m 12.879905,23.919823 h -1.599989 v -1.599988 h 0.399997 v 1.199991 h 1.199992 z"
     id="path11" />
  <path
     style="fill:#005073;fill-opacity:1;fill-rule:nonzero;stroke:none"
     d="m 11.679913,21.759839 h -0.399997 v -0.559996 h 0.399997 z m 0,-1.039992 h -0.399997 v -0.559996 h 0.399997 z"
     id="path12" />
  <path
     style="fill:#005073;fill-opacity:1;fill-rule:nonzero;stroke:none"
     d="m 11.679913,19.599855 h -0.399997 v -1.599988 h 1.599989 v 0.399997 h -1.199992 z"
     id="path13" />
  <path
     style="fill:#005073;fill-opacity:1;fill-rule:nonzero;stroke:none"
     d="M 20.879845,18.399864 H 18.87986 v -0.399997 h 1.999985 z m -3.99997,0 H 14.87989 v -0.399997 h 1.999985 z"
     id="path14" />
  <path
     style="fill:#005073;fill-opacity:1;fill-rule:nonzero;stroke:none"
     d="m 24.479819,19.599855 h -0.399997 v -1.199991 h -1.199991 v -0.399997 h 1.599988 z"
     id="path15" />
  <path
     style="fill:#005073;fill-opacity:1;fill-rule:nonzero;stroke:none"
     d="m 24.479819,21.759839 h -0.479997 v -0.559996 h 0.479997 z m 0,-1.039992 h -0.479997 v -0.559996 h 0.479997 z"
     id="path16" />
  <path
     style="fill:#005073;fill-opacity:1;fill-rule:nonzero;stroke:none"
     d="m 12.559907,21.199843 1.35999,-0.879994 v 0.639996 h 1.999985 v 0.559996 h -1.999985 v 0.559995 z"
     id="path17" />
  <path
     style="fill:#005073;fill-opacity:1;fill-rule:nonzero;stroke:none"
     d="m 23.519826,21.199843 -1.35999,-0.879994 v 0.639996 h -2.079985 v 0.559996 h 2.079985 v 0.559995 z"
     id="path18" />
  <path
     style="fill:#005073;fill-opacity:1;fill-rule:nonzero;stroke:none"
     d="m 17.999867,23.039829 c -0.719995,0 -1.199991,-0.719994 -1.199991,-1.759987 0,-1.119991 0.479996,-1.759987 1.27999,-1.759987 0.719995,0 1.119992,0.639996 1.119992,1.679988 0,1.119992 -0.399997,1.839986 -1.199991,1.839986 z m 0.08,-3.279975 c -0.559996,0 -0.959993,0.559995 -0.959993,1.519988 0,0.879994 0.319998,1.43999 0.879994,1.43999 0.799994,0 0.959993,-0.959993 0.959993,-1.519989 0,-0.559996 -0.08,-1.439989 -0.879994,-1.439989 z"
     id="path19" />
</svg>
