<svg width="93" height="92" viewBox="0 0 93 92" fill="none" xmlns="http://www.w3.org/2000/svg">
<path fill-rule="evenodd" clip-rule="evenodd" d="M5.33301 91C2.73301 91 1 89.269 1 86.673C1 5.327 1 5.327 1 5.327C1 2.731 2.73301 1 5.33301 1C87.667 1 87.667 1 87.667 1C89.4 1 92 2.731 92 5.327C92 86.673 92 86.673 92 86.673C92 89.269 89.4 91 87.667 91H5.33301Z" fill="#FAFAFA"/>
<path fill-rule="evenodd" clip-rule="evenodd" d="M87.785 1.73599C89.523 1.73599 91.262 3.472 91.262 5.207C91.262 86.793 91.262 86.793 91.262 86.793C91.262 89.396 89.523 90.264 87.785 90.264C5.21497 90.264 5.215 90.264 5.215 90.264C3.477 90.264 1.73801 89.396 1.73801 86.793C1.73801 5.207 1.73801 5.207 1.73801 5.207C1.73801 3.472 3.477 1.73599 5.215 1.73599C87.785 1.73599 87.785 1.73599 87.785 1.73599ZM87.785 0C5.21497 0 5.215 0 5.215 0C2.607 0 0 1.736 0 5.207C0 86.793 0 86.793 0 86.793C0 90.264 2.607 92 5.215 92C87.785 92 87.785 92 87.785 92C90.393 92 93 90.264 93 86.793C93 5.207 93 5.207 93 5.207C93 1.736 90.393 0 87.785 0Z" fill="#005073"/>
<path fill-rule="evenodd" clip-rule="evenodd" d="M75 53.662C70.735 33.901 46 15 37.471 15C29.794 15 28.088 17.578 22.971 22.732C22.118 23.592 22.118 23.592 22.118 23.592C19.559 28.746 17 33.901 22.971 45.93C28.088 57.958 40.029 69.127 44.294 71.704C47.706 73.422 52.824 76 55.382 76C55.382 73.422 55.382 73.422 55.382 73.422C53.676 73.422 51.118 72.563 46 69.127C44.294 68.268 43.441 67.408 41.735 65.69C44.294 66.549 44.294 66.549 44.294 66.549C46 59.676 42.588 56.239 40.029 53.662C39.177 52.803 38.324 52.803 38.324 51.944C35.765 49.366 32.353 46.789 32.353 44.211C33.206 39.056 34.912 35.62 38.324 33.901C41.735 31.324 45.147 32.183 47.706 33.042C50.265 33.901 52.824 35.62 52.824 36.479C52.824 37.338 53.676 39.056 61.353 38.197C61.353 35.62 61.353 35.62 61.353 35.62C58.794 35.62 56.235 35.62 55.382 35.62C54.529 33.042 51.971 31.324 48.559 30.465C45.147 29.606 41.735 28.746 36.618 31.324C33.206 33.901 30.647 38.197 29.794 43.352C29.794 47.648 33.206 51.084 36.618 53.662C36.618 54.521 37.471 55.38 37.471 55.38C40.882 58.817 42.588 61.394 41.735 65.69C36.618 61.394 28.941 53.662 24.677 45.07C24.677 44.211 24.677 44.211 24.677 43.352C26.382 43.352 26.382 43.352 26.382 43.352C23.824 37.338 24.677 33.901 26.382 30.465C28.088 27.887 31.5 25.31 34.059 24.451C36.618 22.732 39.177 22.732 40.882 23.592C43.441 23.592 46 25.31 46.853 25.31C43.441 24.451 39.177 25.31 37.471 25.31C36.618 25.31 36.618 25.31 36.618 25.31C34.059 27.028 29.794 29.606 27.235 37.338C25.53 40.775 26.382 46.789 28.941 51.084C29.794 52.803 32.353 55.38 34.059 57.099C35.765 58.817 37.471 60.535 37.471 61.394V60.535C40.029 61.394 40.029 61.394 40.029 61.394C40.882 59.676 39.177 57.958 35.765 55.38C34.059 53.662 31.5 51.084 30.647 49.366C28.941 45.93 28.941 40.775 29.794 38.197C31.5 31.324 34.912 28.746 37.471 27.887C40.029 27.887 45.147 27.028 47.706 28.746C50.265 29.606 51.971 30.465 52.824 31.324C54.529 32.183 55.382 33.042 56.235 33.042C56.235 33.901 56.235 33.901 56.235 33.901C57.088 33.901 58.794 34.761 59.647 33.901C58.794 31.324 58.794 31.324 58.794 31.324C57.941 31.324 57.941 31.324 57.941 31.324C57.088 30.465 57.088 30.465 57.088 30.465C56.235 30.465 55.382 30.465 54.529 29.606C52.824 28.746 51.118 27.028 49.412 26.169C48.559 26.169 47.706 25.31 47.706 25.31C48.559 23.592 48.559 23.592 48.559 23.592C47.706 22.732 44.294 21.014 41.735 21.014C39.177 20.155 35.765 20.155 33.206 21.873C29.794 22.732 26.382 26.169 24.677 29.606C22.971 32.183 22.118 35.62 22.118 38.197C20.412 32.183 22.118 28.746 24.677 24.451C29.794 19.296 31.5 17.578 37.471 17.578C44.294 17.578 66.471 33.042 71.588 51.084C69.882 50.225 69.882 50.225 69.882 50.225C67.323 52.803 64.765 54.521 62.206 56.239C60.5 57.099 60.5 57.099 60.5 57.099C60.5 56.239 61.353 55.38 61.353 55.38C63.912 53.662 66.471 51.944 69.029 49.366C67.323 47.648 67.323 47.648 67.323 47.648C64.765 50.225 62.206 51.944 58.794 53.662C58.794 54.521 58.794 54.521 58.794 54.521C58.794 55.38 57.088 59.676 54.529 64.831C56.235 59.676 57.088 53.662 56.235 50.225C58.794 50.225 62.206 47.648 64.765 46.789C65.618 45.93 66.471 45.07 67.323 44.211C66.471 42.493 66.471 42.493 66.471 42.493C64.765 42.493 63.912 43.352 63.059 44.211C60.5 45.93 57.088 47.648 55.382 47.648C52.824 46.789 52.824 46.789 52.824 46.789C53.676 49.366 53.676 49.366 53.676 49.366C54.529 51.944 53.676 63.113 50.265 69.127C52.824 69.986 52.824 69.986 52.824 69.986C52.824 69.986 52.824 69.986 52.824 70.845C54.529 71.704 54.529 71.704 54.529 71.704C57.088 72.563 57.088 72.563 57.088 72.563C57.941 69.986 60.5 63.972 62.206 58.817C63.059 57.958 63.059 57.958 63.059 57.958C66.471 56.239 69.029 54.521 71.588 51.944C71.588 52.803 72.441 52.803 72.441 53.662H75Z" fill="#005073"/>
<path fill-rule="evenodd" clip-rule="evenodd" d="M49.625 69.9999C54 56.2859 52.25 40.8569 50.5 37.4289C48.75 33.9999 43.5 33.9999 40.875 34.8569C37.375 35.7139 33 40.857 34.75 44.286C35.625 46.857 38.25 50.2859 41.75 52.8569C43.5 54.5709 43.5 54.571 43.5 54.571C45.25 56.286 49.625 60.5709 48.75 64.8569C47.875 65.7139 47.875 67.4289 47 69.1429L49.625 69.9999ZM47.875 56.286C48.75 52 48.75 51.9999 48.75 51.9999C50.5 45.9999 48.75 40.8569 47 39.9999C46.125 38.2859 44.375 38.286 43.5 38.286C41.75 38.286 40 39.9999 39.125 41.7139C38.25 44.2859 40.875 46.857 43.5 48.571C44.375 50.286 46.125 51.1429 47 51.9999C47.875 56.2859 47.875 56.286 47.875 56.286C47 54.571 46.125 53.7139 45.25 52.8569C43.5 51.1429 43.5 51.1429 43.5 51.1429C41.75 49.4289 37.375 45.1429 37.375 43.4289C36.5 41.7139 40 38.2859 41.75 37.4289C42.625 36.5709 43.5 36.571 44.375 36.571C45.25 36.571 47.875 37.4289 47.875 39.1429C48.75 40.8569 50.5 48.5709 49.625 57.9999C48.75 57.1429 48.75 57.143 47.875 56.286ZM47 48.571C46.125 47.714 46.125 46.8569 45.25 46.8569C43.5 45.1429 41.75 43.429 41.75 42.571C41.75 41.714 42.625 40.8569 43.5 40.8569C44.375 40.8569 45.25 40.8569 45.25 41.7139C46.125 42.5709 47 44.286 47 48.571Z" fill="#005073"/>
<path fill-rule="evenodd" clip-rule="evenodd" d="M59.875 42C61.625 42 65.125 41.25 66 40.5C64.25 39 64.25 39 64.25 39C62.5 39.75 55.5 40.5 53.75 39C52 40.5 52 40.5 52 40.5C53.75 42 56.375 42 58.125 42C59 42 59.875 42 59.875 42Z" fill="#005073"/>
</svg>
