<?xml version="1.0" encoding="UTF-8" standalone="no"?>
<svg
   version="1.0"
   width="100"
   height="100"
   id="svg3"
   xmlns="http://www.w3.org/2000/svg"
   xmlns:svg="http://www.w3.org/2000/svg" viewBox="-0.00 -1.87 30.95 30.95">
  <defs
     id="defs1">
    <pattern
       id="EMFhbasepattern"
       patternUnits="userSpaceOnUse"
       width="6"
       height="6"
       x="0"
       y="0" />
  </defs>
  <path
     style="fill:#ffffff;fill-opacity:1;fill-rule:nonzero;stroke:none"
     d="m 1.5129911,26.959801 c -1.1199917,0 -1.59998815,-0.799994 -1.0399923,-1.759987 L 14.472895,0.95999289 C 14.792892,0 16.152882,0 16.47288,0.95999289 L 30.472776,25.199814 c 0.559996,0.959993 0.08,1.679987 -0.959993,1.679987 z"
     id="path1" />
  <path
     style="fill:none;stroke:#005073;stroke-width:0.479996px;stroke-linecap:butt;stroke-linejoin:miter;stroke-miterlimit:10;stroke-dasharray:none;stroke-opacity:1"
     d="m 1.5129911,26.959801 c -1.1199917,0 -1.59998815,-0.799994 -1.0399923,-1.759987 L 14.472895,0.95999289 C 14.792892,0 16.152882,0 16.47288,0.95999289 L 30.472776,25.199814 c 0.559996,0.959993 0.08,1.679987 -0.959993,1.679987 z"
     id="path2" />
  <path
     style="fill:#005073;fill-opacity:1;fill-rule:nonzero;stroke:none"
     d="m 21.272844,19.919853 c -0.399997,0 -0.719994,0.08 -1.039992,0.319997 l -2.799979,-2.879978 c 0.159999,-0.319998 0.239998,-0.719995 0.239998,-1.039992 0,-1.039993 -0.719995,-1.919986 -1.679988,-2.159984 v -3.679973 c 2.479982,-0.6399959 2.079985,-4.2399692 -0.479996,-4.2399692 -2.559981,0 -3.039977,3.5999733 -0.479996,4.2399692 v 3.679973 c -1.039993,0.239998 -1.679988,1.119991 -1.679988,2.159984 0,0.319997 0.08,0.639995 0.239998,0.959992 l -2.799979,2.879979 c -2.239983,-1.199991 -4.3199676,1.839986 -2.3999818,3.439975 1.8399858,1.679987 4.5599658,-0.719995 3.1199768,-2.79998 l 2.799979,-2.71998 c 0.319998,0.239999 0.719995,0.319998 1.199991,0.319998 0.399997,0 0.879994,-0.08 1.199991,-0.319998 l 2.799979,2.71998 c -1.35999,1.839987 0.719995,4.239969 2.71998,3.199977 1.999985,-1.039993 1.279991,-4.07997 -0.959993,-4.07997 z"
     id="path3" />
</svg>
