<?xml version="1.0" encoding="UTF-8" standalone="no"?>
<svg
   version="1.0"
   width="100"
   height="100"
   id="svg6"
   xmlns="http://www.w3.org/2000/svg"
   xmlns:svg="http://www.w3.org/2000/svg" viewBox="-0.00 -4.44 35.52 35.52">
  <defs
     id="defs1">
    <pattern
       id="EMFhbasepattern"
       patternUnits="userSpaceOnUse"
       width="6"
       height="6"
       x="0"
       y="0" />
  </defs>
  <path
     style="fill:#fafafa;fill-opacity:1;fill-rule:nonzero;stroke:none"
     d="M 1.5199887,0.23999822 H 33.999748 c 0.639995,0 1.199991,0.55999585 1.199991,1.27999048 V 25.119814 c 0,0.719995 -0.559996,1.27999 -1.199991,1.27999 H 1.5199887 c -0.71999463,0 -1.27999048,-0.559995 -1.27999048,-1.27999 V 1.5199887 c 0,-0.71999463 0.55999585,-1.27999048 1.27999048,-1.27999048 z"
     id="path1" />
  <path
     style="fill:#005073;fill-opacity:1;fill-rule:nonzero;stroke:none"
     d="m 33.999748,0.47999644 c 0.559996,0 1.039992,0.47999645 1.039992,1.03999226 V 25.119814 c 0,0.559996 -0.479996,1.039992 -1.039992,1.039992 H 1.5199887 c -0.55999581,0 -1.03999226,-0.479996 -1.03999226,-1.039992 V 1.5199887 c 0,-0.55999581 0.47999645,-1.03999226 1.03999226,-1.03999226 z M 33.999748,0 H 1.5199887 C 0.63999526,0 0,0.63999526 0,1.5199887 V 25.119814 c 0,0.879993 0.63999526,1.519989 1.5199887,1.519989 H 33.999748 c 0.799994,0 1.519989,-0.639996 1.519989,-1.519989 V 1.5199887 C 35.519737,0.63999526 34.799742,0 33.999748,0 Z"
     id="path2" />
  <path
     style="fill:#005073;fill-opacity:1;fill-rule:nonzero;stroke:none"
     d="m 26.719802,13.919897 h -7.359945 v -1.199991 h 7.359945 v -1.839987 l 4.319968,2.399983 -4.319968,2.399982 z"
     id="path3" />
  <path
     style="fill:#005073;fill-opacity:1;fill-rule:nonzero;stroke:none"
     d="M 11.839912,13.919897 H 4.4799668 v -1.199991 h 7.3599452 v -1.839987 l 4.239969,2.399983 -4.239969,2.399982 z"
     id="path4" />
  <path
     style="fill:#005073;fill-opacity:1;fill-rule:nonzero;stroke:none"
     d="M 25.439812,6.1599544 19.279857,10.159925 18.639862,9.1199324 24.799816,5.1199621 23.839823,3.5999733 28.719787,3.2799757 26.479804,7.6799431 Z"
     id="path5" />
  <path
     style="fill:#005073;fill-opacity:1;fill-rule:nonzero;stroke:none"
     d="m 25.439812,20.559848 -6.159955,-3.999971 -0.639995,0.959993 6.159954,3.999971 -0.959993,1.519988 4.879964,0.319998 -2.239983,-4.319968 z"
     id="path6" />
</svg>
