<?xml version="1.0" encoding="UTF-8" standalone="no"?>
<svg
   version="1.0"
   width="100"
   height="100"
   id="svg30"
   xmlns="http://www.w3.org/2000/svg"
   xmlns:svg="http://www.w3.org/2000/svg" viewBox="-0.00 -4.44 35.52 35.52">
  <defs
     id="defs1">
    <pattern
       id="EMFhbasepattern"
       patternUnits="userSpaceOnUse"
       width="6"
       height="6"
       x="0"
       y="0" />
  </defs>
  <path
     style="fill:none;stroke:#ffffff;stroke-width:0.719995px;stroke-linecap:butt;stroke-linejoin:miter;stroke-miterlimit:4;stroke-dasharray:none;stroke-opacity:1"
     d="m 6.5599514,15.039889 c 2.2399834,-0.159999 1.6799876,3.599973 3.9199706,3.599973 1.919986,0 1.35999,-3.919971 3.519974,-3.679973"
     id="path1" />
  <path
     style="fill:none;stroke:#ffffff;stroke-width:0.719995px;stroke-linecap:butt;stroke-linejoin:miter;stroke-miterlimit:4;stroke-dasharray:none;stroke-opacity:1"
     d="m 21.119844,15.039889 c 2.239983,-0.159999 1.599988,3.599973 3.919971,3.599973 1.919985,0 1.27999,-3.919971 3.519973,-3.679973"
     id="path2" />
  <path
     style="fill:none;stroke:#ffffff;stroke-width:0.719995px;stroke-linecap:butt;stroke-linejoin:miter;stroke-miterlimit:4;stroke-dasharray:none;stroke-opacity:1"
     d="m 21.199843,15.039889 c -2.319983,-0.159999 -1.679988,3.599973 -3.99997,3.599973 -1.919986,0 -1.279991,-3.919971 -3.439975,-3.679973"
     id="path3" />
  <path
     style="fill:none;stroke:#ffffff;stroke-width:0.719995px;stroke-linecap:butt;stroke-linejoin:miter;stroke-miterlimit:4;stroke-dasharray:none;stroke-opacity:1"
     d="m 33.519752,16.23988 c 0.159999,1.119991 -0.639996,2.239983 -1.759987,2.399982 -1.919986,0 -1.35999,-3.919971 -3.519974,-3.679973"
     id="path4" />
  <path
     style="fill:none;stroke:#ffffff;stroke-width:0.719995px;stroke-linecap:butt;stroke-linejoin:miter;stroke-miterlimit:4;stroke-dasharray:none;stroke-opacity:1"
     d="M 4.719965,16.559877 C 4.9599633,15.679884 5.7599573,15.039889 6.6399508,15.039889"
     id="path5" />
  <path
     style="fill:none;stroke:#ffffff;stroke-width:1.35999px;stroke-linecap:butt;stroke-linejoin:miter;stroke-miterlimit:4;stroke-dasharray:none;stroke-opacity:1"
     d="m 6.5599514,18.559863 c 2.2399834,0.159998 1.6799876,-3.519974 3.9199706,-3.519974 1.919986,0 1.35999,3.839971 3.519974,3.599973"
     id="path6" />
  <path
     style="fill:none;stroke:#ffffff;stroke-width:1.35999px;stroke-linecap:butt;stroke-linejoin:miter;stroke-miterlimit:4;stroke-dasharray:none;stroke-opacity:1"
     d="m 21.119844,18.559863 c 2.239983,0.159998 1.599988,-3.519974 3.919971,-3.519974 1.919985,0 1.27999,3.839971 3.439974,3.599973"
     id="path7" />
  <path
     style="fill:none;stroke:#ffffff;stroke-width:1.35999px;stroke-linecap:butt;stroke-linejoin:miter;stroke-miterlimit:4;stroke-dasharray:none;stroke-opacity:1"
     d="m 21.199843,18.559863 c -2.319983,0.159998 -1.679988,-3.599974 -3.99997,-3.599974 -1.919986,0 -1.279991,3.919971 -3.439975,3.679973"
     id="path8" />
  <path
     style="fill:none;stroke:#ffffff;stroke-width:1.35999px;stroke-linecap:butt;stroke-linejoin:miter;stroke-miterlimit:4;stroke-dasharray:none;stroke-opacity:1"
     d="m 33.599751,16.479878 c -0.159999,-0.879994 -0.959993,-1.519989 -1.839986,-1.439989 -1.919986,0 -1.35999,3.839971 -3.519974,3.599973"
     id="path9" />
  <path
     style="fill:none;stroke:#ffffff;stroke-width:1.35999px;stroke-linecap:butt;stroke-linejoin:miter;stroke-miterlimit:4;stroke-dasharray:none;stroke-opacity:1"
     d="m 4.7999644,16.319879 c -0.079999,0.639995 0.1599989,1.199991 0.6399953,1.679988 0.3199976,0.399997 0.7999941,0.639995 1.3599899,0.559996"
     id="path10" />
  <path
     style="fill:#40555f;fill-opacity:1;fill-rule:evenodd;stroke:none"
     d="M 2.3199828,0.63999526 H 32.959756 c 0.959993,0 1.759987,0.71999464 1.759987,1.67998754 V 24.559818 c 0,0.879994 -0.799994,1.679988 -1.759987,1.679988 H 2.3199828 c -0.9599929,0 -1.75998695,-0.799994 -1.75998695,-1.679988 V 2.3199828 c 0,-0.9599929 0.79999405,-1.67998754 1.75998695,-1.67998754 z"
     id="path11" />
  <path
     style="fill:#a6afb5;fill-opacity:1;fill-rule:evenodd;stroke:none"
     d="M 32.079762,1.6799876 H 3.1999763 c -0.8799935,0 -1.5999882,0.7199946 -1.5999882,1.5999881 V 21.439841 L 33.679751,21.59984 V 3.2799757 c 0,-0.8799935 -0.719995,-1.5999881 -1.599989,-1.5999881 z"
     id="path12" />
  <path
     style="fill:#24556c;fill-opacity:1;fill-rule:nonzero;stroke:none"
     d="M 33.039755,26.559803 H 2.2399834 c -1.1199917,0 -1.99998518,-0.959993 -1.99998518,-1.999985 V 2.3199828 C 0.31999763,1.2799905 1.1999911,0.39999704 2.2399834,0.31999763 H 33.039755 C 34.079748,0.39999704 35.03974,1.2799905 35.03974,2.3999822 V 24.559818 c 0,1.039992 -0.959992,1.999985 -1.999985,1.999985 z M 2.2399834,1.0399923 C 1.5199887,0.95999289 0.95999289,1.5999881 0.87999348,2.3199828 V 24.559818 c 0,0.719995 0.63999522,1.35999 1.35998992,1.35999 H 33.039755 c 0.719995,0 1.35999,-0.639995 1.35999,-1.35999 V 2.3199828 c -0.08,-0.7199947 -0.639995,-1.35998991 -1.35999,-1.2799905 z"
     id="path13" />
  <path
     style="fill:#24556c;fill-opacity:1;fill-rule:nonzero;stroke:none"
     d="M 4.0799698,6.079955 H 5.1199621 V 16.15988 H 4.0799698 Z"
     id="path14" />
  <path
     style="fill:#24556c;fill-opacity:1;fill-rule:nonzero;stroke:none"
     d="m 9.9199265,9.039933 h 0.9599925 v 6.959948 H 9.9199265 Z"
     id="path15" />
  <path
     style="fill:#24556c;fill-opacity:1;fill-rule:nonzero;stroke:none"
     d="m 16.959874,9.9999259 h 1.039993 v 5.9999551 h -1.039993 z"
     id="path16" />
  <path
     style="fill:#24556c;fill-opacity:1;fill-rule:nonzero;stroke:none"
     d="m 23.839823,9.039933 h 1.039993 v 6.959948 h -1.039993 z"
     id="path17" />
  <path
     style="fill:#24556c;fill-opacity:1;fill-rule:nonzero;stroke:none"
     d="m 29.439782,6.6399508 h 1.039992 V 16.15988 h -1.039992 z"
     id="path18" />
  <path
     style="fill:#95a2a9;fill-opacity:1;fill-rule:nonzero;stroke:#24556c;stroke-width:0.719995px;stroke-linecap:square;stroke-linejoin:round;stroke-miterlimit:4;stroke-dasharray:none;stroke-opacity:1"
     d="m 33.75975,1.759987 c 0,4.6399656 -7.679943,7.9199413 -16.15988,7.9199413 -8.3999381,0 -15.839883,-3.0399775 -16.1598807,-7.9999407 z"
     id="path19" />
  <path
     style="fill:#24556c;fill-opacity:1;fill-rule:nonzero;stroke:none"
     d="m 34.719743,25.439812 c 0,0.399997 -0.799994,0.719994 -1.759987,0.719994 H 2.2399834 c -0.8799935,0 -1.67998755,-0.319997 -1.67998755,-0.719994 v -8.959934 c 0,-0.399997 0.79999405,-0.639995 1.67998755,-0.639995 H 33.039755 c 0.879994,0 1.679988,0.239998 1.679988,0.639995 z"
     id="path20" />
  <path
     style="fill:#ffffff;fill-opacity:1;fill-rule:nonzero;stroke:none"
     d="m 32.719758,21.119844 -0.639996,0.08 c 0.08,0.559996 -0.159998,1.039992 -0.479996,1.439989 -0.239998,0.319998 -0.639995,0.479997 -1.039992,0.479997 -0.639996,0 -0.879994,-0.559996 -1.279991,-1.519989 -0.399997,-0.959993 -0.799994,-1.919986 -1.919986,-1.999985 H 27.0398 c -1.119992,0.08 -1.519989,1.119992 -1.919986,1.999985 -0.319998,0.879993 -0.639995,1.519989 -1.279991,1.519989 -0.879993,0 -1.199991,-0.559996 -1.679987,-1.599988 -0.479997,-0.959993 -0.879994,-1.839987 -2.159984,-1.839987 h -0.159999 c -1.199991,0 -1.679988,0.959993 -2.159984,1.839987 -0.399997,0.879993 -0.799994,1.599988 -1.599988,1.599988 -0.719995,0 -0.959993,-0.559996 -1.35999,-1.519989 -0.399997,-0.959993 -0.719995,-1.919986 -1.839986,-1.999985 h -0.399997 c -1.119992,0.08 -1.519989,1.119992 -1.919986,1.999985 -0.319998,0.879993 -0.5599961,1.519989 -1.1999913,1.519989 -0.8799935,0 -1.1999911,-0.559996 -1.6799876,-1.599988 C 7.1999467,20.559848 6.7199502,19.519855 5.3599603,19.679854 v 0 c -0.9599929,0.08 -1.8399864,0.719995 -2.159984,1.759987 L 3.919971,21.59984 c 0.1599988,-0.719995 0.799994,-1.199991 1.5199887,-1.279991 0.7999941,0 1.1999911,0.559996 1.5999882,1.519989 0.4799964,0.959993 0.9599928,1.999985 2.3199828,1.999985 1.1199913,0 1.5199883,-1.039992 1.9199853,-1.919985 0.319998,-0.959993 0.719995,-1.599989 1.43999,-1.599989 0.719994,0 0.959993,0.559996 1.439989,1.599989 0.399997,0.959993 0.719995,1.919985 1.919986,1.919985 1.35999,0 1.839986,-1.039992 2.319983,-1.999985 0.399997,-0.959993 0.719994,-1.519989 1.599988,-1.519989 0.799994,0.08 1.119992,0.559996 1.599988,1.519989 0.479996,0.959993 0.959993,1.999985 2.319983,1.999985 1.119992,0 1.519989,-1.039992 1.919986,-1.919985 0.319997,-0.959993 0.639995,-1.599989 1.439989,-1.599989 0.719995,0 0.959993,0.559996 1.439989,1.599989 0.399997,0.959993 0.719995,1.919985 1.919986,1.919985 0.559996,0 1.119992,-0.239998 1.439989,-0.719994 0.559996,-0.559996 0.799994,-1.279991 0.639996,-1.999985 z"
     id="path21" />
  <path
     style="fill:#ffffff;fill-opacity:1;fill-rule:nonzero;stroke:none"
     d="m 30.639773,19.199858 c -1.439989,0 -1.919986,1.27999 -2.239983,2.239983 -0.399997,0.879994 -0.639996,1.279991 -1.039993,1.35999 h -0.159998 c -0.399998,0 -0.639996,-0.399997 -0.959993,-1.439989 -0.399997,-0.959993 -0.879994,-2.159984 -2.319983,-2.159984 -1.519989,0 -2.159984,1.27999 -2.559981,2.159984 -0.399997,0.959993 -0.719995,1.35999 -1.279991,1.27999 v 0.159999 -0.159999 c -0.559996,0 -0.799994,-0.239998 -1.27999,-1.27999 -0.479997,-1.039993 -1.039993,-2.159984 -2.639981,-2.159984 -1.35999,0 -1.839986,1.27999 -2.239983,2.159984 -0.319998,0.959993 -0.639995,1.35999 -0.959993,1.439989 h -0.159999 c -0.479996,0 -0.719994,-0.399997 -1.039992,-1.439989 -0.319998,-0.959993 -0.879994,-2.159984 -2.2399835,-2.159984 -1.5999882,0 -2.159984,1.27999 -2.6399805,2.159984 -0.399997,0.959993 -0.8799934,1.35999 -1.4399893,1.35999 v 0 c -0.3199976,0 -0.5599958,-0.159999 -0.7199947,-0.399997 C 4.3999674,22.079836 4.2399686,21.679839 4.2399686,21.279842 L 2.8799787,21.119844 c 0,0.799994 0.2399982,1.599988 0.799994,2.079984 0.3999971,0.479997 1.0399923,0.799994 1.5999882,0.799994 v 0 h 0.2399982 v 0 c 1.4399893,0 1.9999852,-1.119991 2.3999822,-1.999985 0.4799965,-0.799994 0.7199947,-1.35999 1.35999,-1.35999 0.399997,0 0.6399952,0.399997 1.0399927,1.279991 0.319997,0.879993 0.799994,2.159984 2.159984,2.239983 h 0.399997 c 1.35999,-0.08 1.839986,-1.27999 2.159984,-2.239983 0.399997,-0.879994 0.559995,-1.279991 1.039992,-1.279991 0.639995,0 0.879993,0.399997 1.35999,1.35999 0.479996,0.959993 0.959993,2.079985 2.399982,2.079985 h 0.239998 c 1.43999,0 1.999985,-1.199991 2.399982,-2.079985 0.479997,-0.879993 0.719995,-1.35999 1.35999,-1.35999 0.479997,0 0.639996,0.399997 1.039993,1.279991 0.319997,0.879993 0.799994,2.079984 2.159984,2.159984 h 0.399997 c 1.27999,-0.08 1.839986,-1.279991 2.159984,-2.239984 0.399997,-0.879993 0.559996,-1.27999 1.039992,-1.27999 0.559996,0 1.039992,0.399997 1.199991,0.959993 l 1.279991,-0.319998 c -0.239999,-1.199991 -1.279991,-1.999985 -2.479982,-1.999985 z"
     id="path22" />
  <path
     style="fill:#fafafa;fill-opacity:1;fill-rule:nonzero;stroke:none"
     d="M 1.5199887,0.23999822 H 33.999748 c 0.639995,0 1.199991,0.55999585 1.199991,1.27999048 V 25.119814 c 0,0.719995 -0.559996,1.27999 -1.199991,1.27999 H 1.5199887 c -0.71999463,0 -1.27999048,-0.559995 -1.27999048,-1.27999 V 1.5199887 c 0,-0.71999463 0.55999585,-1.27999048 1.27999048,-1.27999048 z"
     id="path23" />
  <path
     style="fill:#005073;fill-opacity:1;fill-rule:nonzero;stroke:none"
     d="m 33.999748,0.47999644 c 0.559996,0 1.039992,0.47999645 1.039992,1.03999226 V 25.119814 c 0,0.559996 -0.479996,1.039992 -1.039992,1.039992 H 1.5199887 c -0.55999581,0 -1.03999226,-0.479996 -1.03999226,-1.039992 V 1.5199887 c 0,-0.55999581 0.47999645,-1.03999226 1.03999226,-1.03999226 z M 33.999748,0 H 1.5199887 C 0.63999526,0 0,0.63999526 0,1.5199887 V 25.119814 c 0,0.879993 0.63999526,1.519989 1.5199887,1.519989 H 33.999748 c 0.799994,0 1.519989,-0.639996 1.519989,-1.519989 V 1.5199887 C 35.519737,0.63999526 34.799742,0 33.999748,0 Z"
     id="path24" />
  <path
     style="fill:#005073;fill-opacity:1;fill-rule:nonzero;stroke:none"
     d="M 1.1199917,15.839883 H 34.319746 c 0.559996,0 0.959993,0.399997 0.959993,0.959993 v 8.559936 c 0,0.559996 -0.399997,1.039992 -0.959993,1.039992 H 1.1199917 c -0.55999585,0 -0.95999289,-0.479996 -0.95999289,-1.039992 v -8.559936 c 0,-0.559996 0.39999704,-0.959993 0.95999289,-0.959993 z"
     id="path25" />
  <path
     style="fill:#005073;fill-opacity:1;fill-rule:nonzero;stroke:#005073;stroke-width:0.719995px;stroke-linecap:square;stroke-linejoin:round;stroke-miterlimit:4;stroke-dasharray:none;stroke-opacity:1"
     d="M 9.4399301,7.8399419 H 10.479922 V 15.839883 H 9.4399301 Z"
     id="path26" />
  <path
     style="fill:#005073;fill-opacity:1;fill-rule:nonzero;stroke:#005073;stroke-width:0.719995px;stroke-linecap:square;stroke-linejoin:round;stroke-miterlimit:4;stroke-dasharray:none;stroke-opacity:1"
     d="m 16.959874,8.7199354 h 1.039993 v 7.0399476 h -1.039993 z"
     id="path27" />
  <path
     style="fill:#005073;fill-opacity:1;fill-rule:nonzero;stroke:#005073;stroke-width:0.719995px;stroke-linecap:square;stroke-linejoin:round;stroke-miterlimit:4;stroke-dasharray:none;stroke-opacity:1"
     d="M 34.239746,1.1999911 H 1.1999911 c 0.079999,1.9199858 0.399997,3.1999763 2.0799846,4.4799668 v 0 V 16.15988 H 4.3999674 V 6.3999526 c 3.1199769,1.9199858 7.9999406,2.9599781 13.2799016,2.9599781 2.239983,0 4.399967,-0.1599988 6.639951,-0.6399953 v 7.2799456 h 1.039992 V 8.7199354 H 24.31982 c 1.999985,-0.399997 3.99997,-1.0399923 5.839957,-1.9199858 V 16.15988 h 1.039992 v -9.9199262 0 c 1.919986,-0.9599929 3.039977,-2.8799787 3.039977,-5.0399627 z"
     id="path28" />
  <path
     style="fill:#ffffff;fill-opacity:1;fill-rule:nonzero;stroke:none"
     d="m 32.879756,20.879845 -0.719994,0.08 c 0.08,0.559996 -0.08,1.119991 -0.479997,1.519988 -0.239998,0.239999 -0.639995,0.479997 -0.959993,0.479997 -0.719994,0 -0.959992,-0.639995 -1.359989,-1.599988 -0.399998,-0.959993 -0.719995,-1.839987 -1.839987,-1.999985 h -0.399997 c -1.119992,0.159998 -1.519989,1.199991 -1.839986,1.999985 -0.399997,0.879993 -0.719995,1.599988 -1.35999,1.599988 -0.799994,0 -1.199991,-0.639995 -1.679988,-1.599988 -0.399997,-1.039993 -0.879993,-1.919986 -2.079984,-1.919986 h -0.159999 c -1.199991,0 -1.759987,1.039992 -2.159984,1.919986 -0.399997,0.799994 -0.799994,1.599988 -1.679988,1.599988 -0.639995,0 -0.879993,-0.639995 -1.27999,-1.599988 -0.399997,-0.959993 -0.799994,-1.919986 -1.919986,-1.999985 h -0.319998 c -1.119991,0.08 -1.519988,1.199991 -1.919985,1.999985 -0.319998,0.879993 -0.639996,1.599988 -1.2799909,1.599988 -0.8799935,0 -1.1999911,-0.639995 -1.6799876,-1.599988 C 7.2799461,20.319849 6.879949,19.359857 5.5199591,19.439856 v 0 c -1.0399923,0.08 -1.9199858,0.799994 -2.159984,1.759987 l 0.6399953,0.159999 c 0.1599988,-0.639995 0.799994,-1.199991 1.5199887,-1.199991 0.8799935,-0.08 1.1999911,0.479996 1.5999882,1.439989 0.4799964,0.959993 0.9599928,1.999985 2.3199828,1.999985 1.1999909,0 1.5999879,-0.959993 1.9199859,-1.919986 0.399997,-0.959992 0.719995,-1.679987 1.439989,-1.679987 0.719995,0 1.039992,0.559996 1.43999,1.599988 0.479996,0.959993 0.799994,1.999985 1.919985,1.999985 1.35999,0 1.839987,-1.039992 2.319983,-1.999985 0.399997,-0.959993 0.799994,-1.599988 1.599988,-1.519989 0.879994,0.08 1.199991,0.559996 1.599988,1.519989 0.479997,0.959993 0.959993,1.999985 2.319983,1.999985 1.119992,0 1.519989,-1.039992 1.919986,-1.999985 0.319998,-0.959993 0.719995,-1.599988 1.439989,-1.599988 0.719995,0 1.039993,0.559996 1.43999,1.599988 0.399997,0.959993 0.799994,1.919986 1.919985,1.919986 0.559996,0 1.119992,-0.239998 1.43999,-0.639995 0.479996,-0.559996 0.719994,-1.279991 0.719994,-1.999986 z"
     id="path29" />
  <path
     style="fill:#ffffff;fill-opacity:1;fill-rule:nonzero;stroke:none"
     d="m 30.719772,19.039859 c -1.359989,0 -1.919985,1.199991 -2.239983,2.159984 -0.399997,0.879993 -0.639995,1.27999 -1.039992,1.35999 v 0 0 c -0.08,0 -0.08,0 -0.159999,0 v 0 c -0.399997,0 -0.639995,-0.399997 -0.959993,-1.439989 -0.399997,-0.959993 -0.959993,-2.079985 -2.319983,-2.079985 -1.599988,0 -2.159984,1.199991 -2.559981,2.159984 -0.399997,0.879993 -0.719994,1.27999 -1.27999,1.27999 v 0 c -0.639996,0 -0.879994,-0.239998 -1.35999,-1.27999 -0.479997,-1.039992 -1.039993,-2.159984 -2.639981,-2.159984 -1.35999,0 -1.839986,1.199991 -2.239983,2.159984 -0.319998,0.879993 -0.639995,1.35999 -0.959993,1.35999 v 0 c -0.08,0 -0.08,0 -0.08,0 h -0.08 v 0 c -0.479996,0 -0.719994,-0.399997 -1.039992,-1.439989 -0.399997,-0.959993 -0.959993,-2.079985 -2.3199829,-2.079985 -1.5999882,0 -2.159984,1.199991 -2.6399805,2.159984 -0.399997,0.879993 -0.7199946,1.27999 -1.2799905,1.27999 v 0 c -0.2399982,0 -0.5599958,-0.159998 -0.7199947,-0.399997 C 4.4799668,21.839838 4.319968,21.439841 4.3999674,21.039844 l -1.3599899,-0.08 c -0.079999,0.719994 0.2399982,1.519988 0.7999941,2.079984 0.399997,0.399997 0.9599928,0.719995 1.5999881,0.719995 v 0 h 0.1599988 v 0 c 1.4399894,0 1.9999852,-1.199991 2.3999822,-2.079985 0.4799965,-0.879993 0.7999941,-1.35999 1.35999,-1.35999 0.4799964,0 0.6399952,0.399998 1.0399923,1.35999 0.319998,0.879994 0.879993,2.079985 2.159984,2.159984 h 0.479996 c 1.279991,-0.08 1.759987,-1.27999 2.159984,-2.159984 0.319998,-0.959992 0.559996,-1.35999 0.959993,-1.35999 0.639996,0 0.879994,0.399998 1.35999,1.43999 0.479997,0.959993 1.039993,1.999985 2.479982,1.999985 h 0.159999 c 1.519988,0 1.999985,-1.119992 2.479981,-1.999985 0.399997,-0.959993 0.719995,-1.43999 1.35999,-1.43999 0.399997,0 0.639995,0.399998 0.959993,1.35999 0.399997,0.879994 0.879994,2.079985 2.159984,2.159984 h 0.479997 c 1.27999,-0.08 1.759987,-1.27999 2.159984,-2.159984 0.319997,-0.959992 0.559995,-1.35999 0.959992,-1.35999 0.559996,0 1.119992,0.399998 1.199992,0.959993 l 1.359989,-0.239998 c -0.239998,-1.27999 -1.359989,-2.079984 -2.559981,-1.999984 z"
     id="path30" />
</svg>
