<?xml version="1.0" encoding="UTF-8" standalone="no"?>
<svg
   version="1.0"
   width="100"
   height="100"
   id="svg4"
   xmlns="http://www.w3.org/2000/svg"
   xmlns:svg="http://www.w3.org/2000/svg" viewBox="-0.04 -0.00 26.72 26.72">
  <defs
     id="defs1">
    <clipPath
       clipPathUnits="userSpaceOnUse"
       id="clipEmfPath1">
      <path
         d="M 3.5199739,3.4399745 H 29.199784 V 29.039785 H 3.5199739 Z"
         id="path1" />
    </clipPath>
    <pattern
       id="EMFhbasepattern"
       patternUnits="userSpaceOnUse"
       width="6"
       height="6"
       x="0"
       y="0" />
  </defs>
  <path
     style="fill:#fafafa;fill-opacity:1;fill-rule:nonzero;stroke:none"
     d="M 1.5199887,0.3199976 H 25.119813 c 0.719995,0 1.279991,0.4799964 1.279991,1.1999911 V 25.199813 c 0,0.639995 -0.559996,1.199991 -1.279991,1.199991 H 1.5199887 c -0.7199946,0 -1.2799905,-0.559996 -1.2799905,-1.199991 V 1.5199887 c 0,-0.7199947 0.5599959,-1.1999911 1.2799905,-1.1999911 z"
     id="path2" />
  <path
     style="fill:#005073;fill-opacity:1;fill-rule:nonzero;stroke:none"
     d="m 25.199813,0.5599958 c 0.479996,0 0.959994,0.3999971 0.959994,0.9599929 V 25.199813 c 0,0.559996 -0.479998,0.959993 -0.959994,0.959993 H 1.5199887 c -0.5599958,0 -1.0399923,-0.399997 -1.0399923,-0.959993 V 1.5199887 c 0,-0.5599958 0.4799965,-0.9599929 1.0399923,-0.9599929 z M 25.199813,0 H 1.5199887 C 0.7199946,0 0,0.7199946 0,1.5199887 V 25.199813 c 0,0.799994 0.7199946,1.519989 1.5199887,1.519989 H 25.199813 c 0.799995,0 1.43999,-0.719995 1.43999,-1.519989 V 1.5199887 C 26.639803,0.7199946 25.999808,0 25.199813,0 Z"
     id="path3" />
  <path
     style="fill:#005073;fill-opacity:1;fill-rule:nonzero;stroke:none"
     clip-path="url(#clipEmfPath1)"
     d="m 19.599855,11.279916 c -0.08,-0.239998 -0.159999,-0.479996 -0.239998,-0.799994 C 19.119858,9.8399271 19.039859,9.2799313 18.95986,8.639936 16.15988,8.4799372 13.4399,9.5199295 11.519915,11.519915 8.639936,14.479893 7.7599425,18.87986 9.4399301,22.719832 c 0.5599958,1.35999 0.7199949,2.879978 0.4799964,4.399967 L 5.6799579,22.879831 c 0.7999941,-0.159999 1.5999882,-0.159999 2.3999822,-0.08 C 7.7599425,21.919838 7.5199443,21.039844 7.4399449,20.159851 4.6399656,19.999852 1.9199858,21.039844 0,23.039829 l 1.8399864,1.839987 C 1.9999852,24.719817 2.159984,24.559818 2.3999822,24.399819 l 5.9999556,5.999956 C 8.239939,30.559774 8.0799401,30.799772 7.9199413,30.959771 l 1.759987,1.759987 c 2.1599837,-2.079985 3.1999767,-4.959964 2.8799787,-7.999941 -0.08,-0.959993 -0.319998,-1.919986 -0.639995,-2.879979 l -0.319998,-0.879993 c -0.159999,-0.319998 -0.239998,-0.639996 -0.239998,-0.959993 -0.239998,-0.959993 -0.239998,-1.919986 0,-2.799979 l 4.239968,4.239968 c -0.799994,0.159999 -1.599988,0.159999 -2.479981,0.08 0.319997,0.879993 0.559996,1.759987 0.719994,2.63998 2.71998,0.159999 5.43996,-0.879993 7.359946,-2.879979 1.999985,-1.919985 3.119977,-4.639965 2.959978,-7.439945 -0.08,-0.879993 -0.239998,-1.839986 -0.479996,-2.719979 v 0 c -0.08,-0.319998 -0.239999,-0.639996 -0.399997,-0.959993 -0.239999,-0.6399955 -0.399997,-1.3599902 -0.479997,-1.9999854 -0.159999,-0.7999941 -0.08,-1.6799876 0.08,-2.4799817 l 4.239968,4.319968 c -0.799994,0.079999 -1.599988,0.079999 -2.479982,0 0.08,0.1599991 0.159999,0.3999971 0.239999,0.7199951 v 0 c 0.239998,0.639995 0.319997,1.27999 0.399997,1.919985 2.799979,0.159999 5.519959,-0.879993 7.439945,-2.8799783 L 30.879771,7.8399419 C 30.719772,7.9999407 30.559774,8.1599396 30.399775,8.3199384 L 24.399819,2.3199828 C 24.559818,2.159984 24.719817,1.9999852 24.879816,1.8399864 L 23.039829,0 c -1.999985,1.9199858 -3.039977,4.6399656 -2.879978,7.4399449 0,0.8799935 0.159998,1.759987 0.399997,2.7199801 v 0 c 0.159999,0.319997 0.239998,0.639995 0.399997,0.959993 0.239998,0.639995 0.399997,1.27999 0.479996,1.999985 0.159999,0.799994 0.159999,1.599988 0,2.399982 l -4.239968,-4.239969 c 0.799994,-0.159998 1.599988,-0.159998 2.399982,0 z M 3.1999763,23.839823 c 0.399997,-0.319997 0.8799935,-0.479996 1.2799905,-0.639995 l 5.1199621,5.039963 c -0.1599988,0.479996 -0.399997,0.879993 -0.5599959,1.27999 z M 23.839823,3.1999763 29.599781,8.9599336 C 29.199784,9.1999319 28.719787,9.4399301 28.31979,9.5999289 L 23.199828,4.4799668 C 23.359827,3.9999704 23.599825,3.5999733 23.839823,3.1999763 Z M 19.359857,19.359857 c -0.159999,0.159998 -0.319998,0.319997 -0.479997,0.479996 l -5.999955,-5.999956 c 0.159998,-0.159998 0.319997,-0.319997 0.479996,-0.479996 0.159999,-0.159999 0.319998,-0.319998 0.479996,-0.479996 l 5.999956,5.999955 c -0.159999,0.159999 -0.319998,0.319998 -0.479996,0.479997 z m -7.679944,-3.359976 c 0.159999,-0.479996 0.319998,-0.879993 0.639996,-1.27999 l 5.759957,5.759957 c -0.399997,0.239999 -0.879993,0.479997 -1.27999,0.639996 z m 9.439931,0.799995 c -0.159999,0.399997 -0.399997,0.799994 -0.639996,1.199991 l -5.759957,-5.759958 c 0.399997,-0.239998 0.799994,-0.399997 1.27999,-0.559996 z"
     id="path4"
     transform="translate(-3.0399775,-2.8799787)" />
</svg>
