<svg width="53" height="53" viewBox="0 0 53 53" fill="none" xmlns="http://www.w3.org/2000/svg">
<g clip-path="url(#clip0_29_15)">
<path d="M3.53541 1.03125H49.9918C51.4091 1.03125 52.5114 2.1336 52.5114 3.55092V50.0073C52.5114 51.4246 51.4091 52.5269 49.9918 52.5269H3.53541C2.1181 52.5269 1.01575 51.4246 1.01575 50.0073V3.55092C1.01575 2.1336 2.1181 1.03125 3.53541 1.03125Z" fill="#FAFAFA"/>
<path d="M49.9918 1.50347C51.0941 1.50347 52.039 2.44834 52.039 3.5507V50.007C52.039 51.1094 51.0941 52.0543 49.9918 52.0543H3.53541C2.43305 52.0543 1.48818 51.1094 1.48818 50.007V3.5507C1.48818 2.44834 2.43305 1.50347 3.53541 1.50347H49.9918ZM49.9918 0.558594H3.53541C1.80314 0.558594 0.543304 1.81843 0.543304 3.5507V50.007C0.543304 51.7393 1.80314 52.9992 3.53541 52.9992H49.9918C51.724 52.9992 52.9839 51.7393 52.9839 50.007V3.5507C52.9839 1.81843 51.724 0.558594 49.9918 0.558594Z" fill="#005073"/>
<path d="M39.1257 37.0935L33.9289 31.7392C34.5588 30.6369 35.0313 29.377 35.3462 28.1172H41.9603V31.1093L48.7319 26.6999L41.9603 22.133V25.2826H35.3462C35.0313 24.0228 34.5588 22.7629 33.7714 21.6606L39.1257 16.3063L41.3304 18.511L42.9052 10.637L35.0313 12.2118L37.236 14.4165L31.8817 19.7708C30.7793 18.9834 29.5195 18.511 28.2597 18.3535V11.5819H31.2518L26.8423 4.96777L22.2754 11.5819H25.2675V18.196C24.0077 18.511 22.7479 18.9834 21.803 19.6133L16.4487 14.259L18.6534 12.2118L10.7795 10.637L12.3543 18.3535L14.559 16.3063L19.7558 21.6606C18.9684 22.7629 18.4959 24.0228 18.3385 25.2826H11.5669V22.133L4.79526 26.6999L11.5669 31.2668V28.1172H18.3385C18.4959 29.377 18.9684 30.6369 19.7558 31.7392L14.4015 37.0935L12.3543 34.8888L10.7795 42.7628L18.6534 41.188L16.4487 39.1408L21.803 33.7865C22.7479 34.5739 24.0077 35.0463 25.2675 35.3613V41.9754H22.2754L26.6849 48.747L31.0943 41.9754H28.2597V35.3613C29.5195 35.0463 30.7793 34.5739 31.8817 33.7865L37.0785 39.1408L35.0313 41.188L42.9052 42.9202L41.1729 35.0463L39.1257 37.0935Z" fill="#005073"/>
</g>
<defs>
<clipPath id="clip0_29_15">
<rect width="53" height="53" fill="white"/>
</clipPath>
</defs>
</svg>
