<?xml version="1.0" encoding="UTF-8" standalone="no"?>
<svg
   version="1.0"
   width="100"
   height="100"
   id="svg13"
   xmlns="http://www.w3.org/2000/svg"
   xmlns:svg="http://www.w3.org/2000/svg" viewBox="-0.00 -0.00 28.63 28.63">
  <defs
     id="defs1">
    <pattern
       id="EMFhbasepattern"
       patternUnits="userSpaceOnUse"
       width="6"
       height="6"
       x="0"
       y="0" />
  </defs>
  <path
     style="fill:#fafafa;fill-opacity:1;fill-rule:nonzero;stroke:none"
     d="M 14.391771,28.31979 C 1.9118637,28.31979 -4.3280901,13.279902 4.4718447,4.4799668 13.271779,-4.3999674 28.391667,1.8399864 28.391667,14.319894 c -0.08,7.759942 -6.319953,13.999896 -13.999896,13.999896 z"
     id="path1" />
  <path
     style="fill:#005073;fill-opacity:1;fill-rule:nonzero;stroke:none"
     d="m 14.391771,0.47999644 c 12.239909,0 18.399864,14.87988956 9.759928,23.59982556 -8.719936,8.639936 -23.59982528,2.479981 -23.59982528,-9.759928 0,-7.6799432 6.15995438,-13.83989756 13.83989728,-13.83989756 z M 14.391771,0 C 1.591866,0 -4.8080866,15.359886 4.2318465,24.399819 13.271779,33.439752 28.631665,27.0398 28.631665,14.319894 28.631665,6.3999526 22.231713,0 14.391771,0 Z"
     id="path2" />
  <path
     style="fill:#005073;fill-opacity:1;fill-rule:nonzero;stroke:none"
     d="m 16.471756,5.5999585 c 0,1.1999911 -0.959993,2.159984 -2.159984,2.159984 -1.119992,0 -2.079985,-0.9599929 -2.079985,-2.159984 0,-1.1999911 0.959993,-2.159984 2.079985,-2.159984 1.199991,0 2.159984,0.9599929 2.159984,2.159984 z"
     id="path3" />
  <path
     style="fill:#005073;fill-opacity:1;fill-rule:nonzero;stroke:none"
     d="m 25.35169,11.839912 c 0,1.119992 -0.959993,2.079985 -2.159984,2.079985 -1.199991,0 -2.159984,-0.959993 -2.159984,-2.079985 0,-1.199991 0.959993,-2.1599837 2.159984,-2.1599837 1.199991,0 2.159984,0.9599927 2.159984,2.1599837 z"
     id="path4" />
  <path
     style="fill:#005073;fill-opacity:1;fill-rule:nonzero;stroke:none"
     d="m 21.751716,21.919838 c 0,1.199991 -0.959992,2.159984 -2.079984,2.159984 -1.199991,0 -2.159984,-0.959993 -2.159984,-2.159984 0,-1.119992 0.959993,-2.079985 2.159984,-2.079985 1.119992,0 2.079984,0.959993 2.079984,2.079985 z"
     id="path5" />
  <path
     style="fill:#005073;fill-opacity:1;fill-rule:nonzero;stroke:none"
     d="m 11.031796,22.079836 c 0,1.119992 -0.959993,2.079985 -2.1599839,2.079985 -1.1999911,0 -2.159984,-0.959993 -2.159984,-2.079985 0,-1.199991 0.9599929,-2.159984 2.159984,-2.159984 1.1999909,0 2.1599839,0.959993 2.1599839,2.159984 z"
     id="path6" />
  <path
     style="fill:#005073;fill-opacity:1;fill-rule:nonzero;stroke:none"
     d="m 7.7518204,11.839912 c 0,1.119992 -0.9599929,2.079985 -2.159984,2.079985 -1.1199917,0 -2.0799846,-0.959993 -2.0799846,-2.079985 0,-1.199991 0.9599929,-2.1599837 2.0799846,-2.1599837 1.1999911,0 2.159984,0.9599927 2.159984,2.1599837 z"
     id="path7" />
  <path
     style="fill:#005073;fill-opacity:1;fill-rule:nonzero;stroke:none"
     d="m 18.231742,14.639892 c 0,2.159984 -1.759986,3.99997 -3.99997,3.99997 -2.159984,0 -3.919971,-1.839986 -3.919971,-3.99997 0,-2.159984 1.759987,-3.919971 3.919971,-3.919971 2.239984,0 3.99997,1.759987 3.99997,3.919971 z"
     id="path8" />
  <path
     style="fill:#005073;fill-opacity:1;fill-rule:nonzero;stroke:none"
     d="m 13.831775,7.5999437 h 0.959993 v 3.2799753 h -0.959993 z"
     id="path9" />
  <path
     style="fill:#005073;fill-opacity:1;fill-rule:nonzero;stroke:none"
     d="m 21.111721,11.919912 0.319998,0.879993 -3.359975,1.039992 -0.319998,-0.799994 z"
     id="path10" />
  <path
     style="fill:#005073;fill-opacity:1;fill-rule:nonzero;stroke:none"
     d="m 19.031737,20.079851 -0.719995,0.559996 -2.239984,-2.71998 0.719995,-0.559996 z"
     id="path11" />
  <path
     style="fill:#005073;fill-opacity:1;fill-rule:nonzero;stroke:none"
     d="m 11.75179,17.279872 0.719995,0.559996 -2.159984,2.71998 -0.7199942,-0.559996 z"
     id="path12" />
  <path
     style="fill:#005073;fill-opacity:1;fill-rule:nonzero;stroke:none"
     d="M 10.791798,13.039903 10.551799,13.839897 7.1918246,12.799905 7.5118222,11.919912 Z"
     id="path13" />
</svg>
