<?xml version="1.0" encoding="UTF-8" standalone="no"?>
<svg
   version="1.0"
   width="100"
   height="100"
   id="svg11"
   xmlns="http://www.w3.org/2000/svg"
   xmlns:svg="http://www.w3.org/2000/svg" viewBox="-6.24 -0.00 39.20 39.20">
  <defs
     id="defs1">
    <pattern
       id="EMFhbasepattern"
       patternUnits="userSpaceOnUse"
       width="6"
       height="6"
       x="0"
       y="0" />
  </defs>
  <path
     style="fill:#fafafa;fill-opacity:1;fill-rule:nonzero;stroke:none"
     d="M 1.5199887,0.23999822 H 25.119814 c 0.719995,0 1.27999,0.55999585 1.27999,1.27999048 V 25.119814 c 0,0.719995 -0.559995,1.27999 -1.27999,1.27999 H 1.5199887 c -0.71999463,0 -1.27999048,-0.559995 -1.27999048,-1.27999 V 1.5199887 c 0,-0.71999463 0.55999585,-1.27999048 1.27999048,-1.27999048 z"
     id="path1" />
  <path
     style="fill:#005073;fill-opacity:1;fill-rule:nonzero;stroke:none"
     d="m 25.119814,0.47999644 c 0.559996,0 1.039992,0.47999645 1.039992,1.03999226 V 25.119814 c 0,0.559996 -0.479996,1.039992 -1.039992,1.039992 H 1.5199887 c -0.55999581,0 -1.03999226,-0.479996 -1.03999226,-1.039992 V 1.5199887 c 0,-0.55999581 0.47999645,-1.03999226 1.03999226,-1.03999226 z M 25.119814,0 H 1.5199887 C 0.63999526,0 0,0.63999526 0,1.5199887 V 25.119814 c 0,0.879993 0.63999526,1.519989 1.5199887,1.519989 H 25.119814 c 0.879993,0 1.519989,-0.639996 1.519989,-1.519989 V 1.5199887 C 26.639803,0.63999526 25.999807,0 25.119814,0 Z"
     id="path2" />
  <path
     style="fill:#005073;fill-opacity:1;fill-rule:nonzero;stroke:none"
     d="M 10.079925,12.719906 H 5.4399597 v -1.199991 l -1.759987,1.759987 1.759987,1.759987 v -1.199992 h 4.6399653 z"
     id="path3" />
  <path
     style="fill:#005073;fill-opacity:1;fill-rule:nonzero;stroke:none"
     d="m 12.719906,16.479878 v 4.639966 h -1.199991 l 1.839986,1.759987 1.759987,-1.759987 h -1.199991 v -4.639966 z"
     id="path4" />
  <path
     style="fill:#005073;fill-opacity:1;fill-rule:nonzero;stroke:none"
     d="M 12.719906,10.159925 V 5.5199591 h -1.199991 l 1.839986,-1.759987 1.759987,1.759987 h -1.199991 v 4.6399659 z"
     id="path5" />
  <path
     style="fill:#005073;fill-opacity:1;fill-rule:nonzero;stroke:none"
     d="m 16.559877,13.839897 h 4.639966 v 1.199992 l 1.839986,-1.759987 -1.839986,-1.759987 v 1.199991 h -4.639966 z"
     id="path6" />
  <path
     style="fill:#005073;fill-opacity:1;fill-rule:nonzero;stroke:none"
     d="m 6.3999526,21.439841 c -0.3199976,0.08 -0.6399953,-0.08 -0.8799935,-0.239998 C 3.9999704,19.679854 7.9999407,14.87989 9.4399301,13.279902 7.8399419,11.519915 4.319968,7.1199473 5.6799579,5.6799579 5.9199561,5.4399597 6.2399538,5.2799609 6.5599514,5.3599603 c 1.3599899,0 3.8399716,1.5199887 6.7999496,4.0799698 2.879979,-2.6399805 5.43996,-4.1599692 6.71995,-4.1599692 0.319998,0 0.639996,0.079999 0.879994,0.3199976 1.519988,1.3599899 -2.159984,5.8399565 -3.759972,7.6799435 1.679987,1.839986 5.439959,6.319953 3.99997,7.839942 -0.239998,0.239998 -0.559996,0.399997 -0.879994,0.319997 -1.599988,0 -4.559966,-2.159984 -7.039947,-4.239968 -2.239984,2.159984 -5.2799613,4.239968 -6.8799494,4.239968 z m 3.7599724,-7.359945 c -3.4399748,3.839971 -4.1599694,6.079955 -3.9199712,6.319953 0.079999,0 0.079999,0 0.1599988,0 0.8799935,0 3.1199769,-1.199991 6.1599544,-3.99997 l -1.039992,-0.959993 c -0.479997,-0.399997 -0.959993,-0.879994 -1.35999,-1.35999 z m 3.919971,2.399982 c 3.119977,2.71998 5.35996,3.919971 6.239953,3.919971 0.08,0 0.08,0 0.159999,0 0.239999,-0.239998 -0.559996,-2.559981 -3.919971,-6.319953 -0.399997,0.399997 -0.799994,0.879993 -1.27999,1.27999 -0.399997,0.399997 -0.799994,0.799994 -1.199991,1.119992 z m -3.199977,-3.199976 c 0.399997,0.479996 0.879994,0.959993 1.35999,1.439989 l 1.119992,1.039992 c 0.399997,-0.319997 0.799994,-0.719994 1.199991,-1.119991 0.399997,-0.479997 0.879994,-0.879994 1.279991,-1.35999 -0.399997,-0.399997 -0.799994,-0.799994 -1.199991,-1.199991 -0.399997,-0.399998 -0.879994,-0.879994 -1.279991,-1.279991 -0.479996,0.479996 -0.959993,0.879993 -1.439989,1.35999 -0.479997,0.479996 -0.719995,0.719995 -1.039993,1.119992 z M 6.5599514,6.3999526 H 6.3999526 c -0.2399982,0.2399982 0.4799964,2.3999822 3.7599724,6.0799554 0.319997,-0.319998 0.719994,-0.719995 1.039992,-1.119992 0.399997,-0.319998 0.879994,-0.879994 1.35999,-1.279991 C 9.5999289,7.5199443 7.4399449,6.3999526 6.5599514,6.3999526 Z m 7.5199446,3.7599724 c 0.479996,0.319997 0.879993,0.799994 1.27999,1.199991 0.479997,0.399997 0.799994,0.799994 1.119992,1.119992 3.279976,-3.6799732 3.99997,-5.8399572 3.759972,-6.1599548 0,0 -0.08,0 -0.159999,0 -0.799994,0 -3.039977,1.1999911 -5.999955,3.8399718 z"
     id="path7" />
  <path
     style="fill:#005073;fill-opacity:1;fill-rule:nonzero;stroke:none"
     d="m 15.279887,15.999881 c 2.479981,-1.759986 1.599988,-5.679957 -1.35999,-6.1599539 -3.039978,-0.5599958 -5.1999616,2.7999789 -3.439975,5.3599599 1.119992,1.519989 3.199977,1.919986 4.799965,0.799994 z"
     id="path8" />
  <path
     style="fill:#6696ab;fill-opacity:1;fill-rule:nonzero;stroke:none"
     d="m 13.279902,16.639877 v 0 c -3.3599755,0 -4.7999648,-4.319968 -1.999986,-6.239954 0.559996,-0.4799965 1.279991,-0.6399953 1.999986,-0.6399953 4.559966,0 4.559966,6.8799493 0,6.8799493 z"
     id="path9" />
  <path
     style="fill:#fafafa;fill-opacity:1;fill-rule:nonzero;stroke:none"
     d="M 1.5199887,27.439797 H 25.199813 c 0.639996,0 1.199991,0.559996 1.199991,1.27999 v 8.959934 c 0,0.719995 -0.559995,1.27999 -1.199991,1.27999 H 1.5199887 c -0.71999463,0 -1.19999107,-0.559995 -1.19999107,-1.27999 v -8.959934 c 0,-0.719994 0.47999644,-1.27999 1.19999107,-1.27999 z"
     id="path10" />
  <path
     style="fill:#005073;fill-opacity:1;fill-rule:nonzero;stroke:none"
     d="m 25.199813,27.679795 c 0.559996,0 0.959993,0.479996 0.959993,1.039992 v 8.959934 c 0,0.559996 -0.399997,1.039992 -0.959993,1.039992 H 1.5199887 c -0.55999581,0 -0.95999285,-0.479996 -0.95999285,-1.039992 v -8.959934 c 0,-0.559996 0.39999704,-1.039992 0.95999285,-1.039992 H 25.199813 m 0,-0.479996 H 1.5199887 C 0.71999467,27.199799 0,27.839794 0,28.719787 v 8.959934 c 0,0.879993 0.63999526,1.519989 1.5199887,1.519989 H 25.199813 c 0.799994,0 1.519989,-0.639996 1.519989,-1.519989 v -8.959934 c 0,-0.879993 -0.719995,-1.519988 -1.519989,-1.519988 z"
     id="path11" />
</svg>
