<?xml version="1.0" encoding="UTF-8" standalone="no"?>
<svg
   version="1.0"
   width="100"
   height="100"
   id="svg16"
   xmlns="http://www.w3.org/2000/svg"
   xmlns:svg="http://www.w3.org/2000/svg" viewBox="-0.00 -4.44 35.52 35.52">
  <defs
     id="defs1">
    <pattern
       id="EMFhbasepattern"
       patternUnits="userSpaceOnUse"
       width="6"
       height="6"
       x="0"
       y="0" />
  </defs>
  <path
     style="fill:#fafafa;fill-opacity:1;fill-rule:nonzero;stroke:none"
     d="M 1.5199887,0.23999822 H 33.999748 c 0.639995,0 1.199991,0.55999585 1.199991,1.27999048 V 25.119814 c 0,0.719995 -0.559996,1.27999 -1.199991,1.27999 H 1.5199887 c -0.71999463,0 -1.27999048,-0.559995 -1.27999048,-1.27999 V 1.5199887 c 0,-0.71999463 0.55999585,-1.27999048 1.27999048,-1.27999048 z"
     id="path1" />
  <path
     style="fill:#005073;fill-opacity:1;fill-rule:nonzero;stroke:none"
     d="m 33.999748,0.47999644 c 0.559996,0 1.039992,0.47999645 1.039992,1.03999226 V 25.119814 c 0,0.559996 -0.479996,1.039992 -1.039992,1.039992 H 1.5199887 c -0.55999581,0 -1.03999226,-0.479996 -1.03999226,-1.039992 V 1.5199887 c 0,-0.55999581 0.47999645,-1.03999226 1.03999226,-1.03999226 z M 33.999748,0 H 1.5199887 C 0.63999526,0 0,0.63999526 0,1.5199887 V 25.119814 c 0,0.879993 0.63999526,1.519989 1.5199887,1.519989 H 33.999748 c 0.799994,0 1.519989,-0.639996 1.519989,-1.519989 V 1.5199887 C 35.519737,0.63999526 34.799742,0 33.999748,0 Z"
     id="path2" />
  <path
     style="fill:#005073;fill-opacity:1;fill-rule:nonzero;stroke:none"
     d="M 11.599914,8.0799401 V 3.9999704 c 0.08,-0.6399953 0.559996,-1.1199917 1.279991,-1.1199917 h 9.759927 c 0.639996,0 1.199991,0.4799964 1.199991,1.1199917 v 0 4.0799697 z M 12.15991,3.9999704 V 7.5199443 H 23.279828 V 3.9999704 c 0,-0.3199977 -0.319998,-0.5599959 -0.639996,-0.5599959 h -9.759927 c -0.399997,0 -0.719995,0.2399982 -0.719995,0.5599959 z"
     id="path3" />
  <path
     style="fill:#005073;fill-opacity:1;fill-rule:nonzero;stroke:none"
     d="m 11.599914,20.319849 v -2.879978 h 12.239909 v 2.879978 z M 12.15991,19.759854 H 23.279828 V 17.919867 H 12.15991 Z"
     id="path4" />
  <path
     style="fill:#005073;fill-opacity:1;fill-rule:nonzero;stroke:none"
     d="m 12.879905,23.759824 c -0.639996,0 -1.199992,-0.479996 -1.279991,-1.039992 v 0 -1.999985 h 12.239909 v 1.999985 c -0.08,0.559996 -0.559995,1.039992 -1.199991,1.039992 z M 12.15991,22.719832 c 0,0.319997 0.319998,0.559996 0.719995,0.479996 h 9.759927 c 0.319998,0.08 0.639996,-0.159999 0.639996,-0.479996 v 0 -1.43999 H 12.15991 Z"
     id="path5" />
  <path
     style="fill:#005073;fill-opacity:1;fill-rule:nonzero;stroke:none"
     d="m 17.679869,9.9999259 c -1.439989,0.1599991 -1.439989,2.3199831 0,2.3999821 1.759987,0.159999 1.759987,-2.5599809 0,-2.3999821 z m 0,2.0799851 c -0.479996,0 -0.879993,-0.399998 -0.879993,-0.879994 0,-0.399997 0.319997,-0.719995 0.639995,-0.799994 v 0.879993 c 0,0.319998 0.479996,0.319998 0.479996,0 v -0.879993 c 0.959993,0.319998 0.719995,1.679988 -0.239998,1.679988 z"
     id="path6" />
  <path
     style="fill:#005073;fill-opacity:1;fill-rule:nonzero;stroke:none"
     d="m 11.599914,8.639936 h 12.239909 v 8.319938 H 11.599914 M 12.15991,16.399879 H 23.279828 V 9.1199324 H 12.15991 Z"
     id="path7" />
  <path
     style="fill:#ffffff;fill-opacity:1;fill-rule:nonzero;stroke:none"
     d="m 4.9599633,6.879949 6.9599487,0.079999 c 0,-0.799994 0.559996,-1.5199887 1.35999,-1.5199887 H 6.3199532 c -0.7199947,0 -1.3599899,0.5599959 -1.3599899,1.2799905 V 6.959948 Z"
     id="path8" />
  <path
     style="fill:#005073;fill-opacity:1;fill-rule:nonzero;stroke:none"
     d="m 12.079911,7.0399479 h -0.08 -7.0399477 -0.1599989 v 0 c 0,-0.079999 0,-0.1599989 0,-0.2399983 0,-0.799994 0.6399953,-1.4399893 1.5199888,-1.5199887 h 6.9599488 v 0.2399982 c -0.719995,0.079999 -1.199991,0.7199947 -1.199991,1.4399893 z M 5.1199621,6.7199502 11.839912,6.7999496 c 0,-0.4799964 0.239999,-0.9599929 0.639996,-1.2799905 H 6.3199532 C 5.6799579,5.5999585 5.1199621,6.079955 5.1199621,6.7199502 Z"
     id="path9" />
  <path
     style="fill:#ffffff;fill-opacity:1;fill-rule:nonzero;stroke:none"
     d="M 9.039933,14.319894 C 8.239939,14.239895 7.5999437,13.5199 7.6799431,12.799905 V 6.9599484 c 0,-0.799994 -0.5599958,-1.5199887 -1.3599899,-1.5199887 h 6.9599488 c 0.799994,0 1.439989,0.7199947 1.35999,1.5199887 v 5.8399566 c 0,0.719995 0.559995,1.43999 1.359989,1.519989 z"
     id="path10" />
  <path
     style="fill:#005073;fill-opacity:1;fill-rule:nonzero;stroke:none"
     d="M 15.999881,14.399893 H 9.039933 c -0.8799934,0 -1.5999881,-0.799994 -1.5199887,-1.599988 V 6.9599484 c 0,-0.7199946 -0.5599959,-1.3599899 -1.1999911,-1.4399893 V 5.2799609 h 6.9599488 c 0.879993,0 1.519988,0.7999941 1.519988,1.6799875 v 5.8399566 c -0.08,0.639995 0.479997,1.279991 1.199991,1.35999 z M 7.1199473,5.5199591 c 0.399997,0.3199976 0.6399952,0.8799935 0.6399952,1.4399893 v 5.8399566 c 0,0.719995 0.4799965,1.279991 1.2799905,1.35999 h 6.159954 C 14.79989,13.839897 14.559892,13.279902 14.559892,12.799905 V 6.9599484 c 0,-0.7199946 -0.479996,-1.3599899 -1.199991,-1.4399893 z"
     id="path11" />
  <path
     style="fill:#ffffff;fill-opacity:1;fill-rule:nonzero;stroke:none"
     d="m 9.039933,14.319894 c 0.7199947,-0.08 1.35999,-0.799994 1.279991,-1.519989 h 7.039947 c 0,0.719995 -0.559995,1.43999 -1.35999,1.519989 z"
     id="path12" />
  <path
     style="fill:#005073;fill-opacity:1;fill-rule:nonzero;stroke:none"
     d="M 15.999881,14.399893 H 9.039933 v -0.239998 c 0.6399953,-0.08 1.199991,-0.639995 1.199991,-1.35999 v -0.159999 h 7.279946 v 0.159999 c 0,0.879994 -0.639995,1.599988 -1.519989,1.599988 z M 9.8399271,14.159895 h 6.1599539 c 0.639996,-0.08 1.199992,-0.559996 1.199992,-1.27999 h -6.719951 c -0.08,0.479996 -0.319997,0.959992 -0.6399949,1.27999 z"
     id="path13" />
  <path
     style="fill:#005073;fill-opacity:1;fill-rule:nonzero;stroke:none"
     d="M 8.9599336,7.2799461 H 13.759898 V 7.5199443 H 8.9599336 Z"
     id="path14" />
  <path
     style="fill:#005073;fill-opacity:1;fill-rule:nonzero;stroke:none"
     d="M 8.9599336,9.2799313 H 13.759898 V 9.5999289 H 8.9599336 Z"
     id="path15" />
  <path
     style="fill:#005073;fill-opacity:1;fill-rule:nonzero;stroke:none"
     d="m 8.9599336,11.279916 h 4.7999644 v 0.319998 H 8.9599336 Z"
     id="path16" />
</svg>
