<?xml version="1.0" encoding="UTF-8" standalone="no"?>
<svg
   version="1.0"
   width="100"
   height="100"
   id="svg2"
   xmlns="http://www.w3.org/2000/svg"
   xmlns:svg="http://www.w3.org/2000/svg" viewBox="-0.00 -6.44 30.48 30.48">
  <defs
     id="defs1">
    <pattern
       id="EMFhbasepattern"
       patternUnits="userSpaceOnUse"
       width="6"
       height="6"
       x="0"
       y="0" />
  </defs>
  <path
     style="fill:#ffffff;fill-opacity:1;fill-rule:nonzero;stroke:none"
     d="m 30.159777,16.15988 c 0,0.639996 -0.559996,1.119992 -1.199992,1.119992 H 6.879949 c -0.6399952,0 -1.1999911,-0.479996 -1.1999911,-1.119992 V 1.4399893 c 0,-0.63999523 0.5599959,-1.11999167 1.1999911,-1.11999167 h 22.079836 c 0.639996,0 1.199992,0.47999644 1.199992,1.11999167 z"
     id="path1" />
  <path
     style="fill:#005073;fill-opacity:1;fill-rule:nonzero;stroke:none"
     d="M 28.959785,0 H 6.879949 C 5.9999556,0 5.3599603,0.63999526 5.2799609,1.4399893 V 5.8399567 H 3.7599721 L 0,3.3599751 v 9.9999259 l 3.7599721,-2.159984 h 1.5199888 v 4.879964 c 0,0.879993 0.7199947,1.519989 1.5999881,1.519989 h 22.079836 c 0.799995,0 1.519989,-0.639996 1.519989,-1.43999 V 1.4399893 C 30.479774,0.63999526 29.75978,0 28.959785,0 Z m 0.879994,16.15988 c -0.08,0.399997 -0.399997,0.799994 -0.879994,0.719995 H 6.879949 c -0.4799964,0.08 -0.8799934,-0.319998 -0.8799934,-0.719995 V 1.4399893 c 0,-0.399997 0.399997,-0.79999404 0.8799934,-0.71999463 h 22.079836 c 0.479997,-0.0799994 0.799995,0.31999763 0.879994,0.71999463 z"
     id="path2" />
</svg>
