<?xml version="1.0" encoding="UTF-8" standalone="no"?>
<svg
   version="1.0"
   width="100"
   height="100"
   id="svg6"
   xmlns="http://www.w3.org/2000/svg"
   xmlns:svg="http://www.w3.org/2000/svg" viewBox="-0.62 -0.00 32.48 32.48">
  <defs
     id="defs1">
    <pattern
       id="EMFhbasepattern"
       patternUnits="userSpaceOnUse"
       width="6"
       height="6"
       x="0"
       y="0" />
  </defs>
  <path
     style="fill:#ffffff;fill-opacity:1;fill-rule:nonzero;stroke:#005073;stroke-width:1.03999px;stroke-linecap:butt;stroke-linejoin:miter;stroke-miterlimit:10;stroke-dasharray:none;stroke-opacity:1"
     d="m 21.479841,22.399834 c 0,-6.959948 -4.719965,-11.359916 -10.559922,-11.359916 -5.7599572,0 -10.39992283,4.399968 -10.39992283,11.359916 v 2.959978 H 21.559841 Z"
     id="path1" />
  <path
     style="fill:#ffffff;fill-opacity:1;fill-rule:nonzero;stroke:none"
     d="m 11.079918,11.919912 c -5.1199622,0 -7.6799432,-6.1599547 -4.0799699,-9.759928 3.5999739,-3.5999733 9.7599279,-1.0399923 9.7599279,3.9999704 0,3.1999763 -2.559981,5.6799576 -5.679958,5.7599576 z"
     id="path2" />
  <path
     style="fill:#005073;fill-opacity:1;fill-rule:nonzero;stroke:none"
     d="m 11.079918,1.0399923 c 4.559966,0 6.879949,5.5999585 3.599974,8.7999348 -3.279976,3.2799759 -8.879935,0.9599929 -8.879935,-3.6799727 0,-2.8799787 2.3999823,-5.19996151 5.279961,-5.1199621 z M 11.079918,0 C 5.4799594,0 2.6799801,6.6399508 6.5999511,10.559922 10.519922,14.479893 17.159873,11.679913 17.159873,6.1599544 17.159873,2.7999793 14.439893,0 11.079918,0 Z"
     id="path3" />
  <path
     style="fill:#ffffff;fill-opacity:1;fill-rule:nonzero;stroke:none"
     d="m 12.839905,15.919882 h 16.399879 c 1.119991,0 1.999985,0.959993 1.999985,1.999985 v 9.43993 c 0,1.039993 -0.879994,1.999986 -1.999985,1.999986 H 12.839905 c -1.119992,0 -1.999985,-0.959993 -1.999985,-1.999986 v -9.43993 c 0,-1.039992 0.879993,-1.999985 1.999985,-1.999985 z"
     id="path4" />
  <path
     style="fill:#005073;fill-opacity:1;fill-rule:nonzero;stroke:none"
     d="m 13.239902,18.079866 h 15.439886 v 9.119933 H 13.239902 Z"
     id="path5" />
  <path
     style="fill:#005073;fill-opacity:1;fill-rule:nonzero;stroke:none"
     d="M 29.239784,15.999881 H 12.839905 c -1.119992,0 -1.999985,0.879994 -1.999985,1.999986 v 9.35993 c 0,1.119992 0.879993,1.999986 1.999985,1.999986 h 6.479952 v 1.359989 h -2.799979 c -1.199991,0 -1.199991,1.759987 0,1.759987 h 9.119932 c 1.119992,0 1.119992,-1.759987 0,-1.759987 h -2.479981 v -1.359989 h 6.079955 c 1.119991,0 1.999985,-0.959993 1.999985,-1.999986 v -9.35993 c 0,-1.119992 -0.879994,-1.999986 -1.999985,-1.999986 z m 1.039992,11.359916 c 0,0.559996 -0.479996,1.039993 -1.039992,1.039993 H 12.839905 c -0.559996,0 -0.959993,-0.479997 -0.959993,-1.039993 v -9.35993 c 0,-0.559996 0.399997,-0.959993 0.959993,-0.959993 h 16.399879 c 0.559996,0 1.039992,0.399997 1.039992,0.959993 z"
     id="path6" />
</svg>
