<?xml version="1.0" encoding="UTF-8" standalone="no"?>
<svg
   version="1.0"
   width="100"
   height="100"
   id="svg16"
   xmlns="http://www.w3.org/2000/svg"
   xmlns:svg="http://www.w3.org/2000/svg" viewBox="-0.00 -0.00 26.64 26.64">
  <defs
     id="defs1">
    <pattern
       id="EMFhbasepattern"
       patternUnits="userSpaceOnUse"
       width="6"
       height="6"
       x="0"
       y="0" />
  </defs>
  <path
     style="fill:#fafafa;fill-opacity:1;fill-rule:nonzero;stroke:none"
     d="M 1.5199887,0.23999822 H 25.119814 c 0.719995,0 1.27999,0.55999585 1.27999,1.27999048 V 25.119814 c 0,0.719995 -0.559995,1.27999 -1.27999,1.27999 H 1.5199887 c -0.71999463,0 -1.27999048,-0.559995 -1.27999048,-1.27999 V 1.5199887 c 0,-0.71999463 0.55999585,-1.27999048 1.27999048,-1.27999048 z"
     id="path1" />
  <path
     style="fill:#005073;fill-opacity:1;fill-rule:nonzero;stroke:none"
     d="m 25.119814,0.47999644 c 0.559996,0 1.039992,0.47999645 1.039992,1.03999226 V 25.119814 c 0,0.559996 -0.479996,1.039992 -1.039992,1.039992 H 1.5199887 c -0.55999581,0 -1.03999226,-0.479996 -1.03999226,-1.039992 V 1.5199887 c 0,-0.55999581 0.47999645,-1.03999226 1.03999226,-1.03999226 z M 25.119814,0 H 1.5199887 C 0.63999526,0 0,0.63999526 0,1.5199887 V 25.119814 c 0,0.879993 0.63999526,1.519989 1.5199887,1.519989 H 25.119814 c 0.879993,0 1.519989,-0.639996 1.519989,-1.519989 V 1.5199887 C 26.639803,0.63999526 25.999807,0 25.119814,0 Z"
     id="path2" />
  <path
     style="fill:#005073;fill-opacity:1;fill-rule:nonzero;stroke:none"
     d="M 24.719817,4.5599662 19.919852,6.879949 V 5.3599603 h -5.27996 V 3.919971 h 5.27996 V 2.3199828 Z"
     id="path3" />
  <path
     style="fill:#005073;fill-opacity:1;fill-rule:nonzero;stroke:none"
     d="m 22.079836,11.679913 -4.799964,2.319983 v -1.519988 h -5.279961 v -1.519989 h 5.279961 V 9.4399301 Z"
     id="path4" />
  <path
     style="fill:#005073;fill-opacity:1;fill-rule:nonzero;stroke:none"
     d="m 1.9199858,15.279887 4.7999644,-2.239984 v 1.519989 h 5.2799608 v 1.439989 H 6.7199502 v 1.519989 z"
     id="path5" />
  <path
     style="fill:#005073;fill-opacity:1;fill-rule:nonzero;stroke:none"
     d="M 4.5599662,8.1599396 9.4399301,5.9199561 V 7.4399449 H 14.719891 V 8.8799342 H 9.4399301 v 1.5199888 z"
     id="path6" />
  <path
     style="fill:#005073;fill-opacity:1;fill-rule:nonzero;stroke:none"
     d="m 23.759824,20.799846 v 0.479996 l 0.639995,-0.719994 -0.639995,-0.719995 v 0.479996 h -1.35999 c 0.639995,-0.799994 1.759987,-2.239983 1.279991,-2.719979 -0.159999,-0.08 -0.239999,-0.159999 -0.399997,-0.159999 -0.879994,0.319997 -1.679988,0.799994 -2.399983,1.439989 v -1.27999 h 0.479997 l -0.639995,-0.719995 -0.719995,0.719995 h 0.479996 v 1.27999 c -0.639995,-0.639995 -1.519988,-1.119992 -2.399982,-1.35999 -0.159999,0 -0.239998,0 -0.399997,0.08 -0.399997,0.559995 0.639995,1.919985 1.279991,2.719979 h -1.35999 v -0.399997 l -0.639996,0.639996 0.639996,0.719994 v -0.479996 h 1.439989 c -0.639995,0.719995 -1.919986,2.319983 -1.35999,2.799979 0.08,0.08 0.159999,0.159999 0.319998,0.159999 0.959993,-0.239998 1.759987,-0.799994 2.479981,-1.439989 v 1.27999 h -0.479996 l 0.719995,0.719995 0.639995,-0.719995 h -0.479997 v -1.27999 c 0.719995,0.639995 1.599988,1.199991 2.479982,1.439989 0.159999,0 0.319998,-0.08 0.399997,-0.159999 0.479996,-0.479996 -0.719995,-1.999985 -1.35999,-2.799979 z m -0.479996,-2.879979 h 0.08 c 0.08,0.08 -0.159999,0.879994 -1.439989,2.319983 l -0.479997,-0.399997 -0.479996,-0.479996 c 0.639995,-0.719995 1.439989,-1.199992 2.319982,-1.43999 z m -1.599989,2.639981 c -0.159998,0.159999 -0.319997,0.399997 -0.479996,0.559996 l -0.479996,0.399997 -0.479997,-0.399997 -0.479996,-0.559996 0.399997,-0.399997 0.559996,-0.559996 c 0.159998,0.159999 0.319997,0.319997 0.479996,0.479996 0.159999,0.239998 0.319998,0.319998 0.479996,0.479997 z m -3.679972,-2.639981 h 0.08 c 0.879994,0.239998 1.679988,0.799994 2.319983,1.43999 -0.159999,0.159998 -0.319998,0.319997 -0.559996,0.479996 -0.159999,0.239998 -0.239998,0.319998 -0.399997,0.479996 -1.279991,-1.439989 -1.519989,-2.319982 -1.43999,-2.399982 z m 0,5.43996 h -0.08 c -0.08,-0.08 0.239998,-1.039992 1.519989,-2.479982 0.159999,0.159999 0.319998,0.399997 0.559996,0.559996 l 0.399997,0.399997 c -0.639995,0.719995 -1.519989,1.199991 -2.399982,1.519989 z m 5.439959,0 h -0.08 c -0.879994,-0.319998 -1.679988,-0.799994 -2.319983,-1.519989 l 0.399997,-0.479996 c 0.159999,-0.159999 0.319998,-0.319998 0.479997,-0.479997 1.35999,1.43999 1.599988,2.319983 1.519989,2.479982 z"
     id="path7" />
  <path
     style="fill:#6696ab;fill-opacity:1;fill-rule:nonzero;stroke:none"
     d="m 21.439841,21.59984 c 0.959993,-0.639995 0.639995,-2.159984 -0.559996,-2.319983 -1.119991,-0.239998 -1.999985,1.039992 -1.27999,1.999985 0.399997,0.639996 1.199991,0.799994 1.839986,0.319998 z"
     id="path8" />
  <path
     style="fill:#005073;fill-opacity:1;fill-rule:nonzero;stroke:none"
     d="m 15.679884,21.59984 -4.07997,-2.71998 v 1.839987 H 5.5199591 v 1.679987 h 6.0799549 v 1.839986 z"
     id="path9" />
  <path
     style="fill:#005073;fill-opacity:1;fill-rule:nonzero;stroke:none"
     d="m 7.5199443,19.199858 h 3.8399717 v 0.479996 H 7.5199443 Z"
     id="path10" />
  <path
     style="fill:#005073;fill-opacity:1;fill-rule:nonzero;stroke:none"
     d="m 8.7199354,19.839853 h 2.6399806 v 0.559996 H 8.7199354 Z"
     id="path11" />
  <path
     style="fill:#005073;fill-opacity:1;fill-rule:nonzero;stroke:none"
     d="m 7.5199443,23.439826 h 3.8399717 v 0.479997 H 7.5199443 Z"
     id="path12" />
  <path
     style="fill:#005073;fill-opacity:1;fill-rule:nonzero;stroke:none"
     d="m 8.7199354,22.799831 h 2.6399806 v 0.479997 H 8.7199354 Z"
     id="path13" />
  <path
     style="fill:#005073;fill-opacity:1;fill-rule:nonzero;stroke:none"
     d="m 1.9999852,21.279842 h 2.8799787 v 0.559996 H 1.9999852 Z"
     id="path14" />
  <path
     style="fill:#005073;fill-opacity:1;fill-rule:nonzero;stroke:none"
     d="m 3.4399745,22.079836 h 1.4399894 v 0.479997 H 3.4399745 Z"
     id="path15" />
  <path
     style="fill:#005073;fill-opacity:1;fill-rule:nonzero;stroke:none"
     d="m 3.4399745,20.559848 h 1.4399894 v 0.479996 H 3.4399745 Z"
     id="path16" />
</svg>
