<?xml version="1.0" encoding="UTF-8" standalone="no"?>
<svg
   version="1.0"
   width="100"
   height="100"
   id="svg12"
   xmlns="http://www.w3.org/2000/svg"
   xmlns:svg="http://www.w3.org/2000/svg" viewBox="-0.00 -2.64 35.60 35.60">
  <defs
     id="defs1">
    <pattern
       id="EMFhbasepattern"
       patternUnits="userSpaceOnUse"
       width="6"
       height="6"
       x="0"
       y="0" />
  </defs>
  <path
     style="fill:#005073;fill-opacity:1;fill-rule:nonzero;stroke:none"
     d="m 25.199813,15.839883 h 5.679958 L 27.839794,5.5999585 h -2.639981 z"
     id="path1" />
  <path
     style="fill:#005073;fill-opacity:1;fill-rule:nonzero;stroke:none"
     d="M 10.399923,5.5999585 H 7.8399419 L 4.719965,15.839883 h 5.679958 z"
     id="path2" />
  <path
     style="fill:#005073;fill-opacity:1;fill-rule:nonzero;stroke:none"
     d="m 14.479893,0 v 0 l -4.319968,4.1599692 v 0 13.5198998 H 25.519811 V 0 Z M 25.039815,17.199873 H 10.639921 V 4.2399686 h 3.839972 V 0.47999644 h 10.559922 z"
     id="path3" />
  <path
     style="fill:#999999;fill-opacity:1;fill-rule:nonzero;stroke:none"
     d="m 13.199902,15.519885 h 8.959934 v 0.319998 h -8.959934 z"
     id="path4" />
  <path
     style="fill:#005073;fill-opacity:1;fill-rule:nonzero;stroke:none"
     d="m 13.199902,5.3599603 h 8.959934 V 6.079955 h -8.959934 z"
     id="path5" />
  <path
     style="fill:#ffffff;fill-opacity:1;fill-rule:nonzero;stroke:none"
     d="M 3.2799757,14.239895 H 32.39976 c 1.599988,-0.08 2.879979,1.27999 2.879979,2.879978 V 27.0398 c 0,1.599988 -1.279991,2.959978 -2.879979,2.959978 H 3.2799757 c -1.6799876,0 -2.95997807,-1.35999 -2.95997807,-2.959978 v -9.919927 c 0,-1.599988 1.35998997,-2.879978 2.95997807,-2.879978 z"
     id="path6" />
  <path
     style="fill:#005073;fill-opacity:1;fill-rule:nonzero;stroke:none"
     d="M 32.39976,30.319775 H 3.2799757 C 1.4399893,30.319775 0,28.879786 0,27.0398 V 17.119873 C 0,15.359886 1.4399893,13.839897 3.2799757,13.839897 H 32.39976 c 1.759987,0 3.199976,1.519989 3.199976,3.279976 V 27.0398 c 0,1.839986 -1.439989,3.279975 -3.199976,3.279975 z M 3.2799757,14.559892 c -1.4399893,0 -2.63998044,1.119992 -2.63998044,2.559981 V 27.0398 c 0,1.439989 1.19999114,2.63998 2.63998044,2.63998 H 32.39976 c 1.439989,0 2.559981,-1.199991 2.63998,-2.63998 v -9.919927 c -0.08,-1.439989 -1.199991,-2.559981 -2.63998,-2.559981 z"
     id="path7" />
  <path
     style="fill:#005073;fill-opacity:1;fill-rule:nonzero;stroke:none"
     d="m 32.079762,18.559863 c 0,1.27999 -1.599988,1.919985 -2.559981,1.039992 -0.879993,-0.959993 -0.239998,-2.559981 1.039993,-2.559981 0.879993,0 1.519988,0.639995 1.519988,1.519989 z"
     id="path8" />
  <path
     style="fill:#2d4754;fill-opacity:1;fill-rule:nonzero;stroke:none"
     d="M 2.2399834,22.079836 H 33.599751 Z"
     id="path9" />
  <path
     style="fill:#005073;fill-opacity:1;fill-rule:nonzero;stroke:none"
     d="M 2.2399834,21.759839 H 33.599751 v 0.639995 H 2.2399834 Z"
     id="path10" />
  <path
     style="fill:#005073;fill-opacity:1;fill-rule:nonzero;stroke:none"
     d="m 13.199902,8.0799401 h 8.959934 v 0.7199947 h -8.959934 z"
     id="path11" />
  <path
     style="fill:#005073;fill-opacity:1;fill-rule:nonzero;stroke:none"
     d="m 13.199902,10.719921 h 8.959934 v 0.719994 h -8.959934 z"
     id="path12" />
</svg>
