<?xml version="1.0" encoding="UTF-8" standalone="no"?>
<svg
   version="1.0"
   width="100"
   height="100"
   id="svg11"
   xmlns="http://www.w3.org/2000/svg"
   xmlns:svg="http://www.w3.org/2000/svg" viewBox="-0.00 -0.00 28.63 28.63">
  <defs
     id="defs1">
    <pattern
       id="EMFhbasepattern"
       patternUnits="userSpaceOnUse"
       width="6"
       height="6"
       x="0"
       y="0" />
  </defs>
  <path
     style="fill:#fafafa;fill-opacity:1;fill-rule:nonzero;stroke:none"
     d="M 14.391771,28.31979 C 1.9118637,28.31979 -4.3280901,13.279902 4.4718447,4.4799668 13.271779,-4.3999674 28.391667,1.8399864 28.391667,14.319894 c -0.08,7.759942 -6.319953,13.999896 -13.999896,13.999896 z"
     id="path1" />
  <path
     style="fill:#005073;fill-opacity:1;fill-rule:nonzero;stroke:none"
     d="m 14.391771,0.47999644 c 12.239909,0 18.399864,14.87988956 9.759928,23.59982556 -8.719936,8.639936 -23.59982528,2.479981 -23.59982528,-9.759928 0,-7.6799432 6.15995438,-13.83989756 13.83989728,-13.83989756 z M 14.391771,0 C 1.591866,0 -4.8080866,15.359886 4.2318465,24.399819 13.271779,33.439752 28.631665,27.0398 28.631665,14.319894 28.631665,6.3999526 22.231713,0 14.391771,0 Z"
     id="path2" />
  <path
     style="fill:#005073;fill-opacity:1;fill-rule:nonzero;stroke:none"
     d="M 19.671732,11.039918 H 9.3518086 c -0.3999971,0 -0.7199947,0.239998 -0.7199947,0.639995 v 1.199992 0 0.239998 c 0.079999,0.319997 0.3199976,0.639995 0.7199947,0.559996 h 1.4399894 c 0.319997,0.08 0.639995,-0.239999 0.639995,-0.559996 v -0.159999 h 5.999955 v 0.159999 c 0.08,0.319997 0.319998,0.639995 0.719995,0.559996 h 1.439989 c 0.399997,0.08 0.639996,-0.239999 0.719995,-0.559996 v -0.159999 0 -1.35999 c -0.08,-0.319998 -0.319998,-0.559996 -0.639995,-0.559996 z"
     id="path3" />
  <path
     style="fill:none;stroke:#005073;stroke-width:0.239998px;stroke-linecap:butt;stroke-linejoin:miter;stroke-miterlimit:4;stroke-dasharray:none;stroke-opacity:1"
     d="M 19.671732,11.039918 H 9.3518086 c -0.3999971,0 -0.7199947,0.239998 -0.7199947,0.639995 v 1.199992 0 0.239998 c 0.079999,0.319997 0.3199976,0.639995 0.7199947,0.559996 h 1.4399894 c 0.319997,0.08 0.639995,-0.239999 0.639995,-0.559996 v -0.159999 h 5.999955 v 0.159999 c 0.08,0.319997 0.319998,0.639995 0.719995,0.559996 h 1.439989 c 0.399997,0.08 0.639996,-0.239999 0.719995,-0.559996 v -0.159999 0 -1.35999 c -0.08,-0.319998 -0.319998,-0.559996 -0.639995,-0.559996 z"
     id="path4" />
  <path
     style="fill:#005073;fill-opacity:1;fill-rule:nonzero;stroke:none"
     d="m 12.231787,13.679899 h 4.479967 c 0.239998,0 0.399997,0.159998 0.399997,0.399997 v 5.199961 c 0,0.159999 -0.159999,0.399997 -0.399997,0.399997 h -4.479967 c -0.239998,0 -0.399997,-0.239998 -0.399997,-0.399997 v -5.199961 c 0,-0.239999 0.159999,-0.399997 0.399997,-0.399997 z"
     id="path5" />
  <path
     style="fill:none;stroke:#005073;stroke-width:0.239998px;stroke-linecap:butt;stroke-linejoin:miter;stroke-miterlimit:4;stroke-dasharray:none;stroke-opacity:1"
     d="m 12.231787,13.679899 h 4.479967 c 0.239998,0 0.399997,0.159998 0.399997,0.399997 v 5.199961 c 0,0.159999 -0.159999,0.399997 -0.399997,0.399997 h -4.479967 c -0.239998,0 -0.399997,-0.239998 -0.399997,-0.399997 v -5.199961 c 0,-0.239999 0.159999,-0.399997 0.399997,-0.399997 z"
     id="path6" />
  <path
     style="fill:#005073;fill-opacity:1;fill-rule:nonzero;stroke:none"
     d="m 6.3918305,23.119829 0.7999941,-4.239969 1.1999911,1.119992 1.5999881,-1.599988 1.1199912,1.119991 -1.5999876,1.599989 1.1199916,1.199991 z"
     id="path7" />
  <path
     style="fill:#005073;fill-opacity:1;fill-rule:nonzero;stroke:none"
     d="m 17.671747,18.399864 0.879993,4.319968 1.119992,-1.119992 1.599988,1.519989 1.119992,-1.039993 -1.599988,-1.599988 1.119991,-1.199991 z"
     id="path8" />
  <path
     style="fill:#005073;fill-opacity:1;fill-rule:nonzero;stroke:none"
     d="M 11.351793,10.159925 10.551799,5.8399567 9.3518086,7.0399479 7.7518204,5.4399597 6.6318287,6.5599514 8.2318169,8.0799401 7.1118252,9.2799313 Z"
     id="path9" />
  <path
     style="fill:#005073;fill-opacity:1;fill-rule:nonzero;stroke:none"
     d="M 21.671717,5.5999585 20.791724,9.8399271 19.591732,8.7199354 18.071744,10.319924 16.951752,9.1999319 18.55174,7.5999437 17.351749,6.3999526 Z"
     id="path10" />
  <path
     style="fill:#ffffff;fill-opacity:1;fill-rule:nonzero;stroke:none"
     d="m 12.471785,14.479893 h 4.07997 v 4.319968 h -4.07997 z"
     id="path11" />
</svg>
