<?xml version="1.0" encoding="UTF-8" standalone="no"?>
<svg
   version="1.0"
   width="100"
   height="100"
   id="svg3"
   xmlns="http://www.w3.org/2000/svg"
   xmlns:svg="http://www.w3.org/2000/svg" viewBox="-0.00 -1.96 20.40 20.40">
  <defs
     id="defs1">
    <pattern
       id="EMFhbasepattern"
       patternUnits="userSpaceOnUse"
       width="6"
       height="6"
       x="0"
       y="0" />
  </defs>
  <path
     style="fill:#ffffff;fill-opacity:1;fill-rule:nonzero;stroke:none"
     d="M 1.9999852,0 H 18.399864 c 1.119991,0 1.999985,0.87999348 1.999985,1.9999852 v 9.3599308 c 0,1.119992 -0.879994,1.999985 -1.999985,1.999985 H 1.9999852 C 0.87999348,13.359901 0,12.479908 0,11.359916 V 1.9999852 C 0,0.87999348 0.87999348,0 1.9999852,0 Z"
     id="path1" />
  <path
     style="fill:#005073;fill-opacity:1;fill-rule:nonzero;stroke:none"
     d="M 2.3999822,2.0799846 H 17.839868 V 11.279916 H 2.3999822 Z"
     id="path2" />
  <path
     style="fill:#005073;fill-opacity:1;fill-rule:nonzero;stroke:none"
     d="M 18.399864,0 H 1.9999852 C 0.87999348,0 0,0.87999348 0,1.9999852 v 9.3599308 c 0,1.119992 0.87999348,1.999985 1.9999852,1.999985 h 6.479952 v 1.35999 H 5.6799579 c -1.1999911,0 -1.1999911,1.759987 0,1.759987 h 9.0399331 c 1.199991,0 1.199991,-1.759987 0,-1.759987 h -2.399982 v -1.35999 h 6.079955 c 1.119991,0 1.999985,-0.879993 1.999985,-1.999985 V 1.9999852 C 20.399849,0.87999348 19.519855,0 18.399864,0 Z m 0.959993,11.359916 c 0,0.559996 -0.399997,1.039992 -0.959993,1.039992 H 1.9999852 c -0.5599959,0 -0.9599929,-0.479996 -0.9599929,-1.039992 V 1.9999852 c 0,-0.5599959 0.399997,-0.9599929 0.9599929,-0.9599929 H 18.399864 c 0.559996,0 0.959993,0.399997 0.959993,0.9599929 z"
     id="path3" />
</svg>
