<?xml version="1.0" encoding="UTF-8" standalone="no"?>
<svg
   version="1.0"
   width="100"
   height="100"
   id="svg5"
   xmlns="http://www.w3.org/2000/svg"
   xmlns:svg="http://www.w3.org/2000/svg" viewBox="-0.00 -4.44 35.52 35.52">
  <defs
     id="defs1">
    <pattern
       id="EMFhbasepattern"
       patternUnits="userSpaceOnUse"
       width="6"
       height="6"
       x="0"
       y="0" />
  </defs>
  <path
     style="fill:#fafafa;fill-opacity:1;fill-rule:nonzero;stroke:none"
     d="M 1.5199887,0.23999822 H 33.999748 c 0.639995,0 1.199991,0.55999585 1.199991,1.27999048 V 25.119814 c 0,0.719995 -0.559996,1.27999 -1.199991,1.27999 H 1.5199887 c -0.71999463,0 -1.27999048,-0.559995 -1.27999048,-1.27999 V 1.5199887 c 0,-0.71999463 0.55999585,-1.27999048 1.27999048,-1.27999048 z"
     id="path1" />
  <path
     style="fill:#005073;fill-opacity:1;fill-rule:nonzero;stroke:none"
     d="m 33.999748,0.47999644 c 0.559996,0 1.039992,0.47999645 1.039992,1.03999226 V 25.119814 c 0,0.559996 -0.479996,1.039992 -1.039992,1.039992 H 1.5199887 c -0.55999581,0 -1.03999226,-0.479996 -1.03999226,-1.039992 V 1.5199887 c 0,-0.55999581 0.47999645,-1.03999226 1.03999226,-1.03999226 z M 33.999748,0 H 1.5199887 C 0.63999526,0 0,0.63999526 0,1.5199887 V 25.119814 c 0,0.879993 0.63999526,1.519989 1.5199887,1.519989 H 33.999748 c 0.799994,0 1.519989,-0.639996 1.519989,-1.519989 V 1.5199887 C 35.519737,0.63999526 34.799742,0 33.999748,0 Z"
     id="path2" />
  <path
     style="fill:#005073;fill-opacity:1;fill-rule:nonzero;stroke:none"
     d="m 6.7999496,9.039933 c -0.9599929,0 -4.3999674,0.079999 -4.3999674,1.199991 v 6.79995 c 0,0.159999 0.079999,0.239998 0.1599988,0.319997 0.6399953,0.719995 3.3599751,0.799994 4.2399686,0.799994 0.8799935,0 3.5999734,-0.08 4.2399684,-0.799994 0.08,-0.08 0.159999,-0.159998 0.159999,-0.319997 v -6.479952 c 0,-0.08 0,-0.159999 0,-0.159999 0,-0.08 0,-0.08 0,-0.159999 0,-1.1199916 -3.3599751,-1.199991 -4.3999674,-1.199991 z m 0,0.7999941 c 1.1999911,-0.079999 2.3199828,0.079999 3.4399744,0.3999969 -1.1199916,0.319998 -2.2399833,0.479997 -3.4399744,0.399997 -1.1999911,0.08 -2.3199828,-0.08 -3.4399745,-0.399997 C 4.4799668,9.9199265 5.5999585,9.7599277 6.7999496,9.8399271 Z M 3.1999763,16.959874 v -5.919956 c 1.1199917,0.319998 2.3999822,0.399997 3.5999733,0.399997 1.1999911,0 2.4799817,-0.08 3.5999734,-0.399997 v 5.999956 C 9.2799313,17.439871 7.9999407,17.59987 6.7999496,17.51987 5.5999585,17.59987 4.319968,17.359871 3.1999763,16.959874 Z"
     id="path3" />
  <path
     style="fill:#005073;fill-opacity:1;fill-rule:nonzero;stroke:none"
     d="m 17.759868,9.039933 c -1.039992,0 -4.399967,0.079999 -4.399967,1.199991 v 6.79995 c 0,0.159999 0.08,0.239998 0.159999,0.319997 0.639995,0.719995 3.279976,0.799994 4.239968,0.799994 0.879994,0 3.599974,-0.08 4.239969,-0.799994 0.08,-0.08 0.08,-0.159998 0.08,-0.319997 v -6.479952 c 0.08,-0.08 0.08,-0.159999 0,-0.159999 0.08,-0.08 0.08,-0.08 0,-0.159999 0.08,-1.1199916 -3.279975,-1.199991 -4.319969,-1.199991 z m 0,0.7999941 c 1.119992,-0.079999 2.319983,0.079999 3.439975,0.3999969 -1.119992,0.319998 -2.319983,0.479997 -3.439975,0.399997 -1.199991,0.08 -2.399982,-0.08 -3.519973,-0.399997 1.119991,-0.3199975 2.319982,-0.4799963 3.519973,-0.3999969 z m -3.679972,7.1199469 v -5.919956 c 1.199991,0.319998 2.399982,0.399997 3.679972,0.399997 1.199992,0 2.399983,-0.08 3.599974,-0.399997 v 5.999956 c -1.119992,0.399997 -2.399982,0.559996 -3.599974,0.479996 -1.27999,0.08 -2.479981,-0.159999 -3.679972,-0.559996 z"
     id="path4" />
  <path
     style="fill:#005073;fill-opacity:1;fill-rule:nonzero;stroke:none"
     d="m 33.039755,10.239924 c 0,-1.1199916 -3.359975,-1.199991 -4.399967,-1.199991 -0.959993,0 -4.319968,0.079999 -4.319968,1.199991 v 6.79995 c 0,0.159999 0,0.239998 0.08,0.319997 0.719995,0.719995 3.359975,0.799994 4.239969,0.799994 0.959993,0 3.599973,-0.08 4.239968,-0.799994 0.08,-0.08 0.159999,-0.159998 0.159999,-0.319997 v -6.479952 c 0,-0.08 0,-0.159999 0,-0.159999 0,-0.08 0,-0.08 -10e-7,-0.159999 z M 28.639788,9.8399271 c 1.199991,-0.079999 2.399982,0.079999 3.519974,0.3999969 -1.119992,0.319998 -2.319983,0.479997 -3.519974,0.399997 -1.119992,0.08 -2.319983,-0.08 -3.439975,-0.399997 1.119992,-0.3199975 2.319983,-0.4799963 3.439975,-0.3999969 z m -3.599973,7.1199469 v -5.919956 c 1.119991,0.319998 2.399982,0.399997 3.599973,0.399997 1.199991,0 2.479981,-0.08 3.679973,-0.399997 v 5.999956 c -1.199992,0.399997 -2.399983,0.559996 -3.679973,0.479996 -1.199991,0.08 -2.479982,-0.159999 -3.599973,-0.559996 z"
     id="path5" />
</svg>
