<svg width="99" height="100" viewBox="0 0 99 100" fill="none" xmlns="http://www.w3.org/2000/svg">
<g clip-path="url(#clip0_30_84)">
<mask id="mask0_30_84" style="mask-type:luminance" maskUnits="userSpaceOnUse" x="0" y="0" width="99" height="100">
<path d="M99 0H0V100H99V0Z" fill="white"/>
</mask>
<g mask="url(#mask0_30_84)">
<mask id="mask1_30_84" style="mask-type:luminance" maskUnits="userSpaceOnUse" x="-3" y="0" width="102" height="100">
<path d="M98.5 0H-2.5V100H98.5V0Z" fill="white"/>
</mask>
<g mask="url(#mask1_30_84)">
<path fill-rule="evenodd" clip-rule="evenodd" d="M96.5 89.554C96.5 92.277 94.69 95 91.08 95C7.91995 95 7.92004 95 7.92004 95C5.21004 95 2.5 92.277 2.5 89.554C2.5 41.446 2.5 41.446 2.5 41.446C2.5 38.723 5.21004 36 7.92004 36C91.08 36 91.08 36 91.08 36C94.69 36 96.5 38.723 96.5 41.446V89.554Z" fill="white"/>
<path fill-rule="evenodd" clip-rule="evenodd" d="M90.41 33.604C84.11 33.604 84.11 33.604 84.11 33.604C84.11 19.113 84.11 19.113 84.11 19.113C84.11 17.302 83.22 16.396 81.42 16.396C81.42 7.34 81.42 7.34 81.42 7.34C82.32 7.34 82.3199 7.34 82.3199 7.34C82.3199 0.999996 82.3199 1 82.3199 1C78.7199 1 78.72 1 78.72 1C78.72 7.34 78.72 7.34 78.72 7.34C79.62 7.34 79.62 7.34 79.62 7.34C79.62 16.396 79.62 16.396 79.62 16.396C77.82 16.396 76.92 17.302 76.92 19.113C76.92 33.604 76.92 33.604 76.92 33.604C22.08 33.604 22.08 33.604 22.08 33.604C22.08 19.113 22.08 19.113 22.08 19.113C22.08 17.302 21.18 16.396 19.38 16.396C19.38 7.34 19.38 7.34 19.38 7.34C20.28 7.34 20.28 7.34 20.28 7.34C20.28 0.999996 20.28 1 20.28 1C15.78 1 15.78 1 15.78 1C15.78 7.34 15.78 7.34 15.78 7.34C16.68 7.34 16.6801 7.34 16.6801 7.34C16.6801 16.396 16.6801 16.396 16.6801 16.396C15.7801 16.396 13.99 17.302 13.99 19.113C13.99 33.604 13.99 33.604 13.99 33.604C8.58999 33.604 8.58997 33.604 8.58997 33.604C4.09997 33.604 0.5 37.226 0.5 41.755C0.5 89.755 0.5 89.755 0.5 89.755C0.5 93.377 4.09997 97 8.58997 97C90.41 97 90.41 97 90.41 97C94.9 97 98.5 93.377 98.5 89.755C98.5 41.755 98.5 41.755 98.5 41.755C98.5 37.226 94.9 33.604 90.41 33.604ZM95.8 89.755C95.8 92.472 93.11 94.283 90.41 94.283C8.59003 94.283 8.58997 94.283 8.58997 94.283C4.99997 94.283 3.19995 92.472 3.19995 89.755C3.19995 41.755 3.19995 41.755 3.19995 41.755C3.19995 39.038 4.99997 36.321 8.58997 36.321C90.41 36.321 90.41 36.321 90.41 36.321C93.11 36.321 95.8 39.038 95.8 41.755V89.755Z" fill="#005073"/>
<path fill-rule="evenodd" clip-rule="evenodd" d="M90.5 71.231C88.7 71.231 88.7 71.231 88.7 71.231C88.7 72.077 87.8 73.769 86.9 75.462C85.99 75.462 85.0899 76.308 84.1899 76.308C82.3899 76.308 81.49 74.615 80.59 72.077C79.69 69.538 78.7901 67 75.1801 67C74.2801 67 74.28 67 74.28 67C71.58 67 69.77 69.538 68.87 72.077C67.97 74.615 67.07 76.308 65.27 76.308C63.47 76.308 62.57 74.615 60.76 72.077C59.86 69.538 58.06 67 55.36 67C54.46 67 54.46 67 54.46 67C50.85 67 49.95 69.538 48.15 72.077C47.25 74.615 46.35 76.308 43.64 76.308C41.84 76.308 41.84 74.615 40.04 72.077C39.14 69.538 38.24 67 35.53 67C34.63 67 34.63 67 34.63 67C33.73 67 33.73 67 33.73 67C31.03 67 30.13 69.538 29.23 72.077C27.42 74.615 27.42 76.308 25.62 76.308C22.92 76.308 22.02 74.615 20.21 72.077C19.31 69.538 18.41 67 13.91 67C11.2 67 9.4 68.692 8.5 71.231C10.3 72.077 10.3 72.077 10.3 72.077C10.3 70.385 12.1001 69.538 14.8101 68.692C16.6101 68.692 17.5101 70.385 19.3101 72.923C20.2101 75.462 21.12 78 25.62 78C28.32 78 29.23 75.462 31.03 72.923C31.93 70.385 32.83 68.692 34.63 68.692C36.43 68.692 37.34 70.385 38.24 72.923C40.04 75.462 40.94 78 43.64 78C48.15 78 49.05 75.462 49.95 72.923C51.75 70.385 52.65 68.692 54.46 68.692C57.16 68.692 58.06 70.385 58.96 72.923C60.76 75.462 61.66 78 65.27 78C68.87 78 69.7701 75.462 70.6801 72.923C72.4801 70.385 72.4801 68.692 75.1801 68.692C76.9801 68.692 77.88 70.385 78.79 72.923C79.69 75.462 81.4899 78 84.1899 78C85.9899 78 86.9 77.154 88.7 76.308C89.6 74.615 90.5 72.923 90.5 71.231Z" fill="#005073"/>
<path fill-rule="evenodd" clip-rule="evenodd" d="M84.27 65.9367C80.66 65.9367 78.85 69.6877 77.95 72.4997C77.05 75.3127 76.15 76.2497 75.24 76.2497C74.34 76.2497 74.34 76.2497 74.34 76.2497C73.44 76.2497 72.53 75.3127 71.63 71.5627C70.73 69.6877 69.8201 65.9367 65.3101 65.9367C60.7901 65.9367 59.89 69.6877 58.08 71.5627C57.18 75.3127 56.27 76.2497 54.47 76.2497C53.56 76.2497 52.66 75.3127 50.85 71.5627C49.95 69.6877 48.15 65.9367 43.63 65.9367C40.02 65.9367 39.1101 69.6877 37.3101 71.5627C36.4001 75.3127 35.5 76.2497 34.6 76.2497C32.79 76.2497 32.79 75.3127 31.89 71.5627C30.08 69.6877 29.1801 65.9367 25.5601 65.9367C21.0501 65.9367 19.24 69.6877 18.34 71.5627C16.53 75.3127 15.63 76.2497 14.73 76.2497C13.82 76.2497 12.92 75.3127 12.02 75.3127C11.11 73.4377 11.11 72.4997 11.11 71.5627C7.49999 71.5627 7.5 71.5627 7.5 71.5627C7.5 73.4377 7.50006 75.3127 9.31006 77.1877C11.1101 79.0627 12.0199 79.9997 13.8199 79.9997C14.7299 79.9997 14.73 79.9997 14.73 79.9997C18.34 79.9997 20.15 76.2497 21.05 73.4377C22.85 70.6247 23.7601 69.6877 25.5601 69.6877C26.4701 69.6877 27.37 70.6247 28.27 73.4377C29.18 76.2497 30.0799 79.9997 33.6899 79.9997C34.5999 79.9997 34.6 79.9997 34.6 79.9997C35.5 79.9997 35.5 79.9997 35.5 79.9997C39.11 79.9997 40.02 76.2497 40.92 73.4377C41.82 70.6247 42.73 69.6877 43.63 69.6877C45.44 69.6877 46.34 70.6247 48.15 73.4377C49.05 76.2497 50.85 79.9997 54.47 79.9997C55.37 79.9997 55.37 79.9997 55.37 79.9997C58.98 79.9997 60.7899 76.2497 61.6899 73.4377C63.4999 70.6247 63.5001 69.6877 65.3101 69.6877C67.1101 69.6877 67.11 70.6247 68.02 73.4377C68.92 76.2497 70.73 79.9997 74.34 79.9997C75.24 79.9997 75.24 79.9997 75.24 79.9997C78.85 79.9997 80.6601 76.2497 81.5601 73.4377C82.4701 70.6247 83.37 69.6877 84.27 69.6877C86.98 69.6877 87.89 71.5627 87.89 72.4997C91.5 71.5627 91.5 71.5627 91.5 71.5627C90.6 68.7497 88.79 64.9997 84.27 65.9367Z" fill="#005073"/>
</g>
</g>
</g>
<defs>
<clipPath id="clip0_30_84">
<rect width="99" height="100" fill="white"/>
</clipPath>
</defs>
</svg>
