<?xml version="1.0" encoding="UTF-8" standalone="no"?>
<svg
   version="1.0"
   width="100"
   height="100"
   id="svg23"
   xmlns="http://www.w3.org/2000/svg"
   xmlns:svg="http://www.w3.org/2000/svg" viewBox="-1.54 -0.00 34.40 34.40">
  <defs
     id="defs1">
    <pattern
       id="EMFhbasepattern"
       patternUnits="userSpaceOnUse"
       width="6"
       height="6"
       x="0"
       y="0" />
  </defs>
  <path
     style="fill:#ffffff;fill-opacity:1;fill-rule:nonzero;stroke:none"
     d="m 1.1199917,22.399834 c 0.6399953,1.519989 1.3599899,3.039978 2.159984,4.399967 1.5999882,-0.08 3.1199769,-0.239998 4.6399656,-0.639995 1.759987,-0.399997 3.5999737,-0.639995 5.3599607,-0.719994 h 1.999985 c 4.399967,-0.08 8.799935,0.479996 13.039903,1.839986 0.879994,-1.439989 1.519989,-2.959978 2.079985,-4.639966 C 27.919793,20.23985 25.67981,17.59987 23.759824,14.719891 20.799846,10.559922 18.639862,5.9199561 17.359871,1.0399923 H 13.919897 C 12.559907,5.9199561 10.399923,10.559922 7.5199443,14.719891 5.5999585,17.51987 3.5199739,20.079851 1.1199917,22.399834 Z"
     id="path1" />
  <path
     style="fill:#005073;fill-opacity:1;fill-rule:nonzero;stroke:none"
     d="M 14.479893,0.71999467 H 14.79989 V 4.719965 h -0.319997 z"
     id="path2" />
  <path
     style="fill:#005073;fill-opacity:1;fill-rule:nonzero;stroke:none"
     d="m 15.279887,0.71999467 h 0.399997 V 4.719965 h -0.399997 z"
     id="path3" />
  <path
     style="fill:#005073;fill-opacity:1;fill-rule:nonzero;stroke:none"
     d="m 16.15988,0.71999467 h 0.319998 V 4.719965 H 16.15988 Z"
     id="path4" />
  <path
     style="fill:#005073;fill-opacity:1;fill-rule:nonzero;stroke:none"
     d="m 25.59981,23.919823 0.159999,-0.319998 3.519974,1.999985 -0.239998,0.319998 z"
     id="path5" />
  <path
     style="fill:#005073;fill-opacity:1;fill-rule:nonzero;stroke:none"
     d="m 26.079807,23.119829 0.159999,-0.239998 3.439974,1.999985 -0.159999,0.239998 z"
     id="path6" />
  <path
     style="fill:#005073;fill-opacity:1;fill-rule:nonzero;stroke:none"
     d="m 26.479804,22.399834 0.159999,-0.239998 3.439974,1.919986 -0.159999,0.319997 z"
     id="path7" />
  <path
     style="fill:#005073;fill-opacity:1;fill-rule:nonzero;stroke:none"
     d="M 2.159984,25.59981 2.3999822,25.839809 5.5999585,23.519826 5.4399597,23.199828 Z"
     id="path8" />
  <path
     style="fill:#005073;fill-opacity:1;fill-rule:nonzero;stroke:none"
     d="m 4.8799639,22.559833 -3.1999763,2.319983 0.2399982,0.319997 3.1999763,-2.399982 z"
     id="path9" />
  <path
     style="fill:#005073;fill-opacity:1;fill-rule:nonzero;stroke:none"
     d="M 4.3999674,21.839838 1.1999911,24.23982 1.3599899,24.479819 4.6399656,22.159836 Z"
     id="path10" />
  <path
     style="fill:#00bceb;fill-opacity:1;fill-rule:nonzero;stroke:none"
     d="m 15.439886,9.9999259 c -6.3199536,0 -9.4399304,7.6799431 -4.959964,12.0799101 4.479967,4.479967 12.079911,1.199992 11.999911,-5.039962 0,-3.919971 -3.119976,-7.0399481 -7.039947,-7.0399481 z"
     id="path11" />
  <path
     style="fill:#ffffff;fill-opacity:1;fill-rule:nonzero;stroke:none"
     d="m 13.359901,26.399804 c -1.759987,0.08 -3.5199739,0.319998 -5.1999614,0.719995 H 8.0799401 C 9.5199295,35.519737 21.59984,35.359738 22.799831,26.9598 19.679854,26.399804 16.479878,26.239806 13.359901,26.399804 Z"
     id="path12" />
  <path
     style="fill:#005073;fill-opacity:1;fill-rule:nonzero;stroke:none"
     d="m 12.959904,30.879771 h 1.279991 v 0.879994 h -1.279991 z"
     id="path13" />
  <path
     style="fill:#005073;fill-opacity:1;fill-rule:nonzero;stroke:none"
     d="m 12.959904,29.199784 h 1.279991 v 0.879993 h -1.279991 z"
     id="path14" />
  <path
     style="fill:#005073;fill-opacity:1;fill-rule:nonzero;stroke:none"
     d="m 12.959904,27.519796 h 1.279991 v 0.879994 h -1.279991 z"
     id="path15" />
  <path
     style="fill:#005073;fill-opacity:1;fill-rule:nonzero;stroke:none"
     d="m 14.87989,30.879771 h 1.199991 v 0.879994 H 14.87989 Z"
     id="path16" />
  <path
     style="fill:#005073;fill-opacity:1;fill-rule:nonzero;stroke:none"
     d="m 14.87989,29.199784 h 1.199991 v 0.879993 H 14.87989 Z"
     id="path17" />
  <path
     style="fill:#005073;fill-opacity:1;fill-rule:nonzero;stroke:none"
     d="m 14.87989,27.519796 h 1.199991 V 28.39979 H 14.87989 Z"
     id="path18" />
  <path
     style="fill:#005073;fill-opacity:1;fill-rule:nonzero;stroke:none"
     d="m 16.799876,30.879771 h 1.27999 v 0.879994 h -1.27999 z"
     id="path19" />
  <path
     style="fill:#005073;fill-opacity:1;fill-rule:nonzero;stroke:none"
     d="m 16.799876,29.199784 h 1.27999 v 0.879993 h -1.27999 z"
     id="path20" />
  <path
     style="fill:#005073;fill-opacity:1;fill-rule:nonzero;stroke:none"
     d="m 16.799876,27.519796 h 1.27999 v 0.879994 h -1.27999 z"
     id="path21" />
  <path
     style="fill:#ffffff;fill-opacity:1;fill-rule:nonzero;stroke:none"
     d="m 15.439886,24.399819 c -6.5599518,0 -9.8399275,-7.919941 -5.199962,-12.559907 4.639966,-4.7199647 12.559907,-1.439989 12.559907,5.199962 0,4.07997 -3.279976,7.359945 -7.359945,7.359945 z m 0,-14.3998931 C 9.1199324,9.9199265 5.9999556,17.59987 10.479922,21.999837 c 4.399968,4.479967 12.079911,1.279991 11.999911,-4.959963 0,-3.919971 -3.119976,-7.0399481 -7.039947,-7.0399481 z"
     id="path22" />
  <path
     style="fill:#005073;fill-opacity:1;fill-rule:nonzero;stroke:none"
     d="M 31.119769,21.999837 C 28.719787,19.599855 26.479804,16.959874 24.559818,14.159895 21.59984,9.9999259 19.519855,5.3599603 18.239865,0.39999704 L 18.159865,0 h -5.039962 l -0.08,0.39999704 C 11.759913,5.3599603 9.5999289,9.9999259 6.7199502,14.159895 4.7999644,16.959874 2.559981,19.599855 0.15999881,21.999837 L 0.31999763,22.239835 0,22.319835 c 2.3199828,5.519959 2.7199799,5.519959 3.1199769,5.519959 1.3599899,-0.08 2.6399804,-0.159999 3.9999704,-0.479997 0.7199946,4.07997 4.3199677,7.119948 8.4799367,7.039948 4.15997,-0.08 7.679944,-3.199976 8.239939,-7.279946 1.519989,0.239998 3.039978,0.639995 4.559967,1.199991 l 0.399997,0.159999 0.159998,-0.399997 c 2.959979,-5.279961 2.399983,-5.839957 2.159984,-6.079955 z M 15.439886,33.359753 c -3.679973,0 -6.79995,-2.639981 -7.3599459,-6.159954 h 0.079999 c 1.6799875,-0.399998 3.4399749,-0.639996 5.1999619,-0.799995 3.119976,-0.08 6.319952,0.08 9.43993,0.559996 -0.559997,3.679973 -3.679973,6.399953 -7.359945,6.399953 z M 28.31979,27.199799 c -1.679987,-0.479997 -3.359975,-0.879994 -5.039962,-1.199992 l -0.399997,-0.08 v 0 C 20.399849,25.51981 17.919867,25.359811 15.359886,25.359811 h -1.999985 c -1.839986,0.08 -3.5999733,0.399997 -5.3599603,0.799994 v 0 l -1.0399923,0.159999 v 0 C 5.7599573,26.559803 4.5599662,26.719802 3.2799757,26.799801 2.4799816,25.359812 1.759987,23.919823 1.1199917,22.399834 3.5199739,19.999852 5.6799579,17.439871 7.5199443,14.639892 10.479922,10.559922 12.559907,5.9199561 13.919897,1.0399923 h 3.439974 c 1.279991,4.8799638 3.439975,9.5199297 6.399953,13.6798987 1.919986,2.799979 4.159969,5.519959 6.559951,7.919941 -0.479996,1.599988 -1.119991,3.119977 -1.999985,4.559967 z"
     id="path23" />
</svg>
