<?xml version="1.0" encoding="UTF-8" standalone="no"?>
<svg
   version="1.0"
   width="100"
   height="100"
   id="svg7"
   xmlns="http://www.w3.org/2000/svg"
   xmlns:svg="http://www.w3.org/2000/svg" viewBox="-0.00 -4.44 35.52 35.52">
  <defs
     id="defs1">
    <pattern
       id="EMFhbasepattern"
       patternUnits="userSpaceOnUse"
       width="6"
       height="6"
       x="0"
       y="0" />
  </defs>
  <path
     style="fill:#fafafa;fill-opacity:1;fill-rule:nonzero;stroke:none"
     d="M 1.5199887,0.23999822 H 33.999748 c 0.639995,0 1.199991,0.55999585 1.199991,1.27999048 V 25.119814 c 0,0.719995 -0.559996,1.27999 -1.199991,1.27999 H 1.5199887 c -0.71999463,0 -1.27999048,-0.559995 -1.27999048,-1.27999 V 1.5199887 c 0,-0.71999463 0.55999585,-1.27999048 1.27999048,-1.27999048 z"
     id="path1" />
  <path
     style="fill:#005073;fill-opacity:1;fill-rule:nonzero;stroke:none"
     d="m 33.999748,0.47999644 c 0.559996,0 1.039992,0.47999645 1.039992,1.03999226 V 25.119814 c 0,0.559996 -0.479996,1.039992 -1.039992,1.039992 H 1.5199887 c -0.55999581,0 -1.03999226,-0.479996 -1.03999226,-1.039992 V 1.5199887 c 0,-0.55999581 0.47999645,-1.03999226 1.03999226,-1.03999226 z M 33.999748,0 H 1.5199887 C 0.63999526,0 0,0.63999526 0,1.5199887 V 25.119814 c 0,0.879993 0.63999526,1.519989 1.5199887,1.519989 H 33.999748 c 0.799994,0 1.519989,-0.639996 1.519989,-1.519989 V 1.5199887 C 35.519737,0.63999526 34.799742,0 33.999748,0 Z"
     id="path2" />
  <path
     style="fill:#005073;fill-opacity:1;fill-rule:nonzero;stroke:none"
     d="m 4.719965,12.319909 v 1.439989 h 4.319968 v 1.35999 l 1.999985,-2.079985 -1.999985,-2.079984 v 1.35999 z"
     id="path3" />
  <path
     style="fill:#005073;fill-opacity:1;fill-rule:nonzero;stroke:none"
     d="m 17.439871,18.319864 c -4.719965,0 -7.119947,-5.759957 -3.759972,-9.0399327 3.359975,-3.3599752 9.039933,-0.9599929 9.039933,3.7599717 0,2.879979 -2.399983,5.279961 -5.279961,5.279961 m 0,-9.4399298 c -3.759972,0 -5.599959,4.4799668 -2.959978,7.0399478 2.63998,2.639981 7.119947,0.799994 7.119947,-2.879979 0,-2.319982 -1.919986,-4.1599688 -4.159969,-4.1599688 z"
     id="path4" />
  <path
     style="fill:#005073;fill-opacity:1;fill-rule:nonzero;stroke:none"
     d="m 25.839809,6.3999526 0.639995,1.1999911 -3.599973,2.0799846 c 0.319997,0.3999967 0.559995,0.7999937 0.719994,1.1999907 l 3.599974,-2.0799842 0.719994,1.1999911 0.719995,-2.7999792 z"
     id="path5" />
  <path
     style="fill:#005073;fill-opacity:1;fill-rule:nonzero;stroke:none"
     d="m 29.999778,13.039903 -1.999985,-2.079984 v 1.35999 h -3.999971 c 0.08,0.479996 0.08,0.959993 0,1.439989 h 3.999971 v 1.35999 z"
     id="path6" />
  <path
     style="fill:#005073;fill-opacity:1;fill-rule:nonzero;stroke:none"
     d="m 28.639788,18.87986 -0.719995,-2.879979 -0.719994,1.199992 -3.599974,-2.079985 c -0.159999,0.399997 -0.399997,0.799994 -0.719994,1.199991 l 3.599973,2.079985 -0.639995,1.199991 z"
     id="path7" />
</svg>
