<?xml version="1.0" encoding="UTF-8" standalone="no"?>
<svg
   version="1.0"
   width="100"
   height="100"
   id="svg6"
   xmlns="http://www.w3.org/2000/svg"
   xmlns:svg="http://www.w3.org/2000/svg" viewBox="-0.00 -4.44 35.52 35.52">
  <defs
     id="defs1">
    <pattern
       id="EMFhbasepattern"
       patternUnits="userSpaceOnUse"
       width="6"
       height="6"
       x="0"
       y="0" />
  </defs>
  <path
     style="fill:#fafafa;fill-opacity:1;fill-rule:nonzero;stroke:none"
     d="M 1.5199887,0.23999822 H 33.999748 c 0.639995,0 1.199991,0.55999585 1.199991,1.27999048 V 25.119814 c 0,0.719995 -0.559996,1.27999 -1.199991,1.27999 H 1.5199887 c -0.71999463,0 -1.27999048,-0.559995 -1.27999048,-1.27999 V 1.5199887 c 0,-0.71999463 0.55999585,-1.27999048 1.27999048,-1.27999048 z"
     id="path1" />
  <path
     style="fill:#005073;fill-opacity:1;fill-rule:nonzero;stroke:none"
     d="m 33.999748,0.47999644 c 0.559996,0 1.039992,0.47999645 1.039992,1.03999226 V 25.119814 c 0,0.559996 -0.479996,1.039992 -1.039992,1.039992 H 1.5199887 c -0.55999581,0 -1.03999226,-0.479996 -1.03999226,-1.039992 V 1.5199887 c 0,-0.55999581 0.47999645,-1.03999226 1.03999226,-1.03999226 z M 33.999748,0 H 1.5199887 C 0.63999526,0 0,0.63999526 0,1.5199887 V 25.119814 c 0,0.879993 0.63999526,1.519989 1.5199887,1.519989 H 33.999748 c 0.799994,0 1.519989,-0.639996 1.519989,-1.519989 V 1.5199887 C 35.519737,0.63999526 34.799742,0 33.999748,0 Z"
     id="path2" />
  <path
     style="fill:#005073;fill-opacity:1;fill-rule:nonzero;stroke:none"
     d="m 32.479759,17.919867 -0.719994,0.08 c 0.08,0.559996 -0.08,1.039992 -0.479997,1.439989 -0.239998,0.319998 -0.639995,0.479996 -0.959993,0.479996 -0.639995,0 -0.959992,-0.559995 -1.35999,-1.519988 -0.319997,-0.959993 -0.719994,-1.919986 -1.839986,-1.999985 v 0 c -0.08,0 -0.159999,0 -0.239998,0 0,0 -0.08,0 -0.159999,0 v 0 c -1.119992,0.08 -1.519989,1.119991 -1.839986,1.999985 -0.399997,0.879993 -0.719995,1.519988 -1.35999,1.519988 -0.799994,0 -1.199991,-0.559995 -1.599988,-1.599988 -0.479997,-0.959993 -0.959993,-1.839986 -2.159984,-1.839986 h -0.159999 c -1.199991,0 -1.759987,1.039992 -2.159984,1.839986 -0.399997,0.879994 -0.799994,1.599988 -1.679988,1.599988 -0.639995,0 -0.879993,-0.559995 -1.27999,-1.519988 -0.399997,-0.959993 -0.799994,-1.919986 -1.919986,-1.999985 v 0 c 0,0 -0.08,0 -0.159999,0 -0.08,0 -0.08,0 -0.159999,0 v 0 c -1.119991,0.08 -1.519988,1.119991 -1.919985,1.999985 -0.3199981,0.879993 -0.6399957,1.519988 -1.279991,1.519988 -0.8799934,0 -1.1999911,-0.559995 -1.6799875,-1.599988 C 6.879949,17.359871 6.3999526,16.319879 5.0399627,16.479878 v 0 c -0.9599929,0.08 -1.8399864,0.799994 -2.159984,1.759987 l 0.7199946,0.159999 c 0.1599988,-0.719995 0.7999941,-1.199991 1.5199888,-1.199991 0.799994,-0.08 1.1999911,0.479996 1.5999881,1.439989 0.4799965,0.959993 0.9599929,1.999985 2.3199828,1.999985 1.119992,0 1.519989,-0.959993 1.919986,-1.919986 0.319997,-0.959993 0.639995,-1.599988 1.439989,-1.599988 0.719995,0 0.959993,0.559996 1.439989,1.599988 0.399998,0.959993 0.719995,1.919986 1.919986,1.919986 1.35999,0 1.839987,-1.039992 2.319983,-1.999985 0.399997,-1.039992 0.719995,-1.519989 1.599988,-1.519989 0.799994,0.08 1.119992,0.559996 1.599988,1.519989 0.479997,0.959993 0.959993,1.999985 2.319983,1.999985 1.119992,0 1.519989,-1.039992 1.919986,-1.919986 0.319998,-0.959993 0.719995,-1.679987 1.519989,-1.679987 0.719994,0.08 0.959993,0.639995 1.439989,1.599988 0.399997,0.959993 0.719995,1.919986 1.919986,1.919986 0.559996,0 1.039992,-0.239999 1.439989,-0.639996 0.479997,-0.559995 0.719995,-1.27999 0.639995,-1.999985 z"
     id="path3" />
  <path
     style="fill:#005073;fill-opacity:1;fill-rule:nonzero;stroke:none"
     d="m 30.319775,16.079881 c -1.35999,0 -1.919985,1.199991 -2.239983,2.159984 -0.399997,0.879993 -0.639995,1.27999 -1.039992,1.35999 v 0 0 c -0.08,0 -0.08,0 -0.159999,0 v 0 c -0.399997,0 -0.639995,-0.399997 -0.959993,-1.35999 -0.399997,-1.039992 -0.879993,-2.159984 -2.239983,-2.159984 -1.599989,0 -2.159984,1.199991 -2.639981,2.159984 -0.399997,0.879993 -0.719995,1.27999 -1.27999,1.27999 v 0.08 -0.08 c -0.559996,0 -0.799994,-0.239998 -1.279991,-1.27999 -0.479996,-1.039992 -1.039992,-2.159984 -2.559981,-2.159984 -1.439989,0 -1.919986,1.199991 -2.319983,2.159984 -0.319997,0.879993 -0.559996,1.35999 -0.959993,1.35999 v 0 c -0.08,0 -0.08,0 -0.08,0 0,0 -0.08,0 -0.08,0 v 0 c -0.399997,0 -0.639996,-0.399997 -1.039993,-1.35999 -0.319997,-1.039992 -1.039992,-2.159984 -2.399982,-2.159984 -1.5999881,0 -2.159984,1.199991 -2.6399804,2.159984 -0.399997,0.879993 -0.7199947,1.27999 -1.2799905,1.27999 v 0 c -0.3199977,0 -0.5599959,-0.159998 -0.7199947,-0.399997 -0.3199976,-0.239998 -0.399997,-0.639995 -0.399997,-1.039992 l -1.35999,-0.08 c -0.079999,0.719994 0.2399983,1.439989 0.7999941,1.999985 0.3999971,0.479996 0.9599929,0.719995 1.5999882,0.799994 v 0 h 0.1599988 v 0 c 1.4399893,0 1.9999852,-1.199991 2.3999822,-1.999985 0.4799964,-0.879994 0.7199947,-1.43999 1.3599899,-1.43999 0.4799965,0 0.6399953,0.479997 1.0399923,1.35999 0.3199981,0.879994 0.8799931,2.079985 2.1599841,2.239984 h 0.399997 c 1.35999,-0.159999 1.839986,-1.35999 2.239983,-2.239984 0.319998,-0.879993 0.559996,-1.35999 0.959993,-1.35999 0.639996,0 0.879994,0.479997 1.35999,1.43999 0.399997,0.959993 0.959993,1.999985 2.399982,1.999985 v 0 c 0.08,0 0.08,0 0.159999,0 0,0 0.08,0 0.08,0 v 0 c 1.439989,0 1.999985,-1.199991 2.479981,-1.999985 0.399997,-0.879994 0.719995,-1.43999 1.279991,-1.43999 0.479996,0 0.639995,0.479997 1.039992,1.35999 0.399997,0.879994 0.879994,2.079985 2.159984,2.239984 h 0.399997 c 1.35999,-0.159999 1.839986,-1.35999 2.239984,-2.239984 0.319997,-0.879993 0.559995,-1.27999 0.959992,-1.35999 0.559996,0 1.039993,0.399997 1.199992,0.959993 l 1.359989,-0.319997 C 32.639756,16.799875 31.519765,15.99988 30.319773,16.07988 Z"
     id="path4" />
  <path
     style="fill:#005073;fill-opacity:1;fill-rule:nonzero;stroke:none"
     d="m 32.479759,7.9199413 -0.719994,0.079999 c 0.08,0.5599959 -0.08,1.0399923 -0.479997,1.5199888 -0.239998,0.2399982 -0.639995,0.399997 -0.959993,0.399997 -0.639995,0 -0.959992,-0.5599958 -1.35999,-1.5199887 C 28.639788,7.4399449 28.239791,6.479952 27.119799,6.3999526 h -0.399997 c -1.119992,0.079999 -1.519989,1.1199917 -1.839986,1.9999852 -0.399997,0.8799935 -0.719995,1.5199887 -1.35999,1.5199887 -0.799994,0 -1.199991,-0.5599958 -1.599988,-1.5999881 C 21.439841,7.3599455 21.039844,6.479952 19.759854,6.479952 h -0.159999 c -1.199991,0 -1.759987,1.0399923 -2.159984,1.8399864 -0.399997,0.8799935 -0.799994,1.5999881 -1.679988,1.5999881 -0.639995,0 -0.879993,-0.5599958 -1.27999,-1.5199887 C 14.079896,7.4399449 13.679899,6.479952 12.559907,6.3999526 H 12.239909 C 11.119918,6.479952 10.719921,7.5199443 10.319924,8.3999378 9.9999259,9.2799313 9.6799283,9.9199265 9.039933,9.9199265 8.1599396,9.9199265 7.8399419,9.3599307 7.3599455,8.3199384 6.879949,7.3599455 6.3999526,6.3199532 5.0399627,6.479952 v 0 C 4.0799698,6.5599514 3.1999763,7.1999467 2.9599781,8.1599396 L 3.5999733,8.3999378 C 3.7599721,7.6799431 4.3999674,7.1999467 5.1199621,7.1199473 5.9999556,7.0399479 6.3199532,7.6799431 6.7199502,8.639936 c 0.4799965,0.9599929 0.9599929,1.999985 2.3199828,1.999985 1.119992,0 1.599988,-1.0399921 1.919986,-1.999985 0.399997,-0.9599929 0.719994,-1.5999881 1.439989,-1.5999881 0.799994,0.079999 1.039992,0.6399952 1.439989,1.5999881 0.479997,0.9599929 0.799995,1.999985 1.919986,1.999985 1.35999,0 1.839987,-1.0399921 2.319983,-1.999985 0.399997,-0.9599929 0.799994,-1.5999881 1.599988,-1.5199887 0.879994,0.079999 1.199991,0.5599958 1.599988,1.5199887 0.479997,0.9599929 0.959993,1.999985 2.319983,1.999985 1.119992,0 1.599988,-1.0399921 1.919986,-1.999985 0.399997,-0.8799935 0.719995,-1.5999881 1.519989,-1.5999881 0.719994,0.079999 0.959993,0.6399952 1.439989,1.5999881 0.399997,0.9599929 0.719995,1.919986 1.919986,1.919986 0.559996,0 1.039992,-0.239998 1.439989,-0.6399955 0.479997,-0.5599958 0.719995,-1.2799905 0.639995,-1.9999852 z"
     id="path5" />
  <path
     style="fill:#005073;fill-opacity:1;fill-rule:nonzero;stroke:none"
     d="m 30.319775,6.079955 c -1.35999,0 -1.919985,1.1999911 -2.239983,2.159984 -0.399997,0.8799934 -0.639995,1.3599899 -1.039992,1.3599899 h -0.159999 c -0.399997,0 -0.639995,-0.399997 -0.959993,-1.4399893 C 25.519811,7.1999467 25.039815,6.079955 23.599825,6.079955 c -1.599988,0 -2.159984,1.1999911 -2.559981,2.159984 -0.479996,0.8799934 -0.799994,1.2799905 -1.35999,1.2799905 v 0.079999 -0.079999 c -0.559996,0 -0.799994,-0.2399982 -1.27999,-1.2799905 -0.479997,-1.0399923 -0.959993,-2.159984 -2.559981,-2.159984 -1.43999,0 -1.919986,1.1999911 -2.239984,2.159984 -0.399997,0.8799934 -0.639995,1.3599899 -1.039992,1.3599899 h -0.159999 c -0.399997,0 -0.639995,-0.399997 -0.959993,-1.4399893 C 11.039918,7.1999467 10.399923,6.079955 9.039933,6.079955 c -1.5999881,0 -2.159984,1.1999911 -2.6399804,2.159984 -0.399997,0.8799934 -0.7199947,1.2799905 -1.2799905,1.2799905 v 0 c -0.2399982,0 -0.5599959,-0.1599988 -0.7199947,-0.3999971 C 4.0799698,8.8799342 3.9999704,8.4799372 3.9999704,8.0799401 l -1.35999,-0.079999 C 2.559981,8.7199354 2.8799787,9.4399301 3.4399745,9.9999259 3.8399716,10.479922 4.3999674,10.719921 5.0399627,10.79992 v 0 0 h 0.1599988 v 0 c 1.4399893,0 1.9999852,-1.1999911 2.3999822,-1.9999852 0.4799964,-0.8799935 0.7999941,-1.4399893 1.4399893,-1.4399893 0.3999971,0 0.5599959,0.399997 0.9599929,1.2799905 0.3999971,0.9599929 0.8799931,2.159984 2.1599841,2.239983 h 0.479996 c 1.279991,-0.08 1.759987,-1.2799901 2.159984,-2.1599836 0.319998,-0.9599929 0.559996,-1.3599899 0.959993,-1.3599899 0.639996,0 0.959993,0.399997 1.35999,1.3599899 0.479997,0.9599929 1.039992,1.9999856 2.399982,1.9999856 h 0.239999 c 1.519988,0 1.999985,-1.1199921 2.479981,-1.9999856 0.399997,-0.7999941 0.799994,-1.3599899 1.35999,-1.3599899 0.399997,0 0.639995,0.399997 0.959993,1.2799905 0.399997,0.9599929 0.879994,2.159984 2.159984,2.239983 h 0.479997 c 1.27999,-0.08 1.759986,-1.2799901 2.159984,-2.1599836 0.399997,-0.9599929 0.559995,-1.3599899 0.959992,-1.3599899 0.639996,0 1.119992,0.399997 1.199992,0.9599929 L 32.879756,7.9999407 C 32.639758,6.7999496 31.519767,5.9999556 30.319775,6.079955 Z"
     id="path6" />
</svg>
