<?xml version="1.0" encoding="UTF-8" standalone="no"?>
<svg
   version="1.0"
   width="100"
   height="100"
   id="svg4"
   xmlns="http://www.w3.org/2000/svg"
   xmlns:svg="http://www.w3.org/2000/svg" viewBox="-0.00 -0.61 45.31 45.31">
  <defs
     id="defs1">
    <clipPath
       clipPathUnits="userSpaceOnUse"
       id="clipEmfPath1">
      <path
         d="M 0,0 V 0 44.955469 H 45.914615 V 0"
         id="path1" />
    </clipPath>
    <pattern
       id="EMFhbasepattern"
       patternUnits="userSpaceOnUse"
       width="6"
       height="6"
       x="0"
       y="0" />
  </defs>
  <path
     style="fill:#005073;fill-opacity:1;fill-rule:evenodd;stroke:none"
     clip-path="url(#clipEmfPath1)"
     d="m 11.503662,42.15201 v 0 c -2.6008281,2.603212 -6.5020699,2.603212 -9.1028978,0 -2.4007642,-2.402965 -2.60082788,-6.608154 0,-9.211366 2.6008279,-2.603212 6.7021334,-2.402965 9.1028978,0 2.70086,2.603212 2.70086,6.608154 0,9.211366 z m 0,0 v 0 0 z"
     id="path2" />
  <path
     style="fill:#005073;fill-opacity:1;fill-rule:evenodd;stroke:none"
     clip-path="url(#clipEmfPath1)"
     d="m 30.609744,37.446204 v 0 c 0.200063,-0.200247 0,-0.400495 0,-0.400495 v -0.400494 c 0,0 0.200063,-0.30037 0,-0.500617 C 29.909521,24.029649 20.1064,14.618037 7.8024837,14.618037 H 6.5020697 L 4.5014329,14.41779 c -2.4007642,0.200247 -4.40140106,2.202717 -4.40140106,4.405435 0,2.703336 2.00063686,4.605683 4.40140106,4.405436 l 3.3010508,0.200247 c 7.9025153,0 14.0044583,6.107536 14.0044583,14.117419 l 0.200063,2.402965 c 0,2.202718 2.000637,4.105065 4.201338,4.105065 1.300414,0 2.2007,-0.400494 3.100987,-1.301606 0.800254,-0.901112 1.300414,-1.7021 1.300414,-3.10383 z m 0,0 v 0 0 z"
     id="path3" />
  <path
     style="fill:#005073;fill-opacity:1;fill-rule:evenodd;stroke:none"
     clip-path="url(#clipEmfPath1)"
     d="m 45.114361,39.749045 v 0 l 0.200063,-2.002471 v -1.7021 c -0.200063,-0.200247 0,-0.500618 -0.200063,-0.700865 C 43.813947,15.619272 27.808852,0 7.8024837,-0.10012354 H 3.9012418 C 1.7005413,-0.10012354 0,1.5018531 0,3.7045709 0,5.9072888 1.7005413,7.7095125 3.9012418,7.7095125 H 7.8024837 C 23.807578,7.9097596 36.811718,20.92582 37.211845,36.645215 v 3.10383 c 0,2.202718 1.800573,3.904818 4.001274,3.904818 2.2007,0 3.901242,-1.7021 3.901242,-3.904818 z m 0,0 v 0 0 z"
     id="path4" />
</svg>
