<?xml version="1.0" encoding="UTF-8" standalone="no"?>
<svg
   version="1.0"
   width="100"
   height="100"
   id="svg4"
   xmlns="http://www.w3.org/2000/svg"
   xmlns:svg="http://www.w3.org/2000/svg" viewBox="-0.00 -0.00 16.24 16.24">
  <defs
     id="defs1">
    <pattern
       id="EMFhbasepattern"
       patternUnits="userSpaceOnUse"
       width="6"
       height="6"
       x="0"
       y="0" />
  </defs>
  <path
     style="fill:#ffffff;fill-opacity:1;fill-rule:nonzero;stroke:none"
     d="m 15.441776,8.1618293 c 0,3.9999707 -3.279976,7.2799467 -7.2799467,7.2799467 v 0 c -4.0799698,0 -7.35994554,-3.279976 -7.35994554,-7.2799467 v 0 c 0,-4.0799698 3.27997574,-7.35994554 7.35994554,-7.35994554 v 0 c 3.9999707,0 7.2799467,3.27997574 7.2799467,7.35994554 z"
     id="path1" />
  <path
     style="fill:#005073;fill-opacity:1;fill-rule:nonzero;stroke:none"
     d="M 8.1618293,16.24177 C 0.88188317,16.24177 -2.7180902,7.521834 2.4018719,2.4018719 7.521834,-2.7180902 16.24177,0.88188317 16.24177,8.1618293 c 0,4.4799667 -3.599974,8.0799407 -8.0799407,8.0799407 z m 0,-15.199888 c -6.3999526,-0.0799994 -9.5999289,7.6799431 -5.1199621,12.15991 4.5599662,4.479967 12.2399098,1.279991 12.2399098,-5.0399627 0,-3.919971 -3.199976,-7.1199473 -7.1199477,-7.1199473 z"
     id="path2" />
  <path
     style="fill:#005073;fill-opacity:1;fill-rule:nonzero;stroke:none"
     d="M 6.3218429,7.121837 V 5.4418494 c 0,-1.0399923 0.7999941,-1.9199858 1.9199858,-1.9999852 1.0399923,0.079999 1.9199863,0.9599929 1.8399863,1.9999852 V 7.121837 h 0.639996 V 5.4418494 c 0,-1.3599899 -1.1199924,-2.559981 -2.4799823,-2.559981 -1.4399894,0 -2.5599811,1.1999911 -2.4799817,2.559981 V 7.121837 H 4.1618589 v 5.199962 H 12.241799 V 7.121837 Z"
     id="path3" />
  <path
     style="fill:#ffffff;fill-opacity:1;fill-rule:nonzero;stroke:none"
     d="m 8.7218251,9.1218221 c 0.079999,-0.5599958 -1.1199917,-0.5599958 -0.9599929,0 -0.079999,0.2399983 0.079999,0.4799965 0.3199976,0.5599959 v 1.199991 H 8.4018275 V 9.681818 C 8.6418257,9.6018186 8.7218251,9.3618204 8.7218251,9.1218221 Z"
     id="path4" />
</svg>
