<?xml version="1.0" encoding="UTF-8" standalone="no"?>
<svg
   version="1.0"
   width="100"
   height="100"
   id="svg9"
   xmlns="http://www.w3.org/2000/svg"
   xmlns:svg="http://www.w3.org/2000/svg" viewBox="-11.96 -0.00 50.80 50.80">
  <defs
     id="defs1">
    <pattern
       id="EMFhbasepattern"
       patternUnits="userSpaceOnUse"
       width="6"
       height="6"
       x="0"
       y="0" />
  </defs>
  <path
     style="fill:#fafafa;fill-opacity:1;fill-rule:nonzero;stroke:none"
     d="M 1.5999881,12.399908 H 25.199813 c 0.719995,0 1.279991,0.559996 1.279991,1.199991 v 7.999941 c 0,0.719995 -0.559996,1.279991 -1.279991,1.279991 H 1.5999881 c -0.71999462,0 -1.27999047,-0.559996 -1.27999047,-1.279991 v -7.999941 c 0,-0.639995 0.55999585,-1.199991 1.27999047,-1.199991 z"
     id="path1" />
  <path
     style="fill:#005073;fill-opacity:1;fill-rule:nonzero;stroke:none"
     d="m 25.199813,12.639906 c 0.559996,0 1.039993,0.399997 1.039993,0.959993 v 7.999941 c 0,0.559996 -0.479997,1.039992 -1.039993,1.039992 H 1.5999881 c -0.5599958,0 -1.03999225,-0.479996 -1.03999225,-1.039992 v -7.999941 c 0,-0.559996 0.47999645,-0.959993 1.03999225,-0.959993 H 25.199813 m 0,-0.559995 H 1.5999881 c -0.87999343,0 -1.51998869,0.719994 -1.51998869,1.519988 v 7.999941 c 0,0.879993 0.63999526,1.519989 1.51998869,1.519989 H 25.199813 c 0.879994,0 1.519989,-0.639996 1.519989,-1.519989 v -7.999941 c 0,-0.799994 -0.639995,-1.519988 -1.519989,-1.519988 z"
     id="path2" />
  <path
     style="fill:#005073;fill-opacity:1;fill-rule:nonzero;stroke:none"
     d="m 21.759839,16.079881 v -1.999985 h -3.919971 v 0.879993 H 9.039933 V 14.079896 H 5.1199621 v 1.999985 H 9.039933 v 0 l 3.839972,1.599988 -3.839972,1.519989 v -0.08 H 5.1199621 v 1.999986 H 9.039933 v -0.799995 h 8.799935 v 0.799995 h 3.919971 v -1.999986 h -3.919971 v 0.08 l -3.999971,-1.599988 3.999971,-1.599989 v 0.08 z M 9.039933,15.279887 h 8.799935 v 0.319997 l -4.479967,1.839987 -4.319968,-1.759987 z m 8.799935,4.719965 H 9.039933 v -0.399997 l 4.319968,-1.759987 4.479967,1.839986 z"
     id="path3" />
  <path
     style="fill:#fafafa;fill-opacity:1;fill-rule:nonzero;stroke:none"
     d="M 1.6799876,0.23999822 H 25.359812 c 0.719995,0 1.279991,0.55999585 1.279991,1.27999048 v 7.9999408 c 0,0.6399955 -0.559996,1.1999915 -1.279991,1.1999915 H 1.6799876 c -0.6399953,0 -1.19999116,-0.559996 -1.19999116,-1.1999915 V 1.5199887 c 0,-0.71999463 0.55999586,-1.27999048 1.19999116,-1.27999048 z"
     id="path4" />
  <path
     style="fill:#005073;fill-opacity:1;fill-rule:nonzero;stroke:none"
     d="m 25.359812,0.47999644 c 0.559996,0 1.039992,0.47999645 1.039992,1.03999226 v 7.9999408 c 0,0.5599955 -0.479996,0.9599925 -1.039992,0.9599925 H 1.6799876 c -0.5599959,0 -0.95999293,-0.399997 -0.95999293,-0.9599925 V 1.5199887 c 0,-0.55999581 0.39999703,-1.03999226 0.95999293,-1.03999226 z M 25.359812,0 H 1.6799876 C 0.87999348,0 0.23999822,0.63999526 0.23999822,1.5199887 v 7.9999408 c 0,0.7999945 0.63999526,1.5199885 1.43998938,1.5199885 H 25.359812 c 0.799994,0 1.519989,-0.719994 1.519989,-1.5199885 V 1.5199887 C 26.879801,0.63999526 26.159806,0 25.359812,0 Z"
     id="path5" />
  <path
     style="fill:#005073;fill-opacity:1;fill-rule:nonzero;stroke:none"
     d="M 21.839838,3.9999704 V 1.9999852 H 17.999867 V 2.7999793 H 9.1199324 V 1.9999852 H 5.1999615 v 1.9999852 h 3.9199709 v 0 L 13.039903,5.5199591 9.1199324,7.0399479 v 0 H 5.1999615 V 9.039933 H 9.1199324 V 8.1599396 H 17.999867 V 9.039933 h 3.919971 V 7.0399479 h -3.919971 v 0.079999 L 13.999896,5.5199591 17.999867,3.919971 V 3.99997 Z M 9.1199324,3.1999763 H 17.999867 V 3.5199739 L 13.5199,5.2799609 9.1199324,3.5999733 Z M 17.999867,7.8399419 H 9.1199324 V 7.4399449 L 13.4399,5.6799579 17.999867,7.5199443 Z"
     id="path6" />
  <path
     style="fill:#fafafa;fill-opacity:1;fill-rule:nonzero;stroke:none"
     d="M 1.5199887,24.399819 H 25.119814 c 0.719995,0 1.27999,0.559996 1.27999,1.279991 v 23.599825 c 0,0.719995 -0.559995,1.27999 -1.27999,1.27999 H 1.5199887 c -0.71999463,0 -1.27999048,-0.559995 -1.27999048,-1.27999 V 25.67981 c 0,-0.719995 0.55999585,-1.279991 1.27999048,-1.279991 z"
     id="path7" />
  <path
     style="fill:#005073;fill-opacity:1;fill-rule:nonzero;stroke:none"
     d="m 25.119814,24.639817 c 0.559996,0 1.039992,0.479997 1.039992,1.039993 v 23.599825 c 0,0.559996 -0.479996,1.039992 -1.039992,1.039992 H 1.5199887 c -0.55999581,0 -1.03999226,-0.479996 -1.03999226,-1.039992 V 25.67981 c 0,-0.559996 0.47999645,-1.039993 1.03999226,-1.039993 z m 0,-0.479996 H 1.5199887 C 0.63999526,24.159821 0,24.799816 0,25.67981 v 23.599825 c 0,0.879993 0.63999526,1.519989 1.5199887,1.519989 H 25.119814 c 0.879993,0 1.519989,-0.639996 1.519989,-1.519989 V 25.67981 c 0,-0.879994 -0.639996,-1.519989 -1.519989,-1.519989 z"
     id="path8" />
  <path
     style="fill:#005073;fill-opacity:1;fill-rule:nonzero;stroke:none"
     d="m 19.599855,42.719684 -2.639981,-2.71998 c 0.319998,-0.559996 0.559996,-1.199991 0.719995,-1.839987 h 3.359975 v 1.519989 l 3.439975,-2.239983 -3.439975,-2.319983 v 1.599988 H 17.679869 C 17.51987,36.079733 17.279872,35.439737 16.879875,34.879742 l 2.71998,-2.71998 1.119992,1.119991 0.799994,-3.99997 -3.999971,0.799994 1.119992,1.119992 -2.71998,2.71998 C 15.359886,33.519752 14.719891,33.279753 14.079896,33.199754 V 29.75978 h 1.519988 l -2.239983,-3.359976 -2.319983,3.359976 h 1.519989 v 3.359975 c -0.639995,0.159998 -1.279991,0.399997 -1.759987,0.719994 l -2.7199799,-2.71998 1.1199918,-1.039992 -3.9999704,-0.799994 0.7999941,3.919971 1.1199917,-1.039992 2.6399804,2.71998 C 9.3599307,35.439737 9.1199324,36.079733 9.039933,36.719728 H 5.5999585 V 35.11974 L 2.159984,37.439723 5.5999585,39.759705 V 38.159717 H 9.039933 c 0.079999,0.639996 0.3199977,1.279991 0.7199947,1.839987 l -2.7199798,2.71998 -1.0399923,-1.119992 -0.7999941,3.99997 3.9999704,-0.799994 -1.1199918,-1.039992 2.7199799,-2.71998 c 0.479996,0.399997 1.119992,0.639995 1.759987,0.799994 v 3.359975 h -1.519989 l 2.239984,3.439975 2.239983,-3.439975 H 14.079896 V 41.83969 c 0.639995,-0.159999 1.27999,-0.399997 1.839986,-0.799994 l 2.639981,2.71998 -1.039993,1.039992 3.999971,0.879994 -0.879994,-3.999971 z"
     id="path9" />
</svg>
