<?xml version="1.0" encoding="UTF-8" standalone="no"?>
<svg
   version="1.0"
   width="100"
   height="100"
   id="svg11"
   xmlns="http://www.w3.org/2000/svg"
   xmlns:svg="http://www.w3.org/2000/svg" viewBox="-0.00 -0.68 25.68 25.68">
  <defs
     id="defs1">
    <pattern
       id="EMFhbasepattern"
       patternUnits="userSpaceOnUse"
       width="6"
       height="6"
       x="0"
       y="0" />
  </defs>
  <path
     style="fill:#fafafa;fill-opacity:1;fill-rule:nonzero;stroke:none"
     d="M 1.9999852,0.23999822 H 23.679825 c 0.959992,0 1.679987,0.79999408 1.679987,1.75998698 V 22.319835 c 0,0.959993 -0.719995,1.759987 -1.679987,1.759987 H 1.9999852 c -0.9599929,0 -1.75998698,-0.799994 -1.75998698,-1.759987 V 1.9999852 c 0,-0.9599929 0.79999408,-1.75998698 1.75998698,-1.75998698 z"
     id="path1" />
  <path
     style="fill:#005073;fill-opacity:1;fill-rule:nonzero;stroke:none"
     d="m 23.679825,0.47999644 c 0.799994,0 1.439989,0.71999466 1.439989,1.51998876 V 22.319835 c 0,0.799994 -0.639995,1.519988 -1.439989,1.519988 H 1.9999852 c -0.7999941,0 -1.51998876,-0.719994 -1.51998876,-1.519988 V 1.9999852 c 0,-0.7999941 0.71999466,-1.51998876 1.51998876,-1.51998876 z M 23.679825,0 H 1.9999852 C 0.87999348,0 0,0.87999348 0,1.9999852 V 22.319835 c 0,1.119991 0.87999348,1.999985 1.9999852,1.999985 H 23.679825 c 1.039992,0 1.999985,-0.879994 1.999985,-1.999985 V 1.9999852 C 25.67981,0.87999348 24.719817,0 23.679825,0 Z"
     id="path2" />
  <path
     style="fill:#005073;fill-opacity:1;fill-rule:nonzero;stroke:none"
     d="M 5.1999615,12.959904 H 10.159925 V 11.519915 H 5.1999615 V 9.9999259 l -3.3599751,2.2399831 3.3599751,2.239984 z"
     id="path3" />
  <path
     style="fill:#005073;fill-opacity:1;fill-rule:nonzero;stroke:none"
     d="M 23.839823,12.239909 20.479848,9.9999259 v 1.5199891 h -5.039962 v 1.439989 h 5.039962 v 1.519989 z"
     id="path4" />
  <path
     style="fill:#005073;fill-opacity:1;fill-rule:nonzero;stroke:none"
     d="M 6.6399508,7.0399479 10.159925,10.559922 11.199917,9.5999289 7.6799431,5.9999556 8.7999348,4.9599633 4.7999644,4.1599692 5.5999585,8.1599396 Z"
     id="path5" />
  <path
     style="fill:#005073;fill-opacity:1;fill-rule:nonzero;stroke:none"
     d="m 19.039859,17.359871 -3.599973,-3.519974 -0.959993,1.039993 3.519974,3.519974 -1.119992,1.119991 3.99997,0.799994 -0.799994,-3.99997 z"
     id="path6" />
  <path
     style="fill:#005073;fill-opacity:1;fill-rule:nonzero;stroke:none"
     d="m 14.479893,9.5999289 0.959993,0.9599931 3.599973,-3.5199741 1.039992,1.1199917 0.799994,-3.9999704 -3.99997,0.7999941 1.119992,1.0399923 z"
     id="path7" />
  <path
     style="fill:#005073;fill-opacity:1;fill-rule:nonzero;stroke:none"
     d="m 13.5199,14.87989 h -1.439989 v 4.959963 h -1.519989 l 2.239983,3.359975 2.239984,-3.359975 H 13.5199 Z"
     id="path8" />
  <path
     style="fill:#005073;fill-opacity:1;fill-rule:nonzero;stroke:none"
     d="M 12.079911,9.6799283 H 13.5199 V 4.6399656 h 1.519989 L 12.799905,1.2799905 10.559922,4.6399656 h 1.519989 z"
     id="path9" />
  <path
     style="fill:#005073;fill-opacity:1;fill-rule:nonzero;stroke:none"
     d="M 11.199917,14.87989 10.159925,13.839897 6.6399508,17.359871 5.5999585,16.319879 4.7999644,20.319849 8.7999348,19.519855 7.6799431,18.399864 Z"
     id="path10" />
  <path
     style="fill:#e6a9ab;fill-opacity:1;fill-rule:nonzero;stroke:none"
     d="m 8.4799372,12.239909 c 0,-3.8399712 4.7199648,-5.759957 7.4399448,-3.0399771 2.71998,2.7199801 0.799994,7.3599451 -3.119977,7.3599451 -2.399982,0 -4.3199678,-1.919985 -4.3199678,-4.319968 z"
     id="path11" />
</svg>
