<svg width="179" height="179" viewBox="0 0 179 179" fill="none" xmlns="http://www.w3.org/2000/svg">
<mask id="mask0_30_145" style="mask-type:luminance" maskUnits="userSpaceOnUse" x="0" y="26" width="179" height="128">
<path d="M179 26H0V154H179V26Z" fill="white"/>
</mask>
<g mask="url(#mask0_30_145)">
<mask id="mask1_30_145" style="mask-type:luminance" maskUnits="userSpaceOnUse" x="0" y="26" width="179" height="128">
<path d="M179 26H0V154H179V26Z" fill="white"/>
</mask>
<g mask="url(#mask1_30_145)">
<path fill-rule="evenodd" clip-rule="evenodd" d="M149.259 32C30.741 32 30.741 32 30.741 32C27.185 32 26 34.384 26 37.959C26 39.151 26 39.151 26 39.151C26 114.233 26 114.233 26 114.233C26 116.616 27.185 119 30.741 119C31.926 119 31.926 119 31.926 119C146.889 119 146.889 119 146.889 119C149.259 119 149.259 119 149.259 119C151.63 119 154 116.616 154 114.233C154 39.151 154 39.151 154 39.151C154 37.959 154 37.959 154 37.959C154 34.384 151.63 32 149.259 32Z" fill="#FAFAFA"/>
<path fill-rule="evenodd" clip-rule="evenodd" d="M153.79 122.192C152.601 122.192 151.413 121 149.035 121C28.965 121 28.965 121 28.965 121C27.776 121 25.398 122.192 24.21 122.192C4.00002 142.461 4 142.461 4 142.461C4 146.038 4 146.038 4 146.038C4 146.038 3.99997 152 9.94397 152C169.245 152 169.245 152 169.245 152C174 152 174 146.038 174 146.038C174 142.461 174 142.461 174 142.461L153.79 122.192Z" fill="#FAFAFA"/>
<path fill-rule="evenodd" clip-rule="evenodd" d="M67.535 134H111.465L115 140H64L67.535 134Z" fill="#FAFAFA"/>
<path fill-rule="evenodd" clip-rule="evenodd" d="M102 145C102 145 100.8 146 99.6 146C79.2 146 79.2 146 79.2 146C78 146 78 145 78 145C78 143 78 143 78 143C102 143 102 143 102 143V145Z" fill="#FAFAFA"/>
<path fill-rule="evenodd" clip-rule="evenodd" d="M149.259 32C30.741 32 30.741 32 30.741 32C27.185 32 26 34.384 26 37.959C26 39.151 26 39.151 26 39.151C26 114.233 26 114.233 26 114.233C26 116.616 27.185 119 30.741 119C31.926 119 31.926 119 31.926 119C146.889 119 146.889 119 146.889 119C149.259 119 149.259 119 149.259 119C151.63 119 154 116.616 154 114.233C154 39.151 154 39.151 154 39.151C154 37.959 154 37.959 154 37.959C154 34.384 151.63 32 149.259 32Z" fill="white"/>
<path fill-rule="evenodd" clip-rule="evenodd" d="M153.79 122.192C152.601 122.192 151.413 121 149.035 121C28.965 121 28.965 121 28.965 121C27.776 121 25.398 122.192 24.21 122.192C4.00002 142.461 4 142.461 4 142.461C4 146.038 4 146.038 4 146.038C4 146.038 3.99997 152 9.94397 152C169.245 152 169.245 152 169.245 152C174 152 174 146.038 174 146.038C174 142.461 174 142.461 174 142.461L153.79 122.192Z" fill="white"/>
<path fill-rule="evenodd" clip-rule="evenodd" d="M67.535 134H111.465L115 140H64L67.535 134Z" fill="#005073"/>
<path fill-rule="evenodd" clip-rule="evenodd" d="M102 145C102 145 100.8 146 99.6 146C79.2 146 79.2 146 79.2 146C78 146 78 145 78 145C78 143 78 143 78 143C102 143 102 143 102 143V145Z" fill="#005073"/>
<path fill-rule="evenodd" clip-rule="evenodd" d="M149.821 31.389C152.214 31.389 154.607 33.779 154.607 37.364C154.607 38.558 154.607 38.558 154.607 38.558C154.607 113.831 154.607 113.831 154.607 113.831C154.607 116.221 152.214 118.61 149.821 118.61C147.428 118.61 147.428 118.61 147.428 118.61C31.375 118.61 31.375 118.61 31.375 118.61C30.179 118.61 30.179 118.61 30.179 118.61C26.589 118.61 25.393 116.221 25.393 113.831C25.393 38.558 25.393 38.558 25.393 38.558C25.393 37.364 25.393 37.364 25.393 37.364C25.393 33.779 26.589 31.389 30.179 31.389C149.821 31.389 149.821 31.389 149.821 31.389ZM149.821 29C30.179 29 30.179 29 30.179 29C25.393 29 23 32.584 23 37.364C23 38.558 23 38.558 23 38.558C23 113.831 23 113.831 23 113.831C23 117.416 25.393 121 30.179 121C31.375 121 31.375 121 31.375 121C147.428 121 147.428 121 147.428 121C149.821 121 149.821 121 149.821 121C153.411 121 157 117.416 157 113.831C157 38.558 157 38.558 157 38.558C157 37.364 157 37.364 157 37.364C157 32.584 153.411 29 149.821 29Z" fill="#005073"/>
<path fill-rule="evenodd" clip-rule="evenodd" d="M149.619 121.333C152 121.333 153.191 122.5 154.381 122.5C174.619 142.333 174.619 142.333 174.619 142.333C174.619 145.833 174.619 145.833 174.619 145.833C174.619 145.833 174.619 151.667 169.857 151.667C10.333 151.667 10.333 151.667 10.333 151.667C4.38101 151.667 4.38098 145.833 4.38098 145.833C4.38098 142.333 4.38098 142.333 4.38098 142.333C24.619 122.5 24.619 122.5 24.619 122.5C25.809 122.5 28.19 121.333 29.381 121.333C149.619 121.333 149.619 121.333 149.619 121.333ZM149.619 119C29.381 119 29.381 119 29.381 119C27 119 24.619 120.167 23.428 121.333C3.18998 141.167 3.19 141.167 3.19 141.167C2 141.167 2 141.167 2 141.167C2 142.333 2 142.333 2 142.333C2 145.833 2 145.833 2 145.833C2 149.333 4.38101 154 10.333 154C169.857 154 169.857 154 169.857 154C174.619 154 177 149.333 177 145.833C177 142.333 177 142.333 177 142.333C177 141.167 177 141.167 177 141.167C175.81 141.167 175.81 141.167 175.81 141.167C156.762 121.333 156.762 121.333 156.762 121.333C154.381 120.167 152 119 149.619 119Z" fill="#005073"/>
<path fill-rule="evenodd" clip-rule="evenodd" d="M111.429 134.5L114.958 140.5H64.034L67.563 134.5H111.429ZM113.95 132H111.429H67.563H66.05L65.042 133.5L61.513 139.5L60 143H64.034H114.958H120L117.479 139.5L113.95 133.5V132Z" fill="#005073"/>
<path fill-rule="evenodd" clip-rule="evenodd" d="M101.667 142.571C101.667 145.143 101.667 145.143 101.667 145.143C101.667 145.143 100.5 146.428 99.333 146.428C79.5 146.428 79.5 146.428 79.5 146.428C78.333 146.428 78.333 145.143 78.333 145.143C78.333 142.571 78.333 142.571 78.333 142.571C101.667 142.571 101.667 142.571 101.667 142.571ZM104 140C101.667 140 101.667 140 101.667 140C78.333 140 78.333 140 78.333 140C76 140 76 140 76 140C76 142.571 76 142.571 76 142.571C76 145.143 76 145.143 76 145.143C76 147.714 77.167 149 79.5 149C99.333 149 99.333 149 99.333 149C101.667 149 104 147.714 104 145.143C104 142.571 104 142.571 104 142.571V140Z" fill="#005073"/>
<path d="M147 39H32V111H147V39Z" fill="#005073"/>
</g>
</g>
</svg>
