<?xml version="1.0" encoding="UTF-8" standalone="no"?>
<svg
   version="1.0"
   width="100"
   height="100"
   id="svg8"
   xmlns="http://www.w3.org/2000/svg"
   xmlns:svg="http://www.w3.org/2000/svg" viewBox="-0.00 -0.00 28.63 28.63">
  <defs
     id="defs1">
    <clipPath
       clipPathUnits="userSpaceOnUse"
       id="clipEmfPath1">
      <path
         d="m 16.399879,0.47999644 c 12.319908,0 18.479863,14.87988956 9.759927,23.59982556 -8.639936,8.639936 -23.5198256,2.479981 -23.5198256,-9.759928 0,-7.6799432 6.1599544,-13.83989756 13.7598986,-13.83989756 z"
         id="path1" />
    </clipPath>
    <pattern
       id="EMFhbasepattern"
       patternUnits="userSpaceOnUse"
       width="6"
       height="6"
       x="0"
       y="0" />
  </defs>
  <path
     style="fill:#fafafa;fill-opacity:1;fill-rule:nonzero;stroke:none"
     d="M 14.314481,28.31979 C 1.8345732,28.31979 -4.4053806,13.279902 4.4745536,4.4799668 13.274488,-4.3999674 28.314377,1.8399864 28.314377,14.319894 c 0,7.759942 -6.239954,13.999896 -13.999896,13.999896 z"
     id="path2" />
  <path
     style="fill:#005073;fill-opacity:1;fill-rule:nonzero;stroke:none"
     d="m 14.314481,0.47999644 c 12.319908,0 18.479863,14.87988956 9.759927,23.59982556 C 15.434472,32.719758 0.55458262,26.559803 0.55458262,14.319894 0.55458262,6.6399508 6.714537,0.47999644 14.314481,0.47999644 Z M 14.314481,0 C 1.5945749,0 -4.8053777,15.359886 4.2345554,24.399819 13.274488,33.439752 28.634374,27.0398 28.634374,14.319894 28.634374,6.3999526 22.234422,0 14.314481,0 Z"
     id="path3" />
  <path
     style="fill:#99b9c7;fill-opacity:1;fill-rule:nonzero;stroke:none"
     clip-path="url(#clipEmfPath1)"
     d="M 32.879756,3.5999733 V 2.6399804 H 0 v 0.9599929 h 9.7599277 v 3.519974 H 0 V 8.0799401 H 3.4399745 V 11.519915 H 0 v 1.039992 h 9.7599277 v 3.439974 H 0 v 1.039993 h 3.4399745 v 3.439974 H 0 v 0.959993 h 9.7599277 v 3.599974 H 0 v 0.959992 h 32.879756 v -0.959992 h -9.35993 v -3.519974 h 9.35993 v -1.039993 h -2.959978 v -3.439974 h 2.959978 v -1.039993 h -9.35993 v -3.439974 h 9.35993 V 11.519915 H 29.919778 V 8.0799401 h 2.959978 V 7.1199473 h -9.35993 V 3.5999733 Z M 4.3999674,20.479848 V 17.039874 H 16.15988 v 3.439974 z M 22.559833,25.039815 H 10.79992 v -3.519974 h 11.759913 z m 6.319953,-4.479967 H 17.199873 V 17.039874 H 28.879786 Z M 4.3999674,11.519915 V 8.0799401 H 16.15988 v 3.4399749 z m 18.1598656,1.039992 v 3.439974 H 10.79992 v -3.439974 z m 6.319953,-1.039992 H 17.199873 V 8.0799401 H 28.879786 Z M 10.79992,7.1199473 v -3.519974 h 11.759913 v 3.519974 z"
     id="path4"
     transform="translate(-2.0853978)" />
  <path
     style="fill:#005073;fill-opacity:1;fill-rule:nonzero;stroke:none"
     d="m 15.594471,15.599884 1.119992,5.359961 1.439989,-1.43999 3.519974,3.519974 1.439989,-1.35999 -3.599973,-3.519974 1.439989,-1.519988 z"
     id="path5" />
  <path
     style="fill:#005073;fill-opacity:1;fill-rule:nonzero;stroke:none"
     d="M 13.114489,13.039903 7.6745299,11.919912 9.1945182,10.479922 5.5945453,6.879949 6.9545352,5.5199591 10.554508,9.1199324 11.994498,7.5999437 Z"
     id="path6" />
  <path
     style="fill:#005073;fill-opacity:1;fill-rule:nonzero;stroke:none"
     d="M 22.314421,6.2399538 21.274429,11.599914 19.83444,10.159925 16.234466,13.679899 14.874476,12.319909 18.39445,8.7999348 16.954461,7.2799461 Z"
     id="path7" />
  <path
     style="fill:#005073;fill-opacity:1;fill-rule:nonzero;stroke:none"
     d="m 6.31454,22.399834 1.0399923,-5.43996 1.4399889,1.519989 3.5999738,-3.599973 1.35999,1.35999 -3.519974,3.599973 1.439989,1.439989 z"
     id="path8" />
</svg>
