<?xml version="1.0" encoding="UTF-8" standalone="no"?>
<svg
   version="1.0"
   width="100"
   height="100"
   id="svg11"
   xmlns="http://www.w3.org/2000/svg"
   xmlns:svg="http://www.w3.org/2000/svg" viewBox="-5.61 -0.00 26.41 26.41">
  <defs
     id="defs1">
    <pattern
       id="EMFhbasepattern"
       patternUnits="userSpaceOnUse"
       width="6"
       height="6"
       x="0"
       y="0" />
  </defs>
  <path
     style="fill:#ffffff;fill-opacity:1;fill-rule:nonzero;stroke:none"
     d="M 0.31999763,7.5260162 V 17.285944 H 14.87989 V 7.5260162 Z M 7.5999437,12.005983 c -1.1999911,0 -1.759987,-1.519989 -0.9599929,-2.3199828 0.8799935,-0.8799935 2.3199828,-0.2399982 2.3999822,0.9599928 0,0.719995 -0.6399952,1.35999 -1.4399893,1.35999 z"
     id="path1" />
  <path
     style="fill:#ffffff;fill-opacity:1;fill-rule:nonzero;stroke:none"
     d="M 0.31999763,6.2460257 V 1.60606 C 0.39999704,0.88606534 1.0399923,0.32606949 1.8399864,0.32606949 H 13.4399 c 0.719995,0 1.35999,0.55999585 1.43999,1.27999051 v 0 4.6399657 z"
     id="path2" />
  <path
     style="fill:#ffffff;fill-opacity:1;fill-rule:nonzero;stroke:none"
     d="M 0.31999763,21.605912 V 18.725933 H 14.87989 v 2.879979 z"
     id="path3" />
  <path
     style="fill:#ffffff;fill-opacity:1;fill-rule:nonzero;stroke:none"
     d="m 1.8399864,26.085879 c -0.7999941,0.08 -1.43998936,-0.559996 -1.51998877,-1.279991 v 0 -1.839986 H 14.87989 v 1.839986 c -0.08,0.719995 -0.719995,1.35999 -1.43999,1.279991 z"
     id="path4" />
  <path
     style="fill:#005073;fill-opacity:1;fill-rule:nonzero;stroke:none"
     d="M 15.199887,6.6460227 H 0 V 1.60606 C 0.07999941,0.64606712 0.87999348,-0.07392755 1.8399864,0.00607186 H 13.4399 C 14.319894,-0.07392755 15.119888,0.64606712 15.199887,1.60606 Z M 0.71999467,5.926028 H 14.479893 V 1.60606 c 0,-0.5599958 -0.479997,-0.95999288 -1.039993,-0.87999347 H 1.8399864 C 1.1999911,0.64606712 0.71999467,1.0460642 0.71999467,1.60606 Z"
     id="path5" />
  <path
     style="fill:#005073;fill-opacity:1;fill-rule:nonzero;stroke:none"
     d="M 15.199887,21.92591 H 0 V 18.325936 H 15.199887 Z M 0.71999467,21.205915 H 14.479893 V 19.045931 H 0.71999467 Z"
     id="path6" />
  <path
     style="fill:#005073;fill-opacity:1;fill-rule:nonzero;stroke:none"
     d="M 13.4399,26.405876 H 1.8399864 C 0.87999348,26.485876 0.07999941,25.765881 0,24.805888 v -2.239983 h 15.199887 v 2.239983 c -0.08,0.959993 -0.879993,1.679988 -1.759987,1.599988 z M 0.71999467,23.2859 v 1.519988 c 0,0.559996 0.47999643,0.959993 1.11999173,0.959993 H 13.4399 c 0.559996,0 1.039993,-0.399997 1.039993,-0.959993 V 23.2859 Z"
     id="path7" />
  <path
     style="fill:#005073;fill-opacity:1;fill-rule:nonzero;stroke:none"
     d="M 15.199887,17.605942 H 0 V 7.1260192 H 15.199887 Z M 0.71999467,16.885947 H 14.479893 V 7.9260132 H 0.71999467 Z"
     id="path8" />
  <path
     style="fill:#005073;fill-opacity:1;fill-rule:nonzero;stroke:none"
     d="m 7.5999437,9.0460049 c -1.4399893,0 -2.159984,1.6799881 -1.1199917,2.7199801 0.9599929,1.039992 2.7199799,0.319998 2.7199799,-1.119992 0,-0.8799934 -0.7199947,-1.5999881 -1.5999882,-1.5999881 z m 0,2.7199801 c -0.6399953,0 -1.1199917,-0.559996 -1.1199917,-1.119992 0,-0.559996 0.399997,-0.9599928 0.8799935,-1.1199916 v 1.1199916 c 0,0.319998 0.4799964,0.319998 0.4799964,0 V 9.5260014 c 0.4799965,0.1599988 0.8799935,0.5599956 0.8799935,1.1199916 0,0.559996 -0.4799964,1.119992 -1.1199917,1.119992 z"
     id="path9" />
  <path
     style="fill:#ffffff;fill-opacity:1;fill-rule:nonzero;stroke:none"
     d="m 7.5999437,11.685985 c -0.6399953,0 -1.1199917,-0.479996 -1.1199917,-1.119991 0,-0.479997 0.399997,-0.9599932 0.8799935,-1.0399926 v 1.1199916 c 0,0.319998 0.4799964,0.319998 0.4799964,0 V 9.5260014 c 0.4799965,0.079999 0.8799935,0.5599956 0.8799935,1.0399926 0,0.639995 -0.4799964,1.119991 -1.1199917,1.119991 z"
     id="path10" />
  <path
     style="fill:#005073;fill-opacity:1;fill-rule:nonzero;stroke:none"
     d="M 10.319924,16.085953 H 9.8399271 v -0.719995 c 0.1599988,-3.199976 -4.6399656,-3.199976 -4.3999674,0 v 0.719995 H 4.8799639 c -0.2399983,0 -0.3999971,0.159999 -0.3999971,0.319998 v 3.519973 c 0,0.239999 0.1599988,0.399997 0.3999971,0.399997 h 5.4399601 c 0.239998,0 0.399997,-0.159998 0.399997,-0.399997 v -3.519973 c 0,-0.159999 -0.159999,-0.319998 -0.399997,-0.319998 z M 6.1599544,15.285959 c 0,-0.879994 0.6399952,-1.519989 1.5199887,-1.519989 0.7999941,-0.08 1.4399893,0.639995 1.4399893,1.519989 v 0.799994 h -2.959978 z"
     id="path11" />
</svg>
