<?xml version="1.0" encoding="UTF-8" standalone="no"?>
<svg
   version="1.0"
   width="100"
   height="100"
   id="svg6"
   xmlns="http://www.w3.org/2000/svg"
   xmlns:svg="http://www.w3.org/2000/svg" viewBox="-2.32 -0.00 30.87 30.87">
  <defs
     id="defs1">
    <pattern
       id="EMFhbasepattern"
       patternUnits="userSpaceOnUse"
       width="6"
       height="6"
       x="0"
       y="0" />
  </defs>
  <path
     style="fill:#fafafa;fill-opacity:1;fill-rule:nonzero;stroke:none"
     d="M 13.109748,5.0399627 C 24.469664,4.9599633 30.149622,18.719861 22.149681,26.719802 14.14974,34.719743 0.38984224,29.039785 0.38984224,17.759868 c 0,-7.039947 5.67995796,-12.7999047 12.71990576,-12.7199053 z"
     id="path1" />
  <path
     style="fill:#005073;fill-opacity:1;fill-rule:nonzero;stroke:none"
     d="M 22.869676,8.8799342 V 5.0399627 c 0,-0.4799965 -0.319998,-0.7999941 -0.719995,-0.8799935 V 1.759987 h 0.239998 V 0 h -1.199991 v 1.759987 h 0.319998 v 2.3999822 c -0.479997,0.079999 -0.799994,0.4799964 -0.799994,0.8799935 v 1.9999852 c -4.479967,-3.3599752 -10.639922,-3.3599752 -15.1998877,0 V 5.0399627 c 0,-0.4799965 -0.3199976,-0.7999941 -0.7199947,-0.8799935 V 1.759987 H 5.0298079 V 0 H 3.9098162 V 1.759987 H 4.1498144 V 4.1599692 C 3.7498173,4.2399686 3.4298197,4.5599662 3.4298197,5.0399627 V 8.8799342 C -2.8101341,15.759883 -0.17015361,26.639803 8.389783,29.999778 c 8.639936,3.279975 17.919867,-3.119977 17.839868,-12.319909 0,-3.279976 -1.199991,-6.399953 -3.359975,-8.7999348 z M 13.109748,30.159777 C 2.2298286,30.079777 -3.3701299,17.039874 4.1498144,9.1199324 L 5.5098043,7.8399419 c 4.4799668,-3.5199739 10.7199207,-3.5199739 15.1998877,0 l 1.439989,1.2799905 c 7.599944,7.9199416 1.919986,21.0398446 -9.039933,21.0398446 z"
     id="path2" />
  <path
     style="fill:#005073;fill-opacity:1;fill-rule:nonzero;stroke:none"
     d="m 14.549737,19.199858 1.119992,5.439959 1.439989,-1.519988 3.599974,3.599973 1.359989,-1.35999 -3.599973,-3.599973 1.519989,-1.43999 z"
     id="path3" />
  <path
     style="fill:#005073;fill-opacity:1;fill-rule:nonzero;stroke:none"
     d="M 11.669758,16.319879 6.3097984,15.279887 7.7497877,13.759898 4.2298138,10.239924 5.5898037,8.8799342 9.1097776,12.399908 10.629766,10.959919 Z"
     id="path4" />
  <path
     style="fill:#005073;fill-opacity:1;fill-rule:nonzero;stroke:none"
     d="m 21.109689,9.8399271 -1.119992,5.3599599 -1.439989,-1.439989 -3.599974,3.519974 -1.35999,-1.35999 3.599974,-3.519974 -1.519989,-1.519989 z"
     id="path5" />
  <path
     style="fill:#005073;fill-opacity:1;fill-rule:nonzero;stroke:none"
     d="m 5.1898067,25.759809 1.0399923,-5.43996 1.5199887,1.519989 3.5199733,-3.599973 1.35999,1.439989 -3.5199734,3.519974 1.4399894,1.439989 z"
     id="path6" />
</svg>
