<?xml version="1.0" encoding="UTF-8" standalone="no"?>
<svg
   version="1.0"
   width="100"
   height="100"
   id="svg24"
   xmlns="http://www.w3.org/2000/svg"
   xmlns:svg="http://www.w3.org/2000/svg" viewBox="-0.00 -4.44 35.52 35.52">
  <defs
     id="defs1">
    <pattern
       id="EMFhbasepattern"
       patternUnits="userSpaceOnUse"
       width="6"
       height="6"
       x="0"
       y="0" />
  </defs>
  <path
     style="fill:#fafafa;fill-opacity:1;fill-rule:nonzero;stroke:none"
     d="M 1.5199887,0.23999822 H 33.999748 c 0.639995,0 1.199991,0.55999585 1.199991,1.27999048 V 25.119814 c 0,0.719995 -0.559996,1.27999 -1.199991,1.27999 H 1.5199887 c -0.71999463,0 -1.27999048,-0.559995 -1.27999048,-1.27999 V 1.5199887 c 0,-0.71999463 0.55999585,-1.27999048 1.27999048,-1.27999048 z"
     id="path1" />
  <path
     style="fill:#005073;fill-opacity:1;fill-rule:nonzero;stroke:none"
     d="m 33.999748,0.47999644 c 0.559996,0 1.039992,0.47999645 1.039992,1.03999226 V 25.119814 c 0,0.559996 -0.479996,1.039992 -1.039992,1.039992 H 1.5199887 c -0.55999581,0 -1.03999226,-0.479996 -1.03999226,-1.039992 V 1.5199887 c 0,-0.55999581 0.47999645,-1.03999226 1.03999226,-1.03999226 z M 33.999748,0 H 1.5199887 C 0.63999526,0 0,0.63999526 0,1.5199887 V 25.119814 c 0,0.879993 0.63999526,1.519989 1.5199887,1.519989 H 33.999748 c 0.799994,0 1.519989,-0.639996 1.519989,-1.519989 V 1.5199887 C 35.519737,0.63999526 34.799742,0 33.999748,0 Z"
     id="path2" />
  <path
     style="fill:#005073;fill-opacity:1;fill-rule:nonzero;stroke:none"
     d="M 25.839809,6.879949 C 21.519841,2.559981 14.159895,3.9999704 11.839912,9.6799283 h 0.559996 c 0.399997,-0.9599929 0.959993,-1.759987 1.679988,-2.4799816 0.239998,-0.2399983 0.479996,-0.3999971 0.719994,-0.6399953 0,0.079999 0.08,0.1599988 0.08,0.1599988 0,0 -0.08,0.1599988 -0.08,0.1599988 0,0.079999 0,0.079999 0,0.079999 0,0.079999 -0.08,0.1599989 0,0.2399983 0.08,0.079999 0.159999,-0.079999 0.239999,0 0.08,0.079999 -0.08,0.1599988 -0.08,0.2399982 0,0.079999 0,0.1599988 0,0.2399982 0,0.079999 0,0.079999 0,0.1599988 0,0.079999 -0.08,0.079999 -0.08,0.1599988 0,0 0.159999,0.1599989 0.159999,0.2399983 0,0.079999 -0.08,0.1599988 -0.08,0.2399982 -0.08,0.1599988 -0.159999,0.2399982 -0.319997,0.399997 -0.08,0.079999 -0.159999,0.2399982 -0.239999,0.3199977 0,0.079999 0,0.1599988 -0.08,0.2399982 -0.08,0 -0.159999,0.079999 -0.239998,0.2399982 v 0 h 6.959948 v 0.9599931 c 0.08,-0.08 0.239998,-0.159999 0.319998,-0.239998 0,-0.08 0,-0.239998 0,-0.3999975 h 0.159999 c 0,0 0.08,-0.079999 0.159998,-0.1599988 0,-0.079999 0.08,0 0.08,-0.079999 0.08,-0.079999 0.159999,-0.1599988 0.239998,-0.1599988 h 0.08 c 0.08,0 0.159999,-0.079999 0.239999,-0.1599988 0.08,0 0.159998,0 0.239998,0 0,-0.079999 0,-0.1599988 0,-0.1599988 0,-0.2399983 0.319998,-0.2399983 0.479996,-0.3199977 0.159999,-0.079999 0.319998,-0.1599988 0.399997,-0.1599988 0,0.1599988 -0.159998,0.079999 -0.08,0.2399982 0,0.079999 0.239998,0 0.319998,-0.079999 0,-0.079999 0.239998,-0.079999 0.399997,-0.1599988 0.159998,-0.079999 0.399997,-0.079999 0.239998,-0.2399982 -0.08,0 -0.159999,0.079999 -0.239998,0.1599988 -0.08,0 0,-0.079999 -0.08,-0.079999 -0.08,0 -0.08,0.079999 -0.159999,0 0,0 -0.08,-0.079999 -0.08,-0.1599988 0,-0.1599988 0.08,-0.2399982 0.159999,-0.3199976 0.08,-0.1599989 -0.239998,0 -0.319998,-0.079999 -0.159999,-0.079999 0.08,-0.1599988 0.159999,-0.1599988 0.159999,0 0.239998,0 0.319998,0 v 0.079999 c 0.08,0.079999 0.159998,0.079999 0.159998,0 0,-0.079999 -0.159998,-0.079999 -0.08,-0.079999 0,-0.079999 0.319998,0 0.479996,0 0.08,0 0.239999,0 0.399998,-0.079999 0,0 0.159998,-0.079999 0.239998,0 0.08,0.1599988 -0.08,0.1599988 -0.159999,0.1599988 -0.159999,0.079999 -0.239998,0.2399983 -0.399997,0.3999971 0.08,0.079999 0.239998,0 0.319998,0.079999 h 0.159998 0.159999 c 0.08,0 0.08,0.079999 0.159999,0.079999 0.08,0 0.159999,-0.1599988 0.08,-0.2399982 -0.08,-0.079999 0.08,-0.079999 0,-0.1599988 -0.08,-0.079999 -0.319997,0 -0.319997,-0.1599989 0,-0.1599988 0.08,-0.079999 0.159999,-0.1599988 0,-0.079999 0.159998,-0.1599988 0.08,-0.3199976 0,-0.1599988 0,-0.079999 -0.08,-0.1599988 -0.08,-0.079999 0,-0.079999 -0.08,-0.079999 -0.08,-0.079999 -0.319997,-0.079999 -0.319997,-0.2399982 0,-0.1599989 0,-0.1599989 0,-0.1599989 l 0.399997,0.3199977 c 2.63998,2.6399804 3.119976,6.71995 1.199991,9.839927 -0.08,0 -0.08,0 -0.159999,0 h -0.159999 c -0.08,0 -0.239998,-0.08 -0.319998,-0.08 -0.08,0 -0.159998,0 -0.159998,0 -0.08,0 -0.08,-0.159998 -0.159999,-0.159998 l -0.159999,-0.08 c -0.08,-0.08 -0.159999,-0.08 -0.239998,-0.08 -0.08,0 -0.08,0 -0.159999,0 0,0 -0.08,-0.08 -0.159999,-0.159999 0,0 -0.08,0 -0.08,-0.08 -0.08,-0.08 -0.159999,-0.239999 -0.159999,-0.399998 -0.08,-0.08 0,-0.08 0,-0.159998 0,0 -0.08,-0.08 -0.159999,-0.159999 -0.159999,-0.08 -0.319998,-0.159999 -0.479996,-0.239998 h -0.239999 c -0.159998,0 -0.239998,-0.08 -0.319997,-0.159999 -0.08,-0.08 -0.159999,-0.159999 -0.239998,-0.239998 0,0 -0.08,0 -0.159999,-0.08 -0.08,0 0,0 0,-0.08 0,-0.08 -0.08,-0.08 0,-0.159999 0.08,-0.08 -0.08,0.08 -0.159999,0.08 -0.08,-0.159998 -0.159999,-0.159998 -0.319998,-0.159998 -0.08,0 -0.08,0.08 -0.159999,0.08 -0.08,0 -0.159998,-0.08 -0.239998,-0.08 -0.08,0 -0.159999,0 -0.239998,0 0,0 -0.08,-0.08 -0.159999,-0.08 -0.08,-0.08 -0.08,-0.08 -0.159999,-0.08 -0.08,0 -0.159998,0.159999 -0.319997,0.08 -0.08,-0.08 0.159999,-0.08 0,-0.159999 -0.08,-0.08 -0.08,0 -0.08,0 l -0.159998,0.08 v 4.799964 h -0.08 l 0.08,0.08 c 0.08,0 0.08,0 0.159998,0.08 0.159999,0.08 0.239999,0.159999 0.399997,0.239998 0,0.159999 0.08,0.319998 0.08,0.399997 0,0.159999 0,0.319998 0,0.479997 0,0.08 0,0.08 0,0.159999 -0.639995,0.159998 -1.35999,0.239998 -1.999985,0.239998 -1.759987,0 -3.519974,-0.559996 -4.879964,-1.679988 h -0.799994 c 3.439974,3.279976 8.799935,3.119977 12.07991,-0.319997 3.279976,-3.439975 3.119977,-8.879935 -0.319997,-12.0799107 z M 18.479863,5.0399627 Z m 1.119992,0 c 0,0 0,0.079999 -0.08,0.079999 -0.08,0 -0.399997,-0.079999 -0.479996,-0.1599988 -0.159999,0 -0.239998,0 -0.319998,0 h -0.159998 c 0.319997,-0.079999 0.719994,-0.079999 1.039992,-0.079999 v 0 m 2.319983,0.2399982 h 0.159998 c -0.08,0 -0.08,0 -0.159998,0 v 0 m -1.199991,-0.079999 c 0.159998,0 0.319997,0 0.479996,0 0,0 0.08,0 0.08,-0.079999 h 0.319998 c 0,0.079999 0,0.079999 -0.08,0.1599988 -0.08,0.079999 -0.159999,0 -0.239999,0 -0.159998,0 -0.319997,0 -0.479996,-0.079999 0,0 -0.08,0 -0.08,-0.079999 m 3.199976,0.9599928 h -0.159999 c -0.08,0.079999 -0.159999,0.079999 -0.239998,0.079999 0,0 -0.08,0 -0.08,0 v 0 c -0.08,0 -0.08,0.079999 -0.159998,0.1599988 0,0.079999 0,0.079999 -0.08,0.079999 0,0.079999 -0.08,0.1599988 -0.08,0.2399982 0,0 0,0.079999 0,0.1599988 0,0.3999971 -0.319998,0.6399953 -0.799994,0.6399953 -0.08,0.079999 -0.08,0.2399982 -0.08,0.3199976 -0.08,0.079999 -0.159999,0.1599988 -0.319997,0.1599988 -0.08,0 -0.08,-0.079999 -0.08,-0.1599988 0,-0.079999 0.08,-0.079999 0,-0.1599988 -0.08,-0.1599988 0.159999,-0.1599988 0.159999,-0.2399982 0,-0.079999 -0.159999,0 -0.319998,-0.079999 -0.08,0 -0.159998,0 -0.319997,-0.079999 -0.08,-0.079999 -0.159999,-0.1599989 -0.319998,-0.2399983 h -0.159999 c -0.08,0 0,-0.079999 0,-0.1599988 0,0 -0.159998,0 -0.159998,-0.079999 0,-0.079999 0.159998,-0.1599988 0.159998,-0.2399982 0.08,0 0.239999,-0.079999 0.319998,-0.1599988 0.159999,-0.079999 0.239998,-0.079999 0.399997,-0.1599988 0,0 0.08,0 0.159999,0 0.08,0 0.159999,-0.079999 0.319997,-0.1599989 h 0.159999 c 0.08,0 0.08,0 0.159999,-0.079999 0.08,0 0.08,0 0.159999,-0.079999 h 0.08 c 0,0.1599988 -0.159999,0.1599988 -0.159999,0.2399982 -0.08,0.1599989 0.239999,0 0.399998,0 0.159998,0 0.239998,0.1599989 0.319997,0 0.08,-0.1599988 -0.08,-0.079999 -0.159999,-0.1599988 -0.08,-0.079999 -0.239998,-0.079999 -0.239998,-0.1599988 0.399997,0.079999 0.799994,0.2399982 1.199991,0.3999971 v 0 m 0.639995,0.5599958 c -0.08,0.079999 -0.159998,0.079999 -0.239998,0.079999 -0.08,0 -0.08,-0.079999 -0.159999,-0.1599988 v 0 c 0,-0.079999 0.08,-0.079999 0.08,-0.2399982 0,-0.079999 -0.08,0 -0.08,-0.079999 -0.08,-0.079999 -0.08,-0.079999 -0.159998,-0.079999 0.239998,0.079999 0.479996,0.2399982 0.639995,0.399997 l -0.08,0.079999"
     id="path3" />
  <path
     style="fill:#005073;fill-opacity:1;fill-rule:nonzero;stroke:none"
     d="m 6.879949,10.319924 h 4.159969 v 0.879993 H 6.879949 Z"
     id="path4" />
  <path
     style="fill:#005073;fill-opacity:1;fill-rule:nonzero;stroke:none"
     d="m 11.599914,10.319924 h 4.159969 v 0.879993 h -4.159969 z"
     id="path5" />
  <path
     style="fill:#005073;fill-opacity:1;fill-rule:nonzero;stroke:none"
     d="m 16.319879,10.319924 h 4.07997 v 0.879993 h -4.07997 z"
     id="path6" />
  <path
     style="fill:#005073;fill-opacity:1;fill-rule:nonzero;stroke:none"
     d="M 9.2799313,11.759913 H 13.4399 v 0.959993 H 9.2799313 Z"
     id="path7" />
  <path
     style="fill:#005073;fill-opacity:1;fill-rule:nonzero;stroke:none"
     d="m 13.919897,11.759913 h 4.159969 v 0.959993 h -4.159969 z"
     id="path8" />
  <path
     style="fill:#005073;fill-opacity:1;fill-rule:nonzero;stroke:none"
     d="m 6.879949,11.759913 h 1.759987 v 0.959993 H 6.879949 Z"
     id="path9" />
  <path
     style="fill:#005073;fill-opacity:1;fill-rule:nonzero;stroke:none"
     d="m 18.639862,11.759913 h 1.759987 v 0.959993 h -1.759987 z"
     id="path10" />
  <path
     style="fill:#005073;fill-opacity:1;fill-rule:nonzero;stroke:none"
     d="m 6.879949,13.279902 h 4.159969 v 0.879993 H 6.879949 Z"
     id="path11" />
  <path
     style="fill:#005073;fill-opacity:1;fill-rule:nonzero;stroke:none"
     d="m 11.599914,13.279902 h 4.159969 v 0.879993 h -4.159969 z"
     id="path12" />
  <path
     style="fill:#005073;fill-opacity:1;fill-rule:nonzero;stroke:none"
     d="m 16.319879,13.279902 h 4.07997 v 0.879993 h -4.07997 z"
     id="path13" />
  <path
     style="fill:#005073;fill-opacity:1;fill-rule:nonzero;stroke:none"
     d="M 9.2799313,14.79989 H 13.4399 v 0.879994 H 9.2799313 Z"
     id="path14" />
  <path
     style="fill:#005073;fill-opacity:1;fill-rule:nonzero;stroke:none"
     d="m 13.919897,14.79989 h 4.159969 v 0.879994 h -4.159969 z"
     id="path15" />
  <path
     style="fill:#005073;fill-opacity:1;fill-rule:nonzero;stroke:none"
     d="m 6.879949,14.79989 h 1.759987 v 0.879994 H 6.879949 Z"
     id="path16" />
  <path
     style="fill:#005073;fill-opacity:1;fill-rule:nonzero;stroke:none"
     d="m 18.639862,14.79989 h 1.759987 v 0.879994 h -1.759987 z"
     id="path17" />
  <path
     style="fill:#005073;fill-opacity:1;fill-rule:nonzero;stroke:none"
     d="m 6.879949,16.23988 h 4.159969 v 0.879993 H 6.879949 Z"
     id="path18" />
  <path
     style="fill:#005073;fill-opacity:1;fill-rule:nonzero;stroke:none"
     d="m 11.599914,16.23988 h 4.159969 v 0.879993 h -4.159969 z"
     id="path19" />
  <path
     style="fill:#005073;fill-opacity:1;fill-rule:nonzero;stroke:none"
     d="m 16.319879,16.23988 h 4.07997 v 0.879993 h -4.07997 z"
     id="path20" />
  <path
     style="fill:#005073;fill-opacity:1;fill-rule:nonzero;stroke:none"
     d="M 9.2799313,17.759868 H 13.4399 v 0.959993 H 9.2799313 Z"
     id="path21" />
  <path
     style="fill:#005073;fill-opacity:1;fill-rule:nonzero;stroke:none"
     d="m 13.919897,17.759868 h 4.159969 v 0.959993 h -4.159969 z"
     id="path22" />
  <path
     style="fill:#005073;fill-opacity:1;fill-rule:nonzero;stroke:none"
     d="m 6.879949,17.759868 h 1.759987 v 0.959993 H 6.879949 Z"
     id="path23" />
  <path
     style="fill:#005073;fill-opacity:1;fill-rule:nonzero;stroke:none"
     d="m 18.639862,17.759868 h 1.759987 v 0.959993 h -1.759987 z"
     id="path24" />
</svg>
