<svg width="100" height="100" viewBox="0 0 100 100" fill="none" xmlns="http://www.w3.org/2000/svg">
<g clip-path="url(#clip0_29_33)">
<path d="M50.2682 98.9168C6.67787 98.9168 -15.1173 46.3848 15.6195 15.6481C46.3562 -15.3681 99.1676 6.42705 99.1676 50.0174C98.8881 77.1216 77.093 98.9168 50.2682 98.9168Z" fill="#FAFAFA"/>
<path d="M50.2682 1.67655C93.0202 1.67655 114.536 53.6496 84.358 84.107C53.9007 114.285 1.92761 92.7691 1.92761 50.0171C1.92761 23.1923 23.4433 1.67655 50.2682 1.67655ZM50.2682 0C5.56013 0 -16.7939 53.6496 14.7812 85.2247C46.3562 116.8 100.006 94.4457 100.006 50.0171C100.006 22.354 77.6518 0 50.2682 0Z" fill="#005073"/>
<path d="M54.739 54.4883L58.3715 73.2098L63.4011 68.1801L75.9753 80.7542L80.7255 75.7246L68.4308 63.4299L73.4604 58.4002L54.739 54.4883Z" fill="#005073"/>
<path d="M45.7973 45.5462L27.0758 41.6343L32.1055 36.6046L19.8108 24.3099L24.561 19.2803L36.8557 31.8544L42.1648 26.8248L45.7973 45.5462Z" fill="#005073"/>
<path d="M78.2107 21.7949L74.2987 40.5164L69.2691 35.4868L56.9743 47.7815L52.2241 43.0312L64.5188 30.7365L59.4892 25.7069L78.2107 21.7949Z" fill="#005073"/>
<path d="M22.0462 78.2386L25.9582 59.5171L30.9878 64.5468L43.2825 51.9727L48.3122 57.0023L35.738 69.297L40.7677 74.3267L22.0462 78.2386Z" fill="#005073"/>
</g>
<defs>
<clipPath id="clip0_29_33">
<rect width="100" height="100" fill="white"/>
</clipPath>
</defs>
</svg>
