<?xml version="1.0" encoding="UTF-8" standalone="no"?>
<svg
   version="1.0"
   width="100"
   height="100"
   id="svg4"
   xmlns="http://www.w3.org/2000/svg"
   xmlns:svg="http://www.w3.org/2000/svg" viewBox="-0.00 -4.44 35.52 35.52">
  <defs
     id="defs1">
    <pattern
       id="EMFhbasepattern"
       patternUnits="userSpaceOnUse"
       width="6"
       height="6"
       x="0"
       y="0" />
  </defs>
  <path
     style="fill:#fafafa;fill-opacity:1;fill-rule:nonzero;stroke:none"
     d="M 1.5199887,0.23999822 H 33.999748 c 0.639995,0 1.199991,0.55999585 1.199991,1.27999048 V 25.119814 c 0,0.719995 -0.559996,1.27999 -1.199991,1.27999 H 1.5199887 c -0.71999463,0 -1.27999048,-0.559995 -1.27999048,-1.27999 V 1.5199887 c 0,-0.71999463 0.55999585,-1.27999048 1.27999048,-1.27999048 z"
     id="path1" />
  <path
     style="fill:#005073;fill-opacity:1;fill-rule:nonzero;stroke:none"
     d="m 33.999748,0.47999644 c 0.559996,0 1.039992,0.47999645 1.039992,1.03999226 V 25.119814 c 0,0.559996 -0.479996,1.039992 -1.039992,1.039992 H 1.5199887 c -0.55999581,0 -1.03999226,-0.479996 -1.03999226,-1.039992 V 1.5199887 c 0,-0.55999581 0.47999645,-1.03999226 1.03999226,-1.03999226 z M 33.999748,0 H 1.5199887 C 0.63999526,0 0,0.63999526 0,1.5199887 V 25.119814 c 0,0.879993 0.63999526,1.519989 1.5199887,1.519989 H 33.999748 c 0.799994,0 1.519989,-0.639996 1.519989,-1.519989 V 1.5199887 C 35.519737,0.63999526 34.799742,0 33.999748,0 Z"
     id="path2" />
  <path
     style="fill:#005073;fill-opacity:1;fill-rule:nonzero;stroke:none"
     d="m 24.079822,18.479863 c 2.63998,0 3.99997,-0.959993 3.99997,-2.799979 0.159999,-1.439989 -0.719995,-2.71998 -2.159984,-3.039978 0,-0.959993 -0.719995,-1.759987 -1.679988,-1.679987 1.199992,-6.639951 -8.719935,-7.2799463 -9.519929,-2.5599812 -2.71998,-1.3599899 -4.7199651,0.7999941 -4.399967,2.5599812 -5.2799613,0 -4.7199655,7.519944 -0.239999,7.519944 h 7.359946 v 0.959993 c -0.239998,0.08 -0.399997,0.319998 -0.479997,0.559996 h -4.319968 c -0.159998,-0.399997 -0.479996,-0.639995 -0.799994,-0.559996 -1.35999,-0.08 0.319998,2.399982 0.799994,1.199991 h 4.319968 c 0.239999,0.719995 1.35999,0.719995 1.679988,0 h 4.239969 c 0.399997,0.879994 1.759986,0.639995 1.759986,-0.319998 0,-1.039992 -1.359989,-1.27999 -1.759986,-0.319997 h -4.239969 c -0.159999,-0.239998 -0.319998,-0.479997 -0.559996,-0.559996 v -0.959993 z m -6.079955,-1.35999 -0.239999,0.08 -0.159998,-0.08 C 15.679884,16.399879 14.399893,14.559892 14.399893,12.479908 V 9.9999259 l 2.159984,-0.4799964 v 0 l 1.199991,-0.2399982 1.279991,0.2399982 v 0 l 2.159984,0.4799964 v 2.4799821 c 0,2.079984 -1.279991,3.919971 -3.199976,4.639965 z"
     id="path3" />
  <path
     style="fill:#005073;fill-opacity:1;fill-rule:nonzero;stroke:none"
     d="m 20.559848,10.479922 -1.039993,-0.239998 v 0.319998 L 18.399864,10.319924 V 9.9999259 L 17.759868,9.8399271 17.119873,9.9999259 v 0.3999971 l -1.119992,0.159999 v -0.319998 l -0.959992,0.239998 v 1.999986 c 0,1.759987 1.039992,3.439974 2.799979,4.079969 1.679987,-0.639995 2.71998,-2.319982 2.71998,-4.079969 z m -4.719965,2.71998 c -0.08,-0.239998 -0.08,-0.479996 -0.08,-0.719994 v -1.039993 l 1.999985,-0.479996 1.759987,0.479996 -3.119976,3.119977 c -0.319998,-0.399997 -0.479997,-0.879993 -0.559996,-1.35999 m 3.99997,-0.719994 c 0,0.239998 -0.08,0.479996 -0.159999,0.719994 -0.159999,1.119992 -0.879993,2.079985 -1.919986,2.559981 -0.399997,-0.159999 -0.719994,-0.479996 -1.039992,-0.799994 l 3.119977,-3.119977 z"
     id="path4" />
</svg>
