<svg width="53" height="53" viewBox="0 0 53 53" fill="none" xmlns="http://www.w3.org/2000/svg">
<g clip-path="url(#clip0_29_2)">
<path d="M3.53541 1.03125H49.9918C51.4091 1.03125 52.5114 2.1336 52.5114 3.55092V50.0073C52.5114 51.4246 51.4091 52.5269 49.9918 52.5269H3.53541C2.1181 52.5269 1.01575 51.4246 1.01575 50.0073V3.55092C1.01575 2.1336 2.1181 1.03125 3.53541 1.03125Z" fill="#FAFAFA"/>
<path d="M49.9918 1.50347C51.0941 1.50347 52.039 2.44834 52.039 3.5507V50.007C52.039 51.1094 51.0941 52.0543 49.9918 52.0543H3.53544C2.43308 52.0543 1.48821 51.1094 1.48821 50.007V3.5507C1.48821 2.44834 2.43308 1.50347 3.53544 1.50347H49.9918ZM49.9918 0.558594H3.53544C1.80317 0.558594 0.543335 1.81843 0.543335 3.5507V50.007C0.543335 51.7393 1.80317 52.9992 3.53544 52.9992H49.9918C51.7241 52.9992 52.9839 51.7393 52.9839 50.007V3.5507C52.9839 1.81843 51.7241 0.558594 49.9918 0.558594Z" fill="#005073"/>
<path d="M49.2044 12.055L39.7556 18.1967V13.9448H29.362V10.0078H39.7556V5.75586L49.2044 12.055Z" fill="#005073"/>
<path d="M44.0075 31.7396L34.5588 38.0388V33.7868H24.1652V29.6924H34.5588V25.4404L44.0075 31.7396Z" fill="#005073"/>
<path d="M4.32281 41.6605L13.7716 35.3613V39.6133H24.1652V43.5502H13.7716V47.8022L4.32281 41.6605Z" fill="#005073"/>
<path d="M9.51959 21.8187L19.1258 15.5195V19.7715H29.5194V23.8659H19.1258V28.1179L9.51959 21.8187Z" fill="#005073"/>
</g>
<defs>
<clipPath id="clip0_29_2">
<rect width="53" height="53" fill="white"/>
</clipPath>
</defs>
</svg>
