<?xml version="1.0" encoding="UTF-8" standalone="no"?>
<svg
   version="1.0"
   width="100"
   height="100"
   id="svg1"
   xmlns="http://www.w3.org/2000/svg"
   xmlns:svg="http://www.w3.org/2000/svg" viewBox="-0.00 -9.24 33.05 33.05">
  <defs
     id="defs1">
    <pattern
       id="EMFhbasepattern"
       patternUnits="userSpaceOnUse"
       width="6"
       height="6"
       x="0"
       y="0" />
  </defs>
  <path
     style="fill:#005073;fill-opacity:1;fill-rule:nonzero;stroke:none"
     d="M 32.719758,6.1655684 29.999778,3.6855867 H 14.479893 C 13.039903,1.3656039 10.479922,0.00561398 7.7599425,0.00561398 3.5999733,-0.15438483 0.15999881,3.1255909 0,7.2855601 c 0.15999881,4.1599689 3.5999733,7.3599459 7.7599425,7.2799459 2.7199795,0 5.1999615,-1.35999 6.7199505,-3.679973 h 3.119977 l 2.479981,-2.3199824 1.919986,1.7599874 1.839986,-1.679988 1.839987,1.759987 1.919986,-1.759987 1.919985,1.759987 3.199977,-3.0399775 c 0.399997,-0.3999971 0.479996,-0.7199947 0,-1.1999911 z m -28.39979,2.959978 c -1.0399923,0.08 -1.9999852,-0.799994 -1.9999852,-1.8399863 0,-1.1199917 0.9599929,-1.9999852 2.0799846,-1.9999852 1.0399923,0 1.9999852,0.8799935 1.9999852,1.9999852 0,1.0399923 -0.9599929,1.9199858 -1.9999852,1.9199858 z"
     id="path1" />
</svg>
