<?xml version="1.0" encoding="UTF-8" standalone="no"?>
<svg
   version="1.0"
   width="100"
   height="100"
   id="svg6"
   xmlns="http://www.w3.org/2000/svg"
   xmlns:svg="http://www.w3.org/2000/svg" viewBox="-0.00 -1.24 27.92 27.92">
  <defs
     id="defs1">
    <pattern
       id="EMFhbasepattern"
       patternUnits="userSpaceOnUse"
       width="6"
       height="6"
       x="0"
       y="0" />
  </defs>
  <path
     style="fill:#ffffff;fill-opacity:1;fill-rule:nonzero;stroke:none"
     d="M 2.4799816,0.47999644 H 25.439812 c 1.119991,0 1.999985,0.87999346 1.999985,1.99998516 V 20.879845 c 0,1.119992 -0.879994,1.999986 -1.999985,1.999986 H 2.4799816 c -1.1199917,0 -1.99998516,-0.879994 -1.99998516,-1.999986 V 2.4799816 c 0,-1.1199917 0.87999346,-1.99998516 1.99998516,-1.99998516 z"
     id="path1" />
  <path
     style="fill:#005073;fill-opacity:1;fill-rule:nonzero;stroke:none"
     d="M 25.67981,23.359827 H 2.2399834 C 1.0399923,23.359827 0,22.319835 0,21.119844 V 2.2399834 C 0,1.0399923 1.0399923,0 2.2399834,0 H 25.67981 c 1.199991,0 2.239983,1.0399923 2.239983,2.2399834 V 21.119844 c 0,1.199991 -1.039992,2.239983 -2.239983,2.239983 z M 2.2399834,0.87999348 c -0.7199947,0 -1.35998992,0.63999522 -1.35998992,1.35998992 V 21.119844 c 0,0.719994 0.63999522,1.359989 1.35998992,1.359989 H 25.67981 c 0.719994,0 1.35999,-0.639995 1.35999,-1.359989 V 2.2399834 c 0,-0.7199947 -0.639996,-1.35998992 -1.35999,-1.35998992 z"
     id="path2" />
  <path
     style="fill:#005073;fill-opacity:1;fill-rule:nonzero;stroke:none"
     d="m 25.439812,18.239865 c 0,-2.71998 -2.79998,-4.479967 -5.199962,-3.279976 -2.399982,1.199991 -2.63998,4.559966 -0.479996,6.079955 v 4.399968 l 2.079984,-1.199992 2.159984,1.199992 v -4.399968 c 0.879994,-0.639995 1.43999,-1.679987 1.43999,-2.799979 z"
     id="path3" />
  <path
     style="fill:#005073;fill-opacity:1;fill-rule:nonzero;stroke:none"
     d="M 5.4399597,5.5199591 H 22.559833 V 6.7999496 H 5.4399597 Z"
     id="path4" />
  <path
     style="fill:#005073;fill-opacity:1;fill-rule:nonzero;stroke:none"
     d="M 5.4399597,8.9599336 H 22.559833 V 10.319924 H 5.4399597 Z"
     id="path5" />
  <path
     style="fill:#005073;fill-opacity:1;fill-rule:nonzero;stroke:none"
     d="M 5.4399597,12.479908 H 14.79989 v 1.359989 H 5.4399597 Z"
     id="path6" />
</svg>
