<?xml version="1.0" encoding="UTF-8" standalone="no"?>
<svg
   version="1.0"
   width="100"
   height="100"
   id="svg1"
   xmlns="http://www.w3.org/2000/svg"
   xmlns:svg="http://www.w3.org/2000/svg" viewBox="-0.00 -9.80 62.64 62.64">
  <defs
     id="defs1">
    <pattern
       id="EMFhbasepattern"
       patternUnits="userSpaceOnUse"
       width="6"
       height="6"
       x="0"
       y="0" />
  </defs>
  <path
     style="fill:#ffffff;fill-opacity:1;fill-rule:nonzero;stroke:#005073;stroke-width:1.03999px;stroke-linecap:butt;stroke-linejoin:miter;stroke-miterlimit:10;stroke-dasharray:none;stroke-opacity:1"
     d="M 41.959689,14.91989 V 0.51999617 H 20.839846 V 14.91989 H 0.51999617 V 42.519685 H 62.11954 V 14.91989 Z M 2.4399819,23.959823 h 4.319968 v 4.639965 h -4.319968 z m 4.319968,11.439915 h -4.319968 v -4.719965 h 4.319968 z m 0,-13.759898 h -4.319968 v -4.719965 h 4.319968 z m 1.759987,2.319983 h 4.3199681 v 4.639965 H 8.5199369 Z M 12.839905,35.399738 H 8.5199369 v -4.719965 h 4.3199681 z m 0,-13.759898 H 8.5199369 v -4.719965 h 4.3199681 z m 1.759987,2.319983 h 4.239969 v 4.639965 h -4.239969 z m 4.319968,11.439915 h -4.319968 v -4.719965 h 4.319968 z m 0,-13.759898 H 14.599892 V 16.919875 H 18.91986 Z M 35.07974,9.9599262 h 4.239969 V 14.599892 H 35.07974 Z m -6.079955,0 h 4.239969 v 4.6399658 h -4.239969 z m -6.079954,0 h 4.319968 V 14.599892 H 22.919831 Z M 27.239799,28.35979 h -4.319968 v -4.639965 h 4.319968 z m 0,-6.959948 h -4.319968 v -4.719965 h 4.319968 z m 0,-13.7598986 h -4.319968 v -4.719965 h 4.319968 z M 33.239754,28.35979 h -4.239969 v -4.639965 h 4.239969 z m 0,-6.959948 h -4.239969 v -4.719965 h 4.239969 z m 0,-13.7598986 h -4.239969 v -4.719965 h 4.239969 z M 39.319709,28.35979 H 35.07974 v -4.639965 h 4.239969 z m 0,-6.959948 H 35.07974 v -4.719965 h 4.239969 z m 0,-13.7598986 H 35.07974 v -4.719965 h 4.239969 z m 4.399967,16.3198796 h 4.319968 v 4.639965 h -4.319968 z m 4.319968,11.439915 h -4.319968 v -4.719965 h 4.319968 z m 0,-13.759898 h -4.319968 v -4.719965 h 4.319968 z m 1.759987,2.319983 h 4.319968 v 4.639965 h -4.319968 z m 4.319968,11.439915 h -4.319968 v -4.719965 h 4.319968 z m 0,-13.759898 h -4.319968 v -4.719965 h 4.319968 z m 1.759987,2.319983 h 4.319968 v 4.639965 h -4.319968 z m 4.319968,11.439915 h -4.319968 v -4.719965 h 4.319968 z m 0,-13.759898 h -4.319968 v -4.719965 h 4.319968 z"
     id="path1" />
</svg>
