<?xml version="1.0" encoding="UTF-8" standalone="no"?>
<svg
   version="1.0"
   width="100"
   height="100"
   id="svg28"
   xmlns="http://www.w3.org/2000/svg"
   xmlns:svg="http://www.w3.org/2000/svg" viewBox="-0.00 -0.00 26.64 26.64">
  <defs
     id="defs1">
    <pattern
       id="EMFhbasepattern"
       patternUnits="userSpaceOnUse"
       width="6"
       height="6"
       x="0"
       y="0" />
  </defs>
  <path
     style="fill:#fafafa;fill-opacity:1;fill-rule:nonzero;stroke:none"
     d="M 1.5199887,0.23999822 H 25.119814 c 0.719995,0 1.27999,0.55999585 1.27999,1.27999048 V 25.119814 c 0,0.719995 -0.559995,1.27999 -1.27999,1.27999 H 1.5199887 c -0.71999463,0 -1.27999048,-0.559995 -1.27999048,-1.27999 V 1.5199887 c 0,-0.71999463 0.55999585,-1.27999048 1.27999048,-1.27999048 z"
     id="path1" />
  <path
     style="fill:#005073;fill-opacity:1;fill-rule:nonzero;stroke:none"
     d="m 25.119814,0.47999644 c 0.559996,0 1.039992,0.47999645 1.039992,1.03999226 V 25.119814 c 0,0.559996 -0.479996,1.039992 -1.039992,1.039992 H 1.5199887 c -0.55999581,0 -1.03999226,-0.479996 -1.03999226,-1.039992 V 1.5199887 c 0,-0.55999581 0.47999645,-1.03999226 1.03999226,-1.03999226 z M 25.119814,0 H 1.5199887 C 0.63999526,0 0,0.63999526 0,1.5199887 V 25.119814 c 0,0.879993 0.63999526,1.519989 1.5199887,1.519989 H 25.119814 c 0.879993,0 1.519989,-0.639996 1.519989,-1.519989 V 1.5199887 C 26.639803,0.63999526 25.999807,0 25.119814,0 Z"
     id="path2" />
  <path
     style="fill:#005073;fill-opacity:1;fill-rule:nonzero;stroke:none"
     d="m 5.8399567,13.119903 c -0.6399952,0.559996 -0.8799934,3.439974 -0.9599928,4.719965 0,0 -0.1599989,0.319997 0.3199976,0.799994 l 0.5599958,0.639995 0.6399953,-0.559996 c 0,-0.319997 0.1599988,-0.559996 0.399997,-0.719994 0.3999971,-0.399997 1.0399923,-0.319998 1.35999,0.08 0.5599958,0.639995 0.079999,1.679988 -0.7999941,1.599988 l -0.6399953,0.639995 0.7199947,0.799995 c 0.1599988,0.159998 0.399997,0.239998 0.5599958,0.239998 1.2799906,0.08 4.3199683,0.08 4.9599633,-0.559996 l 9.199932,-8.15994 c 0.879993,-0.719994 0.959993,-2.079984 0.159999,-2.9599777 L 17.999867,5.0399627 C 17.199873,4.2399686 15.839883,4.1599692 15.039889,4.9599633 Z M 16.479878,5.9999556 21.199843,11.039918 c 0.319998,0.319998 0.319998,0.879994 -0.08,1.199991 l -8.079941,7.279946 c -0.399997,0.319998 -0.959992,0.319998 -1.27999,0 L 7.0399479,14.479893 c -0.3999971,-0.399997 -0.3199977,-0.959993 0,-1.279991 L 15.199887,5.9199561 c 0.399997,-0.3199976 0.959993,-0.3199976 1.279991,0.079999 z"
     id="path3" />
  <path
     style="fill:#005073;fill-opacity:1;fill-rule:nonzero;stroke:none"
     d="m 7.8399419,18.239865 c 0.079999,0.08 0.1599988,0.159999 0.1599988,0.239998 0.1599989,0.239998 0,0.639995 -0.2399982,0.799994 -1.3599899,0.639995 -2.3199828,1.759987 -2.7199798,3.199976 -0.1599988,0.319998 -0.4799965,0.479997 -0.7999941,0.399998 -0.3199976,-0.08 -0.4799965,-0.399998 -0.399997,-0.719995 0.4799964,-1.759987 1.7599869,-3.199976 3.3599751,-3.999971 0.1599988,-0.159998 0.399997,-0.08 0.6399952,0 z"
     id="path4" />
  <path
     style="fill:#005073;fill-opacity:1;fill-rule:evenodd;stroke:none"
     d="m 10.399923,16.15988 -0.239998,-0.159999 c 0,-0.319997 0.559996,0.08 0.479996,0.239999 -0.159999,0.239998 -0.159999,-0.08 -0.239998,-0.08 z"
     id="path5" />
  <path
     style="fill:#005073;fill-opacity:1;fill-rule:evenodd;stroke:none"
     d="m 9.8399271,15.119888 c 0.1599988,0.159999 0.1599988,0.239998 0.3199979,0.319998 -0.08,-0.319998 -0.3199979,-0.559996 -0.3999973,-0.879994 -0.079999,-0.319997 -0.2399982,-0.559996 0,-0.879993 0.079999,0.319997 0.2399982,0.559996 0.2399982,0.879993 0.3199981,0.399997 0.5599961,0.799994 0.8799931,1.199991 0.159999,0.08 0.159999,0.319998 0.319998,0.399997 0.08,0.159999 0.559996,0.239999 0.639995,0.479997 -0.479996,0.319997 -0.879993,-0.399997 -1.27999,-0.799994 -0.239998,-0.159999 -0.9599931,-0.319998 -0.6399955,-0.719995 z"
     id="path6" />
  <path
     style="fill:#005073;fill-opacity:1;fill-rule:evenodd;stroke:none"
     d="m 9.5999289,14.479893 c 0.1599988,0.08 0.2399982,0.319997 0.1599988,0.479996 -0.1599988,0.159999 -0.399997,-0.319997 -0.1599988,-0.479996 z"
     id="path7" />
  <path
     style="fill:#005073;fill-opacity:1;fill-rule:evenodd;stroke:none"
     d="m 10.719921,11.439915 c 0,0.239998 -0.08,0.479997 -0.159999,0.719995 -0.08,0.239998 -0.08,0.479996 -0.159999,0.719995 -0.08,0.159998 -0.159999,0.239998 -0.239998,0.319997 -0.08,0.639995 0.159999,1.279991 0.559996,1.839987 0.239998,0.239998 0.559995,0.639995 0.719994,0.959992 0.159999,-0.319997 -0.239998,-0.719994 -0.559996,-0.959992 -0.479996,-0.639996 -0.799994,-1.35999 -0.399997,-1.839987 0.08,0.639995 0.239999,1.199991 0.559996,1.679988 0.159999,0.159999 0.399997,0.319997 0.479997,0.479996 0.159998,0.239998 0.159998,0.399997 0.319997,0.559996 0.399997,0.559996 1.279991,0.239998 1.759987,0.719995 -0.239998,0.239998 -0.559996,0 -0.799994,-0.08 -0.319997,-0.08 -0.879993,-0.08 -1.199991,-0.239998 -0.399997,-0.08 -0.479996,-0.399997 -0.639995,-0.639995 -0.159999,-0.159999 -0.319998,-0.399997 -0.479997,-0.559996 -0.399997,-0.479996 -0.6399949,-1.199991 -0.6399949,-1.839986 0,-0.159999 0.1599988,-0.239999 0.3199979,-0.399997 0.08,-0.239999 0,-0.319998 0,-0.479997 0,-0.399997 0.239998,-0.719995 0.559996,-0.879993 z"
     id="path8" />
  <path
     style="fill:#005073;fill-opacity:1;fill-rule:evenodd;stroke:none"
     d="m 11.919912,16.559877 c 0.319997,-0.08 0.639995,0 0.799994,0.159999 -0.239998,0.159999 -0.639995,0.08 -0.799994,-0.159999 z"
     id="path9" />
  <path
     style="fill:#005073;fill-opacity:1;fill-rule:evenodd;stroke:none"
     d="m 11.839912,15.599884 c 0.399997,0.159999 0.879994,0.239999 1.279991,0.319998 0.159999,0 0.239998,-0.08 0.399997,-0.159999 0.159999,0 0.479996,0.159999 0.799994,0.159999 0.239998,-0.08 0.479996,-0.08 0.799994,0 -0.239998,0.319998 -0.639995,0.239998 -1.039992,0.239998 -0.159999,-0.08 -0.319998,-0.159999 -0.559996,-0.159999 -0.159999,0 -0.399997,0.08 -0.559996,0.159999 -0.319998,0 -1.119992,-0.239998 -1.119992,-0.559996 z"
     id="path10" />
  <path
     style="fill:#005073;fill-opacity:1;fill-rule:evenodd;stroke:none"
     d="m 11.839912,9.9199265 0.399997,-0.399997 c 0.239999,-0.079999 0.559996,-0.3199976 0.799994,-0.2399982 -0.319997,0.3199976 -0.719994,0.4799964 -1.039992,0.8799937 -0.639995,0.719994 -1.039992,1.679987 -1.119992,2.63998 -0.08,1.119992 0.559996,2.159984 1.679988,2.639981 0.239998,0.08 0.479996,0 0.719995,0.239998 -0.319998,0.08 -0.719995,0.08 -1.039993,-0.08 -0.479996,-0.239998 -0.959993,-0.639995 -1.199991,-1.119991 -0.719994,-1.519989 -0.399997,-3.359975 0.799994,-4.5599665 z"
     id="path11" />
  <path
     style="fill:#005073;fill-opacity:1;fill-rule:evenodd;stroke:none"
     d="m 16.319879,15.279887 -0.159999,0.159999 c -0.799994,0.319997 -1.599988,0.399997 -2.399982,0.239998 -0.159999,-0.08 -0.319998,-0.159999 -0.479996,-0.239998 -0.239999,-0.08 -0.479997,-0.08 -0.639996,-0.159999 -0.479996,-0.159999 -0.879993,-0.399997 -1.119991,-0.799994 -0.399997,-0.479997 -0.559996,-1.199991 -0.479997,-1.839987 0.08,-0.959993 0.559996,-1.839986 1.279991,-2.479981 0.239998,-0.2399985 0.399997,-0.5599961 0.799994,-0.4799967 -0.159999,0.3199976 -0.479997,0.4799967 -0.719995,0.7199947 -0.559996,0.559996 -0.959993,1.35999 -1.039992,2.159984 -0.159999,1.039992 0.319997,1.999985 1.199991,2.479982 0.319998,0.08 0.639995,0 0.879993,0.159998 0.239999,0.08 0.239999,0.159999 0.399997,0.239999 0.559996,0.159998 1.199992,0.08 1.679988,-0.08 0.239998,-0.08 0.719995,-0.319997 0.799994,-0.08 z"
     id="path12" />
  <path
     style="fill:#005073;fill-opacity:1;fill-rule:evenodd;stroke:none"
     d="m 13.279902,16.23988 c 0.399997,-0.159999 0.639995,0 0.959993,0.08 -0.319998,0.239998 -0.639996,0.159999 -0.959993,-0.08 z"
     id="path13" />
  <path
     style="fill:#005073;fill-opacity:1;fill-rule:evenodd;stroke:none"
     d="m 13.119903,14.639892 c -0.08,-0.159999 -0.319998,-0.239999 -0.399997,-0.319998 -0.879994,-0.879994 -0.959993,-2.239983 -0.08,-3.119977 0,0 0.08,0 0.159999,-0.08 1.039992,-0.639996 1.679988,-1.3599903 2.639981,-1.1999915 0.399997,0 0.719994,0.1599985 1.039992,0.3999975 0.239998,0.08 0.479996,0.08 0.799994,0.239998 0.239998,0.159999 0.399997,0.319997 0.639995,0.479996 0.159999,0.08 0.319998,0.08 0.479997,0.319998 -0.319998,0.319997 -0.799994,-0.319998 -1.119992,-0.479997 -0.959993,-0.479996 -2.079985,-0.479996 -2.959978,0.08 -0.159999,0.08 -0.319998,0.319997 -0.559996,0.319997 -0.159999,-0.319997 0.319998,-0.479996 0.559996,-0.639995 0.399997,-0.239998 0.959993,-0.399997 1.439989,-0.399997 -0.719994,-0.3199975 -1.519988,0.159999 -2.239983,0.799994 -0.319998,0.159999 -0.639995,0.399997 -0.879994,0.639995 -0.479996,0.639996 -0.479996,1.519989 0,2.159984 0.319998,0.319998 0.719995,0.559996 1.199991,0.639996 0.399998,0.08 0.719995,0.08 1.119992,0.08 0.319998,0 0.799994,-0.239998 1.279991,-0.399997 0.399997,-0.08 0.719994,-0.319998 1.119991,-0.159999 -0.239998,0.319998 -0.719994,0.319998 -1.119991,0.479997 -0.399997,0.08 -0.719995,0.319997 -1.119992,0.319997 -0.399997,0.08 -0.719995,0.08 -1.119992,0 -0.719994,0 -1.27999,0.319998 -1.919985,-0.319997 -0.08,-0.08 -0.319998,-0.239998 -0.159999,-0.399997 0.159999,-0.08 0.399997,0.239998 0.559996,0.319997 0.159998,0.159999 0.399997,0.239999 0.639995,0.239999 z"
     id="path14" />
  <path
     style="fill:#005073;fill-opacity:1;fill-rule:evenodd;stroke:none"
     d="m 13.4399,9.9999259 c -0.08,0.3199981 -0.559995,0.3999971 -0.719994,0.6399951 -0.239998,0.319998 -0.159999,0.239998 -0.159999,0.399997 -0.239998,0.239998 -0.399997,0.559996 -0.559996,0.799994 -0.159999,0.479997 -0.239998,0.959993 -0.159999,1.43999 0.08,0.239998 0.239999,0.399997 0.08,0.639995 -0.399997,-0.08 -0.479997,-0.959993 -0.399997,-1.35999 0.08,-0.719995 0.399997,-1.439989 0.959993,-1.999985 0.239998,-0.239998 0.639995,-0.6399955 0.959992,-0.5599961 z"
     id="path15" />
  <path
     style="fill:#005073;fill-opacity:1;fill-rule:evenodd;stroke:none"
     d="m 13.679899,15.119888 c 0.239998,-0.239998 0.559996,-0.08 0.879993,-0.08 0.319998,0.08 0.719995,0 1.039992,-0.159999 0.399997,-0.08 0.799995,-0.399997 1.199992,-0.239998 -0.239999,0.159998 -0.559996,0.319997 -0.879994,0.399997 -0.319998,0.159998 -0.639995,0.239998 -0.959993,0.319997 -0.399997,0 -0.879993,0 -1.27999,-0.159999 z"
     id="path16" />
  <path
     style="fill:#005073;fill-opacity:1;fill-rule:evenodd;stroke:none"
     d="m 13.599899,11.359916 c -0.719994,0.639995 -1.119991,1.439989 -0.559996,2.079984 0.319998,0.319998 0.719995,0.559996 1.119992,0.559996 h 0.319998 c 0.159999,0 0.479996,0.239999 0.719994,0 -0.639995,-0.239998 -1.999985,0 -2.239983,-1.119991 -0.159999,-0.719995 1.279991,-1.759987 1.999985,-1.999986 0.559996,-0.159998 1.119992,-0.159998 1.679988,0 l 0.479996,0.239999 c 0.08,0 0.319998,0.08 0.399997,0.159998 -0.479996,0.239999 -0.799994,-0.08 -1.199991,-0.159998 -0.719995,-0.08 -1.439989,0.08 -1.999985,0.559995 -0.399997,0.319998 -1.039992,0.559996 -1.039992,0.959993 0,0.479997 0.239998,0.879994 0.639995,1.039993 0.239998,0 0.559996,0 0.799994,0 0.159999,0 0.319998,0.08 0.479996,0.08 0.159999,-0.08 0.399997,-0.319998 0.719995,-0.479996 0.319998,-0.159999 0.639995,-0.239999 0.959993,-0.319998 0.319998,-0.08 0.639995,0 0.879993,0.239998 -0.239998,0.239998 -0.639995,0.08 -0.959992,0.159999 -0.399997,0 -0.719995,0.239998 -1.039993,0.479996 -0.159999,0.239999 -0.319997,0.479997 -0.639995,0.639996 -0.319998,0 -0.719995,0 -1.039992,-0.08 -1.119992,-0.08 -1.839987,-1.199991 -1.43999,-2.159984 0.159999,-0.319997 0.639996,-1.039992 1.039993,-0.799994 z"
     id="path17" />
  <path
     style="fill:#005073;fill-opacity:1;fill-rule:evenodd;stroke:none"
     d="m 13.599899,12.479908 c 0,0.239998 0.08,0.399997 0.159999,0.559995 -0.239998,0.319998 -0.559996,-0.399997 -0.159999,-0.559995 z"
     id="path18" />
  <path
     style="fill:#005073;fill-opacity:1;fill-rule:evenodd;stroke:none"
     d="m 13.759898,13.119903 c 0.159999,-0.08 0.239998,0.08 0.319998,0.08 0.319997,-0.08 0.639995,-0.08 0.959993,0 0.159998,0 0.399997,-0.239998 0.639995,-0.08 -0.239998,0.399997 -0.799994,0.319997 -1.199991,0.319997 -0.239998,0 -0.719995,0.08 -0.719995,-0.319997 z"
     id="path19" />
  <path
     style="fill:#005073;fill-opacity:1;fill-rule:evenodd;stroke:none"
     d="m 18.239865,11.999911 c -0.159999,0.08 -0.319998,-0.08 -0.559996,-0.159999 -0.239998,0 -0.719995,0 -0.959993,0 -0.319997,-0.08 -0.319997,-0.239998 -0.399997,-0.239998 -0.639995,-0.159999 -1.199991,0 -1.679987,0.319998 -0.08,0.08 -0.159999,0.159999 -0.239999,0.239998 -0.159998,0.159999 -0.559996,0.319998 -0.319997,0.559996 0.159999,0.239998 0.399997,0.08 0.639995,0 0.879993,0.08 1.999985,-0.559996 2.879979,-0.239998 0.159998,0 0.239998,0.08 0.319997,0.239998 -0.239998,0.159999 -0.399997,0 -0.719994,0 -0.639996,-0.08 -1.279991,0.399997 -1.999986,0.399997 -0.159998,0 -0.319997,-0.08 -0.479996,-0.08 -0.159999,0.08 -0.319998,0.08 -0.479996,0.08 -0.399998,-0.08 -0.639996,-0.559996 -0.399998,-0.879994 0.08,-0.159998 0.319998,-0.159998 0.399998,-0.239998 0.159998,-0.159999 0.239998,-0.319998 0.399997,-0.399997 0.479996,-0.319998 0.959992,-0.399997 1.519988,-0.319998 0.159999,0.08 0.399997,0.159999 0.559996,0.239999 0.479997,0.159998 1.199991,-0.08 1.519989,0.479996 z"
     id="path20" />
  <path
     style="fill:#005073;fill-opacity:1;fill-rule:evenodd;stroke:none"
     d="m 15.999881,11.999911 c -0.239998,-0.239998 -0.719994,-0.08 -0.959992,0.239998 v 0.08 c 0.319997,-0.159999 0.639995,-0.239998 0.959992,-0.319998 m -1.839986,0.559996 c 0,-0.239998 0.319998,-0.239998 0.479997,-0.319998 0,-0.399997 0.959992,-0.719994 1.27999,-0.639995 0.319998,0.239998 0.719995,0.399997 1.119992,0.399997 0.239998,0 0.959993,0 1.039992,0.399997 -0.159999,0.08 -0.399997,-0.08 -0.559996,-0.159999 -0.479996,0 -0.879993,0 -1.27999,0 -0.559996,0.239999 -1.039993,0.399997 -1.599988,0.319998 -0.159999,0.08 -0.319998,0.159999 -0.479997,0.08 z"
     id="path21" />
  <path
     style="fill:#005073;fill-opacity:1;fill-rule:evenodd;stroke:none"
     d="m 17.51987,10.479922 c 0.319998,-0.08 0.879994,0.159999 0.879994,0.479997 -0.319998,0.159999 -0.719995,-0.239998 -0.879994,-0.479997 z"
     id="path22" />
  <path
     style="fill:#005073;fill-opacity:1;fill-rule:evenodd;stroke:none"
     d="m 12.799905,10.879919 c 0,-0.239998 0.559996,-0.639995 0.799994,-0.479996 -0.159999,0.159999 -0.559996,0.639995 -0.799994,0.479996 z"
     id="path23" />
  <path
     style="fill:#005073;fill-opacity:1;fill-rule:evenodd;stroke:none"
     d="m 15.839883,13.999896 c 0.239998,-0.319997 0.479996,-0.479996 0.879993,-0.479996 0.319998,-0.08 0.559996,-0.08 0.879994,0 -0.399997,0.479996 -1.119992,0.159999 -1.599989,0.559996 h -0.08 c -0.08,0 0,0 0,-0.08 z"
     id="path24" />
  <path
     style="fill:#005073;fill-opacity:1;fill-rule:evenodd;stroke:none"
     d="m 13.679899,10.159925 c 0.319997,-0.3199979 0.719994,-0.5599961 1.199991,-0.5599961 0.319997,-0.079999 0.719994,-0.079999 1.119991,0 0.319998,0.1599988 0.639996,0.4799961 1.039993,0.4799961 -0.159999,-0.3199973 -0.639995,-0.3999967 -0.879994,-0.5599955 0.479997,-0.3999971 0.879994,0.3199976 1.279991,0.4799964 0.319997,0.1599991 0.639995,0.079999 0.799994,0.3999971 -0.159999,0.159999 -0.319998,0 -0.479997,0 -0.239998,0 -0.559995,0 -0.799994,0 -0.479996,-0.08 -0.799994,-0.4799965 -1.199991,-0.5599959 -0.719994,-0.1599988 -1.199991,0.2399979 -1.839986,0.4799969 h -0.159999 z"
     id="path25" />
  <path
     style="fill:#005073;fill-opacity:1;fill-rule:evenodd;stroke:none"
     d="M 13.199902,9.5199295 C 13.4399,9.1199324 13.919897,8.9599336 14.399893,9.039933 c 0.159999,0 0.319998,0.079999 0.479997,0.079999 0.399997,0 1.039992,-0.2399982 1.199991,0.2399983 -0.159999,0.1599988 -0.239998,0 -0.479997,0 -0.559995,0 -1.119991,0.079999 -1.599988,0.399997 -0.159999,0.079999 -0.319997,0.2399982 -0.479996,0.1599988 0,-0.399997 0.639995,-0.399997 0.879993,-0.5599958 -0.319997,-0.2399983 -0.799994,0.2399982 -1.199991,0.2399982 0,-0.079999 -0.08,-0.079999 -0.08,-0.079999 z"
     id="path26" />
  <path
     style="fill:#005073;fill-opacity:1;fill-rule:evenodd;stroke:none"
     d="m 14.239895,8.7999348 c 0.159998,-0.2399982 0.479996,0 0.799994,0 0,-0.079999 -0.159999,0 -0.239999,-0.1599988 0.159999,-0.1599988 0.319998,0 0.479997,-0.079999 0.479996,0.399997 1.119992,0.3199976 1.599988,0.7199947 -0.239998,0.079999 -0.479996,-0.079999 -0.799994,-0.079999 C 15.839883,9.039933 15.599884,9.039933 15.359886,8.9599336 c -0.319997,0 -0.719994,0.079999 -1.119991,-0.079999 z"
     id="path27" />
  <path
     style="fill:#005073;fill-opacity:1;fill-rule:evenodd;stroke:none"
     d="m 17.59987,9.5999289 0.239998,0.2399982 c 0,0.3199979 -0.639995,-0.079999 -0.639995,-0.3199976 0.159998,-0.079999 0.239998,0.079999 0.399997,0.079999 z"
     id="path28" />
</svg>
