<?xml version="1.0" encoding="UTF-8" standalone="no"?>
<svg
   version="1.0"
   width="100"
   height="100"
   id="svg4"
   xmlns="http://www.w3.org/2000/svg"
   xmlns:svg="http://www.w3.org/2000/svg" viewBox="-0.00 -0.00 26.64 26.64">
  <defs
     id="defs1">
    <pattern
       id="EMFhbasepattern"
       patternUnits="userSpaceOnUse"
       width="6"
       height="6"
       x="0"
       y="0" />
  </defs>
  <path
     style="fill:#fafafa;fill-opacity:1;fill-rule:nonzero;stroke:none"
     d="M 1.5199887,0.23999822 H 25.119814 c 0.719995,0 1.27999,0.55999585 1.27999,1.27999048 V 25.119814 c 0,0.719995 -0.559995,1.27999 -1.27999,1.27999 H 1.5199887 c -0.71999463,0 -1.27999048,-0.559995 -1.27999048,-1.27999 V 1.5199887 c 0,-0.71999463 0.55999585,-1.27999048 1.27999048,-1.27999048 z"
     id="path1" />
  <path
     style="fill:#005073;fill-opacity:1;fill-rule:nonzero;stroke:none"
     d="m 25.119814,0.47999644 c 0.559996,0 1.039992,0.47999645 1.039992,1.03999226 V 25.119814 c 0,0.559996 -0.479996,1.039992 -1.039992,1.039992 H 1.5199887 c -0.55999581,0 -1.03999226,-0.479996 -1.03999226,-1.039992 V 1.5199887 c 0,-0.55999581 0.47999645,-1.03999226 1.03999226,-1.03999226 z M 25.119814,0 H 1.5199887 C 0.63999526,0 0,0.63999526 0,1.5199887 V 25.119814 c 0,0.879993 0.63999526,1.519989 1.5199887,1.519989 H 25.119814 c 0.879993,0 1.519989,-0.639996 1.519989,-1.519989 V 1.5199887 C 26.639803,0.63999526 25.999807,0 25.119814,0 Z"
     id="path2" />
  <path
     style="fill:#005073;fill-opacity:1;fill-rule:nonzero;stroke:none"
     d="m 13.359901,2.8799787 c -5.4399597,0 -9.9999259,4.1599692 -10.4799223,9.5999293 -0.3999971,5.439959 3.3599751,10.239924 8.7199353,11.119917 0.239998,0.08 0.399997,0.08 0.559996,0.08 0.399997,0.08 0.799994,0.08 1.199991,0.08 3.119977,0 6.159954,-1.439989 8.15994,-3.919971 v 0 c 0.559995,-0.719995 1.039992,-1.519989 1.35999,-2.319983 0.08,-0.159999 0.159998,-0.319997 0.239998,-0.479996 0,-0.08 0.08,-0.239998 0.08,-0.319998 0.08,-0.239998 0.159999,-0.479996 0.239998,-0.719995 v 0 C 25.199813,9.3599307 20.159851,2.8799787 13.359901,2.8799787 Z m 5.35996,2.7999792 c 0,-0.1599988 0.08,-0.1599988 0.08,-0.2399982 l 0.399997,0.2399982 -0.08,0.079999 c -0.08,0.079999 -0.159998,0.079999 -0.239998,0.079999 -0.08,0 -0.159999,-0.079999 -0.159999,-0.159998 z M 15.679884,5.0399627 c 0.159999,0 0.239998,-0.1599988 0.399997,-0.2399983 h 0.239998 c 0.08,0 0.159999,0 0.239998,-0.079999 0,0 0.08,-0.079999 0.159999,-0.079999 v 0 c 0,0.079999 -0.159999,0.1599988 -0.239998,0.2399983 0,0.079999 0.08,0.079999 0.159999,0.079999 0.08,0 0.239998,-0.079999 0.399997,-0.079999 0.159999,0 0.159999,0.079999 0.319997,0.079999 0,0 0.08,-0.079999 0.08,-0.079999 0,-0.1599989 -0.159999,-0.1599989 -0.239998,-0.2399983 -0.08,0 -0.159999,-0.079999 -0.159999,-0.1599988 0.399997,0.2399982 0.799994,0.3999971 1.199991,0.6399953 h -0.08 c -0.159998,0 -0.239998,0 -0.319997,-0.079999 v 0 c 0,0 -0.08,0 -0.08,0 v 0 c -0.08,0 -0.159998,0.1599988 -0.159998,0.2399982 -0.08,0.079999 -0.08,0.079999 -0.159999,0.079999 0,0.1599988 -0.08,0.2399982 -0.159999,0.3199976 0,0 0,0.079999 0,0.1599988 0,0.5599959 -0.399997,0.7999941 -0.879993,0.7999941 -0.159999,0.079999 -0.08,0.2399982 -0.159999,0.3999971 -0.08,0.079999 -0.159999,0.1599988 -0.319998,0.1599988 -0.08,0 -0.159999,-0.079999 -0.159999,-0.1599988 0,-0.079999 0.159999,-0.1599989 0.08,-0.2399983 -0.08,-0.1599988 0.159998,-0.1599988 0.159998,-0.2399982 0,-0.1599988 -0.08,-0.079999 -0.159998,-0.079999 h -0.239999 c -0.08,0 -0.239998,-0.079999 -0.319997,-0.1599988 -0.159999,-0.080001 -0.239998,-0.16 -0.399997,-0.2399994 h -0.159999 c -0.08,0.079999 -0.08,0.079999 -0.08,0 -0.08,0 0,-0.1599989 0,-0.1599989 0,-0.079999 -0.159999,-0.079999 -0.159999,-0.1599988 0,-0.079999 0.08,-0.1599988 0.159999,-0.2399982 0.159998,-0.079999 0.239998,-0.1599988 0.399997,-0.2399982 0.159998,-0.079999 0.319997,-0.1599988 0.399997,-0.1599988 h 0.239998 M 14.639892,3.9999704 c 0.08,0 0.239998,0 0.319997,0 0,0 0.08,0 0.08,-0.079999 l 0.479996,0.079999 c 0,0 -0.08,0.079999 -0.08,0.079999 -0.08,0.079999 -0.239999,0 -0.319998,0 H 14.79989 c -0.08,0 -0.159998,0 -0.159998,-0.079999 0,0 -0.159999,-0.079999 -0.159999,-0.1599988 h 0.239998 m -1.679988,-0.08 v 0 c 0,0 0,0.08 -0.08,0.08 -0.08,0.079999 -0.08,0.079999 -0.159999,0 -0.159999,0 -0.319997,-0.08 -0.479996,-0.08 h 0.639995 M 21.51984,18.399864 h -0.08 v 0 c -0.08,0 -0.159999,0 -0.239998,0 h -0.159999 l -0.159999,-0.08 h -0.239998 c -0.08,0 -0.08,-0.159999 -0.159999,-0.159999 0,-0.08 -0.08,0 -0.159999,-0.08 -0.159998,-0.08 -0.239998,-0.08 -0.319997,-0.08 v 0 h -0.159999 c 0,0 -0.08,-0.08 -0.159999,-0.159999 -0.08,0 -0.159999,-0.08 -0.159999,-0.159999 0,-0.239998 -0.159998,-0.319998 -0.239998,-0.399997 0,-0.159999 0,-0.159999 0,-0.239998 0,0 -0.08,-0.08 -0.159999,-0.159999 -0.159998,-0.159999 -0.319997,-0.239998 -0.559995,-0.319998 v 0 h -0.319998 c -0.159999,0 -0.239998,-0.08 -0.319998,-0.159998 -0.08,-0.159999 -0.159999,-0.239999 -0.239998,-0.319998 -0.08,0 -0.159999,0 -0.239998,-0.08 -0.08,-0.08 0,-0.08 -0.08,-0.08 0,-0.08 -0.08,-0.159999 0,-0.239998 v 0 c -0.08,0 -0.159998,0.08 -0.159998,0.08 -0.08,-0.08 -0.159999,-0.159999 -0.159999,-0.159999 h -0.08 c -0.719994,1.43999 -1.999985,2.639981 -3.519974,3.199977 -0.08,0 -0.159998,-0.08 -0.239998,-0.08 v 0 c 0,0.08 0.08,0.239999 0.08,0.319998 0.08,0.159999 0.159998,0.159999 0.239998,0.159999 0.08,0.159999 0.159999,0.239998 0.239998,0.319997 0.159999,0.239999 0.239998,0.479997 0.399997,0.719995 0.08,0.08 0.159999,0.239998 0.159999,0.319998 v 0 l 0.479996,0.479996 0.08,0.08 h 0.08 l 0.239998,0.159998 c 0.159999,0.08 0.319998,0.159999 0.479997,0.319998 0,0.159999 0.08,0.319998 0.08,0.479996 0,0.159999 0,0.399997 0,0.559996 v 0 c -0.799994,0.159999 -1.519988,0.319998 -2.319983,0.319998 -8.9599332,0 -13.03990296,-11.119918 -6.3199527,-16.9598749 0.079999,0 0.1599988,-0.079999 0.2399982,-0.1599989 l 0.079999,0.1599989 c 0,0 -0.079999,0.079999 -0.079999,0.1599988 -0.079999,0.079999 0,0.079999 0,0.1599988 0,0 -0.1599988,0.1599988 0,0.2399982 0,0 0,0 0,0 0.079999,0 0.1599988,0 0.2399982,0 0,0 0,0 0,0 0.079999,0.079999 -0.079999,0.1599988 -0.079999,0.2399982 0,0.079999 0,0.2399983 0,0.3199977 0,0.079999 0,0.1599988 0,0.2399982 0,0.079999 -0.1599988,0.079999 -0.1599988,0.079999 0,0.079999 0.1599988,0.2399982 0.2399982,0.399997 0,0.079999 -0.079999,0.1599988 -0.079999,0.1599988 -0.1600006,0.1600018 -0.24,0.3200006 -0.3999988,0.4799994 -0.079999,0.1599988 -0.2399983,0.2399982 -0.3199977,0.399997 0,0.079999 0,0.1599988 -0.079999,0.2399982 C 6.5599514,9.1999319 6.5599514,9.2799313 6.479952,9.4399301 v 0 0 c 0,0.079999 0,0.2399982 0,0.399997 v 0.3999969 c 0,0.08 0,0.239998 0.079999,0.319998 0,0.08 0.079999,0 0.2399982,0.08 0.079999,0.08 0.1599988,0.159999 0.1599988,0.239998 0,0.08 0,0.239999 0,0.319998 0,0.08 0,0.239998 0,0.319998 0,0.08 0.2399983,0.159998 0.2399983,0.319997 0,0.08 -0.1599988,0.08 -0.1599988,0.159999 0,0.159999 0.3199976,0.239998 0.3199976,0.319998 0.079999,0.159999 0,0.239998 0,0.239998 0,0.08 0.1599988,0.159999 0.2399982,0.239998 0,0 0.079999,0.159999 0.1599988,0.08 0.1599988,0 0,-0.159999 -0.079999,-0.239999 0,-0.08 0,-0.239998 -0.079999,-0.399997 -0.079999,-0.159998 -0.079999,-0.159998 -0.1599988,-0.239998 0,-0.08 0,-0.239998 -0.079999,-0.239998 0,-0.08 -0.079999,-0.239998 -0.079999,-0.319998 0,-0.239998 0.2399982,-0.319997 0.3199976,-0.08 0.079999,0.159999 0,0.159999 0,0.319997 0,0.159999 0.1599988,0.159999 0.1599988,0.319998 0.079999,0.08 0.1599988,0.159999 0.2399982,0.239998 0,0.08 0,0.08 0,0.159999 0.079999,0.08 0.1599989,0.159999 0.2399983,0.319998 0.2399982,0.159999 0.3199976,0.399997 0.3199976,0.639995 0,0.08 -0.079999,0.08 -0.079999,0.239998 0,0.08 0.079999,0.159999 0.1599988,0.159999 0.079999,0.08 0.2399982,0.159999 0.399997,0.239998 0,0 0.079999,0 0.1599989,0.08 0.079999,0 0.079999,0 0.079999,0.08 C 9.1999319,13.599899 9.1199324,13.039903 9.1199324,12.479908 V 9.9199265 l 3.2799756,-0.7199946 0.879994,-0.1599989 1.039992,0.1599989 1.599988,0.3199976 c 0,0 0,-0.079999 0.08,-0.079999 h 0.159999 c 0.08,0 0.159999,-0.1599988 0.239999,-0.1599988 0.159998,-0.079999 0.239998,0 0.319997,-0.079999 0,-0.079999 0,-0.1599989 0,-0.1599989 0,-0.2399982 0.399997,-0.3199976 0.639995,-0.399997 0.159999,-0.079999 0.239999,-0.1599988 0.479997,-0.1599988 0,0.1599988 -0.239998,0.079999 -0.239998,0.2399982 0.08,0.1599988 0,0.079999 0.159998,0.079999 0.08,0 0.239999,-0.1599988 0.319998,-0.1599988 0,0 0.319998,-0.079999 0.479997,-0.1599988 0.239998,-0.079999 0.479996,-0.1599988 0.319997,-0.3199976 v 0 c -0.159999,0 -0.159999,0.1599988 -0.319997,0.1599988 -0.08,0.079999 0,0 -0.08,-0.079999 v 0 h -0.159999 c 0,0 -0.08,-0.079999 -0.08,-0.1599989 0,-0.1599988 0.159999,-0.2399982 0.239998,-0.399997 -0.08,0 -0.08,-0.079999 -0.159999,-0.079999 -0.08,0 -0.159999,0 -0.239998,0 h -0.08 c 0,-0.079999 0.159998,-0.1599988 0.239998,-0.1599988 0.08,0 0.159999,0 0.159999,0 0.08,0 0.159999,0 0.159999,0 0,0 0,0.079999 0.08,0.1599988 0,0 0.08,0 0.08,0 h 0.159999 c 0,-0.1599988 -0.159999,-0.079999 -0.159999,-0.1599988 0,-0.079999 0.399997,0 0.559996,0 0.159999,-0.079999 0.239998,-0.079999 0.319998,-0.1599988 0.08,-0.079999 0.159999,-0.079999 0.239998,-0.079999 0,0 0,0 0.08,0 0,0.079999 -0.08,0.079999 -0.159998,0.1599988 -0.159999,0.1599988 -0.319998,0.3199976 -0.479997,0.4799964 0.08,0.079999 0.08,0.079999 0.159999,0.079999 h 0.239998 0.159999 v 0 l 0.159999,0.079999 c 0.08,0 0.159999,0.079999 0.239998,0.079999 v 0 c 0.159999,0 0.159999,-0.1599988 0.08,-0.2399982 -0.159998,-0.079999 0,-0.1599988 0,-0.2399982 -0.08,0 -0.08,-0.079999 -0.159998,0 h -0.08 c -0.08,0 -0.159999,0 -0.159999,-0.1599988 0,-0.079999 0.159999,-0.079999 0.159999,-0.1599988 0.08,-0.079999 0.159999,-0.2399982 0.159999,-0.3999971 0,-0.2399982 -0.08,-0.079999 -0.159999,-0.1599988 0,-0.079999 0,-0.1599988 -0.08,-0.1599988 -0.08,0 -0.319998,-0.079999 -0.319998,-0.3199976 0,0 0,-0.079999 0,-0.079999 l 0.399997,0.399997 c 1.119992,1.1199917 1.999985,2.4799816 2.399982,3.9999708 0,0.08 0.08,0.239998 0.159999,0.399997 0,0.08 0.08,0.319997 0.08,0.479996 0.159999,0.639996 0.239998,1.279991 0.319997,1.919986 -0.08,1.759987 -0.559996,3.519974 -1.519988,5.039963"
     id="path3" />
  <path
     style="fill:#005073;fill-opacity:1;fill-rule:nonzero;stroke:none"
     d="m 13.359901,18.079866 c 1.999985,-0.879993 3.359975,-2.879979 3.439975,-5.039963 v -2.559981 l -1.279991,-0.239998 v 0.479997 l -1.35999,-0.319998 V 9.8399271 L 13.359901,9.6799283 12.559907,9.8399271 v 0.4799969 l -1.439989,0.319997 v -0.479996 l -1.2799909,0.319997 v 2.559981 c 0.079999,2.239984 1.4399889,4.239969 3.5199739,5.039963 m 2.479982,-5.039963 c 0,0.239999 -0.08,0.559996 -0.08,0.879994 -0.319997,1.35999 -1.199991,2.479982 -2.399982,3.119977 -0.559996,-0.319998 -0.959993,-0.639995 -1.35999,-1.039993 l 3.839972,-3.839971 z m -5.039963,0 v -1.27999 l 2.559981,-0.639995 2.159984,0.559995 -3.839972,3.919971 c -0.399997,-0.559995 -0.639995,-1.119991 -0.719994,-1.759987 -0.08,-0.239998 -0.159999,-0.559995 -0.159999,-0.879993"
     id="path4" />
</svg>
