<svg width="124" height="97" xmlns="http://www.w3.org/2000/svg" xmlns:xlink="http://www.w3.org/1999/xlink" xml:space="preserve" overflow="hidden"><g transform="translate(-2149 -453)"><g><path d="M2158.07 546C2154.43 546 2152 543.562 2152 539.904 2152 463.096 2152 463.096 2152 463.096 2152 459.438 2154.43 457 2158.07 457 2264.93 457 2264.93 457 2264.93 457 2267.36 457 2271 459.438 2271 463.096 2271 539.904 2271 539.904 2271 539.904 2271 543.562 2267.36 546 2264.93 546L2158.07 546Z" fill="#FAFAFA" fill-rule="evenodd" fill-opacity="1"/><path d="M2264.74 458.427C2267.16 458.427 2269.58 459.64 2269.58 463.28 2269.58 539.72 2269.58 539.72 2269.58 539.72 2269.58 542.147 2267.16 544.573 2264.74 544.573 2158.26 544.573 2158.26 544.573 2158.26 544.573 2154.63 544.573 2153.42 542.147 2153.42 539.72 2153.42 463.28 2153.42 463.28 2153.42 463.28 2153.42 459.64 2154.63 458.427 2158.26 458.427 2264.74 458.427 2264.74 458.427 2264.74 458.427M2264.74 456C2158.26 456 2158.26 456 2158.26 456 2153.42 456 2151 458.427 2151 463.28 2151 539.72 2151 539.72 2151 539.72 2151 543.36 2153.42 547 2158.26 547 2264.74 547 2264.74 547 2264.74 547 2268.37 547 2272 543.36 2272 539.72 2272 463.28 2272 463.28 2272 463.28 2272 458.427 2268.37 456 2264.74 456" fill="#005073" fill-rule="evenodd" fill-opacity="1"/><path d="M2250 531.667C2248.78 531.667 2248.78 531.667 2248.78 531.667 2248.78 532.889 2247.56 535.333 2247.56 536.556 2246.33 536.556 2246.33 537.778 2245.11 537.778 2242.67 537.778 2242.67 535.333 2241.44 532.889 2240.22 530.444 2239 528 2236.56 528 2236.56 528 2236.56 528 2236.56 528 2235.33 528 2235.33 528 2235.33 528 2235.33 528 2235.33 528 2235.33 528 2235.33 528 2235.33 528 2235.33 528 2232.89 528 2231.67 530.444 2230.44 532.889 2229.22 535.333 2229.22 537.778 2226.78 537.778 2224.33 537.778 2224.33 535.333 2223.11 532.889 2221.89 530.444 2220.67 528 2217 528 2217 528 2217 528 2217 528 2217 528 2217 528 2217 528 2217 528 2217 528 2217 528 2217 528 2217 528 2217 528 2213.33 528 2212.11 530.444 2210.89 532.889 2209.67 535.333 2208.44 537.778 2206 537.778 2204.78 537.778 2203.56 535.333 2203.56 532.889 2202.33 530.444 2201.11 528 2198.67 528 2198.67 528 2198.67 528 2198.67 528 2197.44 528 2197.44 528 2197.44 528 2197.44 528 2197.44 528 2197.44 528 2197.44 528 2197.44 528 2197.44 528 2193.78 528 2192.56 530.444 2192.56 532.889 2191.33 535.333 2190.11 537.778 2188.89 537.778 2186.44 537.778 2185.22 535.333 2184 532.889 2182.78 530.444 2181.56 528 2179.11 528 2179.11 528 2179.11 528 2179.11 528 2175.44 528 2173 530.444 2173 532.889 2174.22 532.889 2174.22 532.889 2174.22 532.889 2175.44 531.667 2176.67 530.444 2179.11 529.222 2180.33 529.222 2181.56 531.667 2182.78 534.111 2184 536.556 2185.22 539 2188.89 539 2191.33 539 2192.56 536.556 2193.78 534.111 2195 530.444 2196.22 529.222 2197.44 529.222 2199.89 529.222 2199.89 530.444 2201.11 534.111 2202.33 536.556 2203.56 539 2206 539 2209.67 539 2210.89 536.556 2212.11 534.111 2213.33 531.667 2214.56 529.222 2217 529.222 2219.44 529.222 2219.44 531.667 2220.67 534.111 2221.89 536.556 2223.11 539 2226.78 539 2230.44 539 2231.67 536.556 2231.67 534.111 2232.89 531.667 2234.11 529.222 2235.33 529.222 2237.78 529.222 2239 531.667 2239 534.111 2240.22 536.556 2241.44 539 2245.11 539 2246.33 539 2247.56 539 2248.78 537.778 2250 535.333 2250 534.111 2250 531.667" fill="#005073" fill-rule="evenodd" fill-opacity="1"/><path d="M2244.92 527C2241.28 527 2240.06 530.545 2238.85 532.909 2237.63 535.273 2236.42 536.455 2236.42 536.455 2235.2 536.455 2235.2 536.455 2235.2 536.455 2235.2 536.455 2235.2 536.455 2235.2 536.455 2233.98 536.455 2233.98 535.273 2232.77 532.909 2231.55 530.545 2230.34 527 2226.69 527 2223.05 527 2221.83 530.545 2220.62 532.909 2219.4 535.273 2218.18 536.455 2216.97 536.455 2216.97 536.455 2216.97 536.455 2216.97 536.455 2216.97 536.455 2216.97 536.455 2216.97 536.455 2215.75 536.455 2214.54 535.273 2213.32 532.909 2212.11 530.545 2210.89 527 2206.03 527 2202.38 527 2201.17 530.545 2201.17 532.909 2199.95 535.273 2198.74 536.455 2197.52 536.455 2197.52 536.455 2197.52 536.455 2197.52 536.455 2197.52 536.455 2197.52 536.455 2197.52 536.455 2196.31 536.455 2196.31 535.273 2195.09 532.909 2193.88 530.545 2192.66 527 2189.02 527 2185.37 527 2182.94 530.545 2181.72 532.909 2180.51 535.273 2180.51 536.455 2179.29 536.455 2179.29 536.455 2179.29 536.455 2179.29 536.455 2178.08 536.455 2178.08 535.273 2176.86 535.273 2175.65 534.091 2175.65 532.909 2175.65 531.727 2172 531.727 2172 531.727 2172 531.727 2172 534.091 2173.22 535.273 2174.43 537.636 2175.65 538.818 2176.86 538.818 2178.08 540 2178.08 540 2178.08 540 2178.08 540 2178.08 540 2178.08 540 2178.08 540 2179.29 540 2179.29 540 2179.29 540 2179.29 540 2179.29 540 2179.29 540 2182.94 540 2184.15 536.455 2185.37 534.091 2186.58 531.727 2187.8 530.545 2189.02 530.545 2190.23 530.545 2190.23 531.727 2191.45 534.091 2192.66 536.455 2193.88 540 2197.52 540 2197.52 540 2197.52 540 2197.52 540 2197.52 540 2197.52 540 2197.52 540 2197.52 540 2197.52 540 2197.52 540 2197.52 540 2197.52 540 2197.52 540 2197.52 540 2197.52 540 2197.52 540 2197.52 540 2197.52 540 2197.52 540 2198.74 540 2198.74 540 2198.74 540 2198.74 540 2198.74 540 2198.74 540 2201.17 540 2203.6 536.455 2203.6 534.091 2204.82 531.727 2206.03 530.545 2206.03 530.545 2208.46 530.545 2208.46 531.727 2209.68 534.091 2210.89 536.455 2212.11 540 2216.97 540 2216.97 540 2216.97 540 2216.97 540 2216.97 540 2216.97 540 2216.97 540 2216.97 540 2216.97 540 2216.97 540 2216.97 540 2216.97 540 2216.97 540 2220.62 540 2221.83 536.455 2223.05 534.091 2224.26 531.727 2225.48 530.545 2226.69 530.545 2227.91 530.545 2229.12 531.727 2229.12 534.091 2230.34 536.455 2231.55 538.818 2235.2 540 2235.2 540 2235.2 540 2235.2 540 2235.2 540 2235.2 540 2235.2 540 2235.2 540 2235.2 540 2235.2 540 2235.2 540 2235.2 540 2235.2 540 2235.2 540 2235.2 540 2235.2 540 2236.42 540 2236.42 540 2236.42 540 2236.42 540 2236.42 540 2236.42 540 2236.42 540 2236.42 540 2236.42 540 2240.06 538.818 2241.28 536.455 2242.49 534.091 2242.49 531.727 2243.71 530.545 2244.92 530.545 2246.14 530.545 2247.35 531.727 2247.35 532.909 2251 531.727 2251 531.727 2251 531.727 2251 529.364 2248.57 527 2244.92 527" fill="#005073" fill-rule="evenodd" fill-opacity="1"/><path d="M2220 497.857 2228.57 508.714 2230.86 503.572 2246.86 511 2248 505.857 2232 500.143 2234.29 495 2220 497.857Z" fill="#005073" fill-rule="evenodd" fill-opacity="1"/><path d="M2202 497.857 2193.43 508.714 2192.29 503.572 2175.14 511 2174 505.857 2190 500.143 2187.71 495 2202 497.857Z" fill="#005073" fill-rule="evenodd" fill-opacity="1"/><path d="M2211.57 497 2219 509.409 2213.86 509.409 2213.86 523 2209.29 523 2209.29 509.409 2203 509.409 2211.57 497Z" fill="#005073" fill-rule="evenodd" fill-opacity="1"/><path d="M2211.56 464 2221 474.804 2216.56 474.804 2216.56 493 2205.44 493 2205.44 474.804 2201 474.804 2211.56 464Z" fill="#005073" fill-rule="evenodd" fill-opacity="1"/></g></g></svg>