<svg width="94" height="72" viewBox="0 0 94 72" fill="none" xmlns="http://www.w3.org/2000/svg">
<path fill-rule="evenodd" clip-rule="evenodd" d="M89.12 0C4.88 0 4.88 0 4.88 0C2.44 0 0 1.22001 0 3.66101C0 67.119 0 67.119 0 67.119C0 69.559 2.44 72 4.88 72C89.12 72 89.12 72 89.12 72C91.56 72 94 69.559 94 67.119C94 3.66102 94 3.66101 94 3.66101C94 1.22001 91.56 0 89.12 0ZM89.12 2C91.56 2 92 2.44101 92 3.66101C92 67.119 92 67.119 92 67.119C92 68.339 91.56 70 89.12 70C4.88 70 4.88 70 4.88 70C2.44 70 2 68.339 2 67.119C2 3.66102 2 3.66101 2 3.66101C2 2.44101 2.44 2 4.88 2H89.12Z" fill="#005073"/>
<path fill-rule="evenodd" clip-rule="evenodd" d="M30.8 7.43597H63.7257V16.027H30.8V7.43597ZM80.6035 28.055H48.8V18.318H80.6035V28.055ZM63.7257 40.082H30.8V30.345H63.7257V40.082ZM14 18.318H46.4035V28.055H14V18.318ZM80.6035 52.682H48.8V42.5H80.6035V52.682ZM63.7257 64.709H30.8V54.973H63.7257V64.709ZM14 42.5H46.4035V52.682H14V42.5ZM92 7.43597V5H2V7.43597H28.4035V16.027H2V18.318H11.5V28.055H2V30.345H28.4035V40.082H2V42.5H11.5V52.682H2V54.973H28.4035V64.709H2V67H92V64.709H66.1481V54.973H92V52.682H83V42.5H92V40.082H66.1481V30.345H92V28.055H83V18.318H92V16.027H66.1481V7.43597H92Z" fill="#005073"/>
</svg>
