<?xml version="1.0" encoding="UTF-8" standalone="no"?>
<svg
   version="1.0"
   width="100"
   height="100"
   id="svg13"
   xmlns="http://www.w3.org/2000/svg"
   xmlns:svg="http://www.w3.org/2000/svg" viewBox="-0.00 -0.00 28.63 28.63">
  <defs
     id="defs1">
    <pattern
       id="EMFhbasepattern"
       patternUnits="userSpaceOnUse"
       width="6"
       height="6"
       x="0"
       y="0" />
  </defs>
  <path
     style="fill:#fafafa;fill-opacity:1;fill-rule:nonzero;stroke:none"
     d="M 14.391771,28.31979 C 1.9118637,28.31979 -4.3280901,13.279902 4.4718447,4.4799668 13.271779,-4.3999674 28.391667,1.8399864 28.391667,14.319894 c -0.08,7.759942 -6.319953,13.999896 -13.999896,13.999896 z"
     id="path1" />
  <path
     style="fill:#005073;fill-opacity:1;fill-rule:nonzero;stroke:none"
     d="m 14.391771,0.47999644 c 12.239909,0 18.399864,14.87988956 9.759928,23.59982556 -8.719936,8.639936 -23.59982528,2.479981 -23.59982528,-9.759928 0,-7.6799432 6.15995438,-13.83989756 13.83989728,-13.83989756 z M 14.391771,0 C 1.591866,0 -4.8080866,15.359886 4.2318465,24.399819 13.271779,33.439752 28.631665,27.0398 28.631665,14.319894 28.631665,6.3999526 22.231713,0 14.391771,0 Z"
     id="path2" />
  <path
     style="fill:#005073;fill-opacity:1;fill-rule:nonzero;stroke:none"
     d="m 13.271779,5.0399627 h 2.079985 c 0.639995,0 1.119992,0.4799964 1.119992,1.0399923 v 2.159984 c 0,0.5599958 -0.479997,1.1199917 -1.119992,1.1199917 h -2.079985 c -0.639995,0 -1.119991,-0.5599959 -1.119991,-1.1199917 V 6.079955 c 0,-0.5599959 0.479996,-1.0399923 1.119991,-1.0399923 z"
     id="path3" />
  <path
     style="fill:#005073;fill-opacity:1;fill-rule:nonzero;stroke:none"
     d="M 14.791768,12.15991 H 13.831775 V 9.1999319 h 0.959993 z"
     id="path4" />
  <path
     style="fill:#005073;fill-opacity:1;fill-rule:nonzero;stroke:none"
     d="M 5.1918394,12.079911 H 23.431704 c 0.639995,0 1.119992,0.479996 1.119992,1.119991 v 2.079985 c 0,0.639995 -0.479997,1.119992 -1.119992,1.119992 H 5.1918394 c -0.6399953,0 -1.1199917,-0.479997 -1.1199917,-1.119992 v -2.079985 c 0,-0.639995 0.4799964,-1.119991 1.1199917,-1.119991 z"
     id="path5" />
  <path
     style="fill:#005073;fill-opacity:1;fill-rule:nonzero;stroke:none"
     d="m 8.3118163,20.479848 c 0,0.799994 -0.6399953,1.43999 -1.4399894,1.43999 -0.8799935,0 -1.5199887,-0.639996 -1.5199887,-1.43999 0,-0.879993 0.6399952,-1.519988 1.5199887,-1.519988 0.7999941,0 1.4399894,0.639995 1.4399894,1.519988 z"
     id="path6" />
  <path
     style="fill:#005073;fill-opacity:1;fill-rule:nonzero;stroke:none"
     d="M 7.3518234,19.199858 H 6.4718299 v -2.799979 h 0.8799935 z"
     id="path7" />
  <path
     style="fill:#005073;fill-opacity:1;fill-rule:nonzero;stroke:none"
     d="m 13.271779,20.479848 c 0,0.799994 -0.639995,1.43999 -1.519989,1.43999 -0.799994,0 -1.439989,-0.639996 -1.439989,-1.43999 0,-0.879993 0.639995,-1.519988 1.439989,-1.519988 0.879994,0 1.519989,0.639995 1.519989,1.519988 z"
     id="path8" />
  <path
     style="fill:#005073;fill-opacity:1;fill-rule:nonzero;stroke:none"
     d="m 12.311786,19.199858 h -0.959993 v -2.799979 h 0.959993 z"
     id="path9" />
  <path
     style="fill:#005073;fill-opacity:1;fill-rule:nonzero;stroke:none"
     d="m 18.231742,20.479848 c 0,0.799994 -0.639995,1.43999 -1.439989,1.43999 -0.879993,0 -1.519989,-0.639996 -1.519989,-1.43999 0,-0.879993 0.639996,-1.519988 1.519989,-1.519988 0.799994,0 1.439989,0.639995 1.439989,1.519988 z"
     id="path10" />
  <path
     style="fill:#005073;fill-opacity:1;fill-rule:nonzero;stroke:none"
     d="M 17.27175,19.199858 H 16.311757 V 16.399879 H 17.27175 Z"
     id="path11" />
  <path
     style="fill:#005073;fill-opacity:1;fill-rule:nonzero;stroke:none"
     d="m 23.191706,20.479848 c 0,0.799994 -0.719995,1.43999 -1.519989,1.43999 -0.799994,0 -1.519989,-0.639996 -1.519989,-1.43999 0,-0.879993 0.719995,-1.519988 1.519989,-1.519988 0.799994,0 1.519989,0.639995 1.519989,1.519988 z"
     id="path12" />
  <path
     style="fill:#005073;fill-opacity:1;fill-rule:nonzero;stroke:none"
     d="M 22.151713,19.199858 H 21.27172 v -2.799979 h 0.879993 z"
     id="path13" />
</svg>
