<?xml version="1.0" encoding="UTF-8" standalone="no"?>
<svg
   version="1.0"
   width="100"
   height="100"
   id="svg13"
   xmlns="http://www.w3.org/2000/svg"
   xmlns:svg="http://www.w3.org/2000/svg" viewBox="-6.72 -0.00 28.80 28.80">
  <defs
     id="defs1">
    <pattern
       id="EMFhbasepattern"
       patternUnits="userSpaceOnUse"
       width="6"
       height="6"
       x="0"
       y="0" />
  </defs>
  <path
     style="fill:#ffffff;fill-opacity:1;fill-rule:nonzero;stroke:none"
     d="M 0.47999644,6.3999526 H 14.87989 V 24.479819 H 0.47999644 Z"
     id="path1" />
  <path
     style="fill:#005073;fill-opacity:1;fill-rule:nonzero;stroke:none"
     d="m 5.0399627,21.679839 c 0,0.159999 -0.1599988,0.319998 -0.3199977,0.319998 H 1.8399864 c -0.2399983,0 -0.3199977,-0.159999 -0.3199977,-0.319998 v -2.63998 c -0.079999,-0.239998 0.079999,-0.399997 0.3199977,-0.399997 H 4.719965 c 0.1599989,0.08 0.3199977,0.159999 0.3199977,0.399997 z"
     id="path2" />
  <path
     style="fill:#005073;fill-opacity:1;fill-rule:nonzero;stroke:none"
     d="m 6.3199532,18.639862 h 2.8799787 c 0.1599988,0 0.3199976,0.159999 0.3199976,0.319998 v 2.63998 c 0,0.239998 -0.1599988,0.399997 -0.3199976,0.399997 H 6.3199532 c -0.1599988,0 -0.3199976,-0.159999 -0.3199976,-0.399997 v -2.63998 c 0,-0.159999 0.1599988,-0.319998 0.3199976,-0.319998 z"
     id="path3" />
  <path
     style="fill:#005073;fill-opacity:1;fill-rule:nonzero;stroke:none"
     d="m 10.79992,18.639862 h 2.879979 c 0.239998,0 0.319997,0.159999 0.319997,0.319998 v 2.63998 c 0,0.239998 -0.08,0.399997 -0.319997,0.399997 H 10.79992 c -0.159999,0 -0.319998,-0.159999 -0.319998,-0.399997 v -2.63998 c 0,-0.159999 0.159999,-0.319998 0.319998,-0.319998 z"
     id="path4" />
  <path
     style="fill:#005073;fill-opacity:1;fill-rule:nonzero;stroke:none"
     d="m 0.47999644,24.479819 v 3.039977 c 0,0.399997 0.39999704,0.799994 0.79999406,0.799994 H 14.079896 c 0.479996,0 0.799994,-0.399997 0.799994,-0.799994 v -3.039977 z m 7.19994666,3.279975 c -1.1199917,0 -1.5999881,-1.27999 -0.8799935,-2.079984 0.7199947,-0.719995 1.9999852,-0.159999 2.0799846,0.879993 0,0.639996 -0.5599958,1.199991 -1.1999911,1.199991 z"
     id="path5" />
  <path
     style="fill:#005073;fill-opacity:1;fill-rule:nonzero;stroke:none"
     d="M 14.079896,0.47999644 H 1.2799905 c -0.39999702,0 -0.79999406,0.31999763 -0.79999406,0.79999406 V 6.3999526 H 14.87989 V 1.2799905 c 0,-0.47999643 -0.319998,-0.79999406 -0.799994,-0.79999406 z M 10.639921,3.4399745 H 4.4799668 V 2.7999793 h 6.1599542 z"
     id="path6" />
  <path
     style="fill:#005073;fill-opacity:1;fill-rule:nonzero;stroke:none"
     d="M 1.8399864,13.4399 H 4.719965 c 0.1599989,0 0.3199977,0.159999 0.3199977,0.319998 v 2.639981 c 0,0.159998 -0.1599988,0.319997 -0.3199977,0.319997 H 1.8399864 c -0.2399983,0 -0.3199977,-0.159999 -0.3199977,-0.319997 v -2.639981 c 0,-0.159999 0.079999,-0.319998 0.3199977,-0.319998 z"
     id="path7" />
  <path
     style="fill:#005073;fill-opacity:1;fill-rule:nonzero;stroke:none"
     d="m 6.3199532,13.4399 h 2.8799787 c 0.1599988,0 0.3199976,0.159999 0.3199976,0.319998 v 2.639981 c 0,0.159998 -0.1599988,0.319997 -0.3199976,0.319997 H 6.3199532 c -0.1599988,0 -0.3199976,-0.159999 -0.3199976,-0.319997 v -2.639981 c 0,-0.159999 0.1599988,-0.319998 0.3199976,-0.319998 z"
     id="path8" />
  <path
     style="fill:#005073;fill-opacity:1;fill-rule:nonzero;stroke:none"
     d="m 10.79992,13.4399 h 2.879979 c 0.239998,0 0.319997,0.159999 0.319997,0.319998 v 2.639981 c 0,0.159998 -0.08,0.319997 -0.319997,0.319997 H 10.79992 c -0.159999,0 -0.319998,-0.159999 -0.319998,-0.319997 v -2.639981 c 0,-0.159999 0.159999,-0.319998 0.319998,-0.319998 z"
     id="path9" />
  <path
     style="fill:#005073;fill-opacity:1;fill-rule:nonzero;stroke:none"
     d="m 5.0399627,11.039918 c 0,0.159999 -0.1599988,0.319998 -0.3999971,0.319998 H 1.8399864 c -0.2399983,0 -0.3199977,-0.159999 -0.3199977,-0.319998 V 8.3999378 C 1.4399893,8.1599396 1.5999881,7.9999407 1.8399864,7.9999407 H 4.719965 c 0.1599989,0 0.3199977,0.1599989 0.3199977,0.3999971 z"
     id="path10" />
  <path
     style="fill:#005073;fill-opacity:1;fill-rule:nonzero;stroke:none"
     d="m 6.3199532,7.9999407 h 2.8799787 c 0.1599988,0 0.3199976,0.1599989 0.3199976,0.3999971 v 2.6399802 c 0,0.159999 -0.1599988,0.319998 -0.3199976,0.319998 H 6.3199532 c -0.1599988,0 -0.3199976,-0.159999 -0.3199976,-0.319998 V 8.3999378 c 0,-0.2399982 0.1599988,-0.3999971 0.3199976,-0.3999971 z"
     id="path11" />
  <path
     style="fill:#005073;fill-opacity:1;fill-rule:nonzero;stroke:none"
     d="m 10.79992,7.9999407 h 2.879979 c 0.239998,0 0.319997,0.1599989 0.319997,0.3999971 v 2.6399802 c 0,0.159999 -0.08,0.319998 -0.319997,0.319998 H 10.79992 c -0.159999,0 -0.319998,-0.159999 -0.319998,-0.319998 V 8.3999378 c 0,-0.2399982 0.159999,-0.3999971 0.319998,-0.3999971 z"
     id="path12" />
  <path
     style="fill:#005073;fill-opacity:1;fill-rule:nonzero;stroke:none"
     d="M 13.839897,28.799787 H 1.5999881 C 0.71999467,28.799787 0,28.159791 0,27.279798 V 1.5999881 C 0,0.71999467 0.71999467,0 1.5999881,0 H 13.839897 c 0.879994,0 1.519989,0.71999467 1.519989,1.5999881 V 27.279798 c 0,0.879993 -0.639995,1.519989 -1.519989,1.519989 z M 1.5999881,0.79999407 c -0.4799964,0 -0.79999403,0.31999763 -0.79999403,0.79999403 V 27.279798 c 0,0.399997 0.31999763,0.799994 0.79999403,0.799994 H 13.839897 c 0.399998,0 0.799995,-0.399997 0.799995,-0.799994 V 1.5999881 c 0,-0.4799964 -0.399997,-0.79999403 -0.799995,-0.79999403 z"
     id="path13" />
</svg>
