<?xml version="1.0" encoding="UTF-8" standalone="no"?>
<svg
   version="1.0"
   width="100"
   height="100"
   id="svg10"
   xmlns="http://www.w3.org/2000/svg"
   xmlns:svg="http://www.w3.org/2000/svg" viewBox="-5.20 -0.00 37.04 37.04">
  <defs
     id="defs1">
    <pattern
       id="EMFhbasepattern"
       patternUnits="userSpaceOnUse"
       width="6"
       height="6"
       x="0"
       y="0" />
  </defs>
  <path
     style="fill:#fafafa;fill-opacity:1;fill-rule:nonzero;stroke:none"
     d="M 1.5199887,0.23999822 H 25.119814 c 0.719995,0 1.27999,0.55999585 1.27999,1.27999048 V 35.439737 c 0,0.719995 -0.559995,1.279991 -1.27999,1.279991 H 1.5199887 c -0.71999463,0 -1.27999048,-0.559996 -1.27999048,-1.279991 V 1.5199887 c 0,-0.71999463 0.55999585,-1.27999048 1.27999048,-1.27999048 z"
     id="path1" />
  <path
     style="fill:#005073;fill-opacity:1;fill-rule:nonzero;stroke:none"
     d="m 25.119814,0.47999644 c 0.559996,0 1.039992,0.47999645 1.039992,1.03999226 V 35.519737 c 0,0.559996 -0.479996,0.959993 -1.039992,0.959993 H 1.5199887 c -0.55999581,0 -1.03999226,-0.399997 -1.03999226,-0.959993 V 1.5199887 c 0,-0.55999581 0.47999645,-1.03999226 1.03999226,-1.03999226 z M 25.119814,0 H 1.5199887 C 0.63999526,0 0,0.63999526 0,1.5199887 V 35.519737 c 0,0.799994 0.63999526,1.519989 1.5199887,1.519989 H 25.119814 c 0.879993,0 1.519989,-0.719995 1.519989,-1.519989 V 1.5199887 C 26.639803,0.63999526 25.999807,0 25.119814,0 Z"
     id="path2" />
  <path
     style="fill:#ccdce3;fill-opacity:1;fill-rule:nonzero;stroke:none"
     d="M 4.1599692,20.079851 H 22.559833 c 0.719995,0 1.199991,0.559996 1.199991,1.279991 v 11.359916 c 0,0.639995 -0.479996,1.199991 -1.199991,1.199991 H 4.1599692 c -0.7199947,0 -1.1999911,-0.559996 -1.1999911,-1.199991 V 21.359842 c 0,-0.719995 0.4799964,-1.279991 1.1999911,-1.279991 z"
     id="path3" />
  <path
     style="fill:#005073;fill-opacity:1;fill-rule:nonzero;stroke:none"
     d="m 22.559833,20.319849 c 0.559996,0 0.959993,0.479997 0.959993,1.039993 v 11.359916 c 0,0.559995 -0.399997,0.959993 -0.959993,0.959993 H 4.1599692 c -0.5599959,0 -0.9599929,-0.399998 -0.9599929,-0.959993 V 21.359842 c 0,-0.559996 0.399997,-1.039993 0.9599929,-1.039993 z m 0,-0.479996 H 4.1599692 c -0.7999941,0 -1.5199888,0.719995 -1.5199888,1.519989 v 11.359916 c 0,0.799994 0.7199947,1.439989 1.5199888,1.439989 H 22.559833 c 0.799994,0 1.519989,-0.639995 1.519989,-1.439989 V 21.359842 c 0,-0.799994 -0.719995,-1.519989 -1.519989,-1.519989 z"
     id="path4" />
  <path
     style="fill:#005073;fill-opacity:1;fill-rule:nonzero;stroke:none"
     d="m 6.5599514,26.879801 c 0,-0.719995 0.079999,-1.279991 0.3199976,-1.839986 0.1599989,-0.319998 0.3999971,-0.639996 0.6399953,-0.959993 0.3199976,-0.319998 0.6399953,-0.479997 0.9599929,-0.639996 0.4799964,-0.159998 0.9599929,-0.319997 1.5199887,-0.319997 1.1199921,0 1.9199861,0.399997 2.5599811,1.039992 0.639995,0.639995 0.959993,1.519989 0.959993,2.71998 0,1.119992 -0.319998,2.079984 -0.959993,2.71998 -0.639995,0.639995 -1.439989,0.959993 -2.479982,0.959993 -1.1199914,0 -1.9199854,-0.319998 -2.5599807,-0.959993 C 6.879949,28.959785 6.5599514,28.079792 6.5599514,26.879801 Z m 1.5199887,0 c 0,0.799994 0.1599989,1.439989 0.5599959,1.839986 0.3199976,0.399997 0.7999941,0.639996 1.439989,0.639996 0.559996,0 1.039993,-0.239999 1.35999,-0.639996 0.399997,-0.399997 0.559996,-1.039992 0.559996,-1.919986 0,-0.799994 -0.159999,-1.359989 -0.559996,-1.759986 -0.319997,-0.479997 -0.799994,-0.639996 -1.35999,-0.639996 -0.6399949,0 -1.1199914,0.239998 -1.439989,0.639996 -0.399997,0.399997 -0.5599959,0.959992 -0.5599959,1.839986 z"
     id="path5" />
  <path
     style="fill:#005073;fill-opacity:1;fill-rule:nonzero;stroke:none"
     d="m 14.239895,28.079792 1.439989,-0.08 c 0.08,0.479996 0.239998,0.799994 0.479996,1.039992 0.319998,0.159999 0.639996,0.319998 1.039993,0.319998 0.479996,0 0.879993,-0.08 1.119991,-0.319998 0.239999,-0.159999 0.319998,-0.399997 0.319998,-0.719995 0,-0.159999 -0.08,-0.239998 -0.159999,-0.399997 -0.08,-0.08 -0.239998,-0.239998 -0.479996,-0.319997 -0.159999,-0.08 -0.559996,-0.159999 -1.199991,-0.319998 -0.799995,-0.159999 -1.279991,-0.399997 -1.599989,-0.719995 -0.479996,-0.319997 -0.639995,-0.799994 -0.639995,-1.439989 0,-0.319998 0.08,-0.639995 0.239998,-0.959993 0.239999,-0.319998 0.559996,-0.559996 0.959993,-0.719995 0.319998,-0.159998 0.799994,-0.319997 1.35999,-0.319997 0.879994,0 1.599988,0.239998 2.079985,0.639995 0.399997,0.399997 0.639995,0.879993 0.719994,1.599988 h -1.519988 c 0,-0.319997 -0.159999,-0.639995 -0.399997,-0.719995 -0.159999,-0.239998 -0.479997,-0.319997 -0.879994,-0.319997 -0.399997,0 -0.719994,0.159999 -0.959993,0.319997 -0.159999,0.08 -0.239998,0.239999 -0.239998,0.399998 0,0.159998 0.08,0.319997 0.239998,0.479996 0.159999,0.159999 0.559996,0.319998 1.279991,0.479996 0.719994,0.159999 1.199991,0.319998 1.599988,0.479997 0.319998,0.159999 0.559996,0.399997 0.719995,0.719995 0.239998,0.319997 0.319997,0.719994 0.319997,1.119991 0,0.479997 -0.08,0.799994 -0.319997,1.199991 -0.239999,0.319998 -0.559996,0.639996 -0.959993,0.799994 -0.479997,0.159999 -0.959993,0.239999 -1.599988,0.239999 -0.879994,0 -1.599989,-0.239999 -2.079985,-0.639996 -0.479996,-0.399997 -0.799994,-1.039992 -0.879993,-1.839986 z"
     id="path6" />
  <path
     style="fill:#ccdce3;fill-opacity:1;fill-rule:nonzero;stroke:none"
     d="M 4.1599692,3.2799757 H 22.559833 c 0.719995,0 1.199991,0.5599959 1.199991,1.1999911 V 15.839883 c 0,0.719994 -0.479996,1.27999 -1.199991,1.27999 H 4.1599692 c -0.7199947,0 -1.1999911,-0.559996 -1.1999911,-1.27999 V 4.4799668 c 0,-0.6399952 0.4799964,-1.1999911 1.1999911,-1.1999911 z"
     id="path7" />
  <path
     style="fill:#005073;fill-opacity:1;fill-rule:nonzero;stroke:none"
     d="m 22.559833,3.5199739 c 0.559996,0 0.959993,0.3999971 0.959993,0.9599929 V 15.839883 c 0,0.559996 -0.399997,1.039992 -0.959993,1.039992 H 4.1599692 c -0.5599959,0 -0.9599929,-0.479996 -0.9599929,-1.039992 V 4.4799668 c 0,-0.5599958 0.399997,-0.9599929 0.9599929,-0.9599929 z m 0,-0.4799964 H 4.1599692 c -0.7999941,0 -1.5199888,0.6399952 -1.5199888,1.4399893 V 15.839883 c 0,0.799994 0.7199947,1.519988 1.5199888,1.519988 H 22.559833 c 0.799994,0 1.519989,-0.719994 1.519989,-1.519988 V 4.4799668 c 0,-0.7999941 -0.719995,-1.5199887 -1.519989,-1.4399893 z"
     id="path8" />
  <path
     style="fill:#005073;fill-opacity:1;fill-rule:nonzero;stroke:none"
     d="M 8.7199354,13.599899 6.1599544,6.3999526 H 7.6799431 L 9.5199295,11.759913 11.279916,6.3999526 h 1.519989 l -2.559981,7.1999464 z"
     id="path9" />
  <path
     style="fill:#005073;fill-opacity:1;fill-rule:nonzero;stroke:none"
     d="M 13.5199,13.599899 V 6.3999526 h 2.159984 l 1.27999,4.8799634 1.279991,-4.8799634 h 2.159984 V 13.599899 H 19.119858 V 7.9199413 L 17.679869,13.599899 H 16.23988 L 14.87989,7.9199413 v 5.6799577 z"
     id="path10" />
</svg>
