<?xml version="1.0" encoding="UTF-8" standalone="no"?>
<svg
   version="1.0"
   width="100"
   height="100"
   id="svg10"
   xmlns="http://www.w3.org/2000/svg"
   xmlns:svg="http://www.w3.org/2000/svg" viewBox="-0.00 -4.44 35.52 35.52">
  <defs
     id="defs1">
    <pattern
       id="EMFhbasepattern"
       patternUnits="userSpaceOnUse"
       width="6"
       height="6"
       x="0"
       y="0" />
  </defs>
  <path
     style="fill:#fafafa;fill-opacity:1;fill-rule:nonzero;stroke:none"
     d="M 1.5199887,0.23999822 H 33.999748 c 0.639995,0 1.199991,0.55999585 1.199991,1.27999048 V 25.119814 c 0,0.719995 -0.559996,1.27999 -1.199991,1.27999 H 1.5199887 c -0.71999463,0 -1.27999048,-0.559995 -1.27999048,-1.27999 V 1.5199887 c 0,-0.71999463 0.55999585,-1.27999048 1.27999048,-1.27999048 z"
     id="path1" />
  <path
     style="fill:#005073;fill-opacity:1;fill-rule:nonzero;stroke:none"
     d="m 33.999748,0.47999644 c 0.559996,0 1.039992,0.47999645 1.039992,1.03999226 V 25.119814 c 0,0.559996 -0.479996,1.039992 -1.039992,1.039992 H 1.5199887 c -0.55999581,0 -1.03999226,-0.479996 -1.03999226,-1.039992 V 1.5199887 c 0,-0.55999581 0.47999645,-1.03999226 1.03999226,-1.03999226 z M 33.999748,0 H 1.5199887 C 0.63999526,0 0,0.63999526 0,1.5199887 V 25.119814 c 0,0.879993 0.63999526,1.519989 1.5199887,1.519989 H 33.999748 c 0.799994,0 1.519989,-0.639996 1.519989,-1.519989 V 1.5199887 C 35.519737,0.63999526 34.799742,0 33.999748,0 Z"
     id="path2" />
  <path
     style="fill:#ffffff;fill-opacity:1;fill-rule:nonzero;stroke:none"
     d="M 4.8799639,8.1599396 C 4.6399656,8.239939 4.2399686,9.8399271 4.2399686,12.719906 c 0,2.959978 0.399997,4.479967 0.6399953,4.639965 H 30.639773 c 0.159999,-0.159998 0.639995,-1.679987 0.639995,-4.559966 0,-2.8799785 -0.479996,-4.4799666 -0.719994,-4.6399654 z"
     id="path3" />
  <path
     style="fill:#005073;fill-opacity:1;fill-rule:nonzero;stroke:none"
     d="M 30.639773,7.6799431 H 4.8799639 c -1.1199918,0 -1.1199918,4.5599659 -1.1199918,5.0399629 0,0.559996 0,5.119962 1.1199918,5.119962 h 0.799994 c 0.1599988,1.039992 1.0399923,1.759987 2.0799846,1.679987 1.0399923,0.08 1.9999852,-0.639995 2.159984,-1.679987 H 25.119814 c 0.159999,1.039992 1.039992,1.759987 2.079985,1.679987 1.039992,0.08 1.999985,-0.639995 2.159984,-1.679987 h 1.27999 c 1.039992,0 1.119992,-4.559966 1.119992,-5.119962 0,-0.479997 -0.08,-5.0399629 -1.119992,-5.0399629 z M 9.4399301,17.839868 c 0,0.639995 -0.7199947,1.199991 -1.6799876,1.199991 -0.8799935,0 -1.5999881,-0.559996 -1.5999881,-1.199991 z m 19.4398559,0 c 0,0.639995 -0.719995,1.199991 -1.679987,1.199991 -0.879994,0 -1.599989,-0.559996 -1.599989,-1.199991 z M 4.8799639,17.359871 C 4.6399656,17.199873 4.2399686,15.679884 4.2399686,12.719906 c 0,-2.8799789 0.399997,-4.479967 0.5599958,-4.5599664 H 30.559774 c 0.239998,0.1599988 0.719994,1.6799875 0.719994,4.6399654 0,2.879979 -0.479996,4.399968 -0.639995,4.559966"
     id="path4" />
  <path
     style="fill:#005073;fill-opacity:1;fill-rule:nonzero;stroke:none"
     d="m 3.9999704,12.719906 c 0,0.639995 0.1599988,1.119991 0.1599988,1.599988 H 31.279768 c 0,-0.479997 0.08,-0.959993 0.08,-1.599988 0,-0.559996 -0.08,-1.119992 -0.08,-1.599988 H 4.1599692 c 0,0.479996 -0.1599988,1.039992 -0.1599988,1.599988 z"
     id="path5" />
  <path
     style="fill:#ffffff;fill-opacity:1;fill-rule:nonzero;stroke:none"
     d="m 24.799816,12.719906 c 0.08,0.559996 -1.039992,0.559996 -0.879993,0 -0.159999,-0.479997 0.959993,-0.479997 0.879993,0 z"
     id="path6" />
  <path
     style="fill:#ffffff;fill-opacity:1;fill-rule:nonzero;stroke:none"
     d="m 26.799801,12.719906 c 0.08,0.559996 -1.039992,0.559996 -0.879993,0 -0.159999,-0.479997 0.959993,-0.479997 0.879993,0 z"
     id="path7" />
  <path
     style="fill:#ffffff;fill-opacity:1;fill-rule:nonzero;stroke:none"
     d="m 28.799787,12.719906 c 0.08,0.559996 -1.039993,0.559996 -0.879994,0 -0.159999,-0.479997 0.959993,-0.479997 0.879994,0 z"
     id="path8" />
  <path
     style="fill:#ffffff;fill-opacity:1;fill-rule:nonzero;stroke:none"
     d="m 7.3599455,12.719906 c 0,0.719994 -0.2399982,1.119991 -0.7199947,1.119991 -0.399997,0 -0.6399952,-0.399997 -0.6399952,-1.039992 0,-0.719994 0.3199976,-1.119992 0.7199946,-1.119992 0.3999971,0 0.6399953,0.399998 0.6399953,1.039993 z m -1.1199917,0 c 0,0.559996 0.1599988,0.879993 0.4799964,0.879993 0.2399982,0 0.3999971,-0.319997 0.3999971,-0.879993 0,-0.559996 -0.079999,-0.799994 -0.3999971,-0.799994 -0.3199976,0 -0.4799964,0.319997 -0.4799964,0.879993 z"
     id="path9" />
  <path
     style="fill:#ffffff;fill-opacity:1;fill-rule:nonzero;stroke:none"
     d="M 7.6799431,13.759898 V 13.599899 L 7.8399419,13.4399 c 0.5599959,-0.559995 0.7999941,-0.799994 0.7999941,-1.119991 0,-0.239998 -0.1599988,-0.399997 -0.399997,-0.399997 -0.1599989,0 -0.3199977,0.08 -0.4799965,0.159999 l -0.079999,-0.159999 c 0.1599988,-0.159999 0.399997,-0.239999 0.5599959,-0.239999 0.399997,0 0.7199946,0.239999 0.7199946,0.639996 0,0.319997 -0.3199976,0.639995 -0.7199946,1.039992 L 7.9999407,13.5199 H 9.039933 v 0.239998 z"
     id="path10" />
</svg>
