<?xml version="1.0" encoding="UTF-8" standalone="no"?>
<svg
   version="1.0"
   width="100"
   height="100"
   id="svg1"
   xmlns="http://www.w3.org/2000/svg"
   xmlns:svg="http://www.w3.org/2000/svg" viewBox="-0.00 -0.02 24.80 24.80">
  <defs
     id="defs1">
    <pattern
       id="EMFhbasepattern"
       patternUnits="userSpaceOnUse"
       width="6"
       height="6"
       x="0"
       y="0" />
  </defs>
  <path
     style="fill:#005073;fill-opacity:1;fill-rule:nonzero;stroke:none"
     d="M 12.484868,3.576416e-4 C 1.4449493,-0.07964177 -4.1550092,13.28026 3.6049333,21.120202 11.444875,28.880144 24.804776,23.440184 24.804776,12.400266 24.804776,5.5203167 19.284817,3.576416e-4 12.484868,3.576416e-4 Z M 23.844784,11.120276 c -0.959993,-0.399997 -1.999986,-0.799994 -2.959978,-1.119992 v -0.08 c 0,-1.9199858 -2.71998,-2.3999822 -3.359976,-0.5599958 C 16.404839,9.2002895 15.364846,9.12029 14.244855,9.12029 V 8.4802948 c 0,-0.9599929 -0.08,-1.9199858 -0.159999,-2.7999793 1.999985,-0.399997 1.679987,-3.3599751 -0.319998,-3.3599751 H 13.604859 C 13.52486,1.840344 13.364861,1.2803481 13.284862,0.96035053 18.804821,1.3603475 23.284788,5.6003161 23.844784,11.120276 Z M 12.564867,0.96035053 c 0.08,0.39999697 0.159999,0.95999287 0.319998,1.51998867 -1.43999,0.7999941 -1.119992,2.8799787 0.479996,3.1999763 0.08,0.7999941 0.08,1.6799876 0.159999,2.4799817 C 11.684874,5.6003161 8.8848942,3.7603297 5.7649173,3.1203345 7.6849031,1.6803452 10.084885,0.96035053 12.484868,0.96035053 Z M 5.0449227,3.6803303 C 8.4048978,4.1603268 11.524875,6.160312 13.364861,9.12029 c -1.919986,0 -3.7599721,0.2399983 -5.5999585,0.6399953 L 6.4049126,10.080283 C 5.6049185,8.4002954 3.1249369,9.0402906 3.2049363,10.880277 v 0.159999 C 2.3249428,11.280274 1.6049481,11.600272 0.96495284,11.92027 1.1249517,8.720293 2.564941,5.7603149 5.0449227,3.6803303 Z M 0.96495284,12.720264 C 1.6049481,12.400266 2.4049422,12.080269 3.3649351,11.680271 c 0.8799935,1.519989 3.1999763,0.959993 3.2799757,-0.799994 0,-0.08 0,-0.159998 0,-0.159998 2.2399834,-0.639996 4.5599662,-0.9599937 6.8799492,-1.0399931 0.08,2.9599781 -0.399997,5.8399571 -1.27999,8.6399361 h -0.239999 c -1.599988,0 -2.3199827,1.919986 -1.119991,2.959978 -0.479997,0.719995 -0.9599935,1.43999 -1.4399899,2.079985 C 4.5649262,22.000195 1.2049511,17.680227 1.0449522,12.720264 Z M 10.164885,23.600183 c 0.479996,-0.559996 0.879993,-1.199991 1.27999,-1.919986 0.159999,0.08 0.319998,0.08 0.559996,0.08 1.679988,0 2.319983,-2.239984 0.879994,-3.199976 0.879993,-2.559982 1.35999,-5.199962 1.35999,-7.999941 0.639995,1.199991 1.199991,2.479981 1.679987,3.759972 0.08,0.08 0.08,0.239998 0.159999,0.399997 -1.599988,0.879993 -0.959993,3.199976 0.799994,3.199976 h 0.159999 c 0.319998,1.519989 0.639995,3.119977 0.799994,4.639966 -1.679988,0.879993 -3.519974,1.35999 -5.35996,1.35999 -0.799994,-0.08 -1.599988,-0.159999 -2.319983,-0.319998 z m 8.319938,-1.439989 c -0.159999,-1.519989 -0.479996,-3.039978 -0.799994,-4.479967 1.599988,-0.799994 1.039993,-3.199976 -0.799994,-3.199976 h -0.159999 l -0.159998,-0.479997 c -0.559996,-1.439989 -1.199992,-2.879978 -1.999986,-4.2399687 0.959993,0 1.919986,0.079999 2.79998,0.2399987 0.08,0.959993 0.879993,1.679987 1.839986,1.679987 0.639995,-0.08 1.199991,-0.399997 1.519989,-1.039992 1.119991,0.319998 2.159984,0.719995 3.199976,1.279991 v 0.399997 c 0.08,3.99997 -1.999985,7.759942 -5.43996,9.839927 z"
     id="path1" />
</svg>
