<?xml version="1.0" encoding="UTF-8" standalone="no"?>
<svg
   version="1.0"
   width="100"
   height="100"
   id="svg3"
   xmlns="http://www.w3.org/2000/svg"
   xmlns:svg="http://www.w3.org/2000/svg" viewBox="-0.00 -0.00 26.64 26.64">
  <defs
     id="defs1">
    <pattern
       id="EMFhbasepattern"
       patternUnits="userSpaceOnUse"
       width="6"
       height="6"
       x="0"
       y="0" />
  </defs>
  <path
     style="fill:#fafafa;fill-opacity:1;fill-rule:nonzero;stroke:none"
     d="M 1.5199887,0.23999822 H 25.119814 c 0.719995,0 1.27999,0.55999585 1.27999,1.27999048 V 25.119814 c 0,0.719995 -0.559995,1.27999 -1.27999,1.27999 H 1.5199887 c -0.71999463,0 -1.27999048,-0.559995 -1.27999048,-1.27999 V 1.5199887 c 0,-0.71999463 0.55999585,-1.27999048 1.27999048,-1.27999048 z"
     id="path1" />
  <path
     style="fill:#005073;fill-opacity:1;fill-rule:nonzero;stroke:none"
     d="m 25.119814,0.47999644 c 0.559996,0 1.039992,0.47999645 1.039992,1.03999226 V 25.119814 c 0,0.559996 -0.479996,1.039992 -1.039992,1.039992 H 1.5199887 c -0.55999581,0 -1.03999226,-0.479996 -1.03999226,-1.039992 V 1.5199887 c 0,-0.55999581 0.47999645,-1.03999226 1.03999226,-1.03999226 z M 25.119814,0 H 1.5199887 C 0.63999526,0 0,0.63999526 0,1.5199887 V 25.119814 c 0,0.879993 0.63999526,1.519989 1.5199887,1.519989 H 25.119814 c 0.879993,0 1.519989,-0.639996 1.519989,-1.519989 V 1.5199887 C 26.639803,0.63999526 25.999807,0 25.119814,0 Z"
     id="path2" />
  <path
     style="fill:#005073;fill-opacity:1;fill-rule:nonzero;stroke:none"
     d="m 20.719847,14.639892 -2.159984,-4.15997 h 1.27999 V 7.7599425 h -4.479967 v 2.3199825 l -1.679987,1.039993 -1.599988,-1.039993 V 7.7599425 H 7.5999437 v 2.7199795 h 1.1999911 l -2.159984,4.15997 h -2.559981 v 2.799979 h 4.4799668 v -2.399982 l 3.1199764,-1.919986 0.879994,1.519989 h -1.119992 v 2.799979 h 4.479967 V 14.639892 H 14.79989 l 0.879994,-1.519989 3.119977,1.919986 v 2.319982 h 4.479967 v -2.719979 z m -4.799965,-4.15997 h 0.479997 l -0.959993,1.759987 -1.199991,-0.719994 z m -4.479967,0 1.599988,1.039993 -1.119991,0.719994 -1.039993,-1.759987 z m -3.5199737,4.15997 H 7.3599455 l 2.0799846,-4.15997 h 0.7999939 l 1.119992,1.999986 z m 6.1599547,0 h -0.799994 l -1.039993,-1.839987 1.43999,-0.879993 1.519988,0.879993 z m 3.039977,-4.15997 h 0.799994 l 2.079985,4.15997 h -0.559996 l -3.439975,-2.079985 z"
     id="path3" />
</svg>
