<?xml version="1.0" encoding="UTF-8" standalone="no"?>
<svg
   version="1.0"
   width="100"
   height="100"
   id="svg17"
   xmlns="http://www.w3.org/2000/svg"
   xmlns:svg="http://www.w3.org/2000/svg" viewBox="-0.00 -1.50 30.20 30.20">
  <defs
     id="defs1">
    <pattern
       id="EMFhbasepattern"
       patternUnits="userSpaceOnUse"
       width="6"
       height="6"
       x="0"
       y="0" />
  </defs>
  <path
     style="fill:#ffffff;fill-opacity:1;fill-rule:nonzero;stroke:none"
     d="m 9.979926,0.23999822 h 15.359886 c 0.559996,0 0.959993,0.47999645 0.959993,1.03999228 V 12.719906 c 0,0.559996 -0.399997,0.959993 -0.959993,0.959993 H 9.979926 c -0.5599958,0 -1.0399923,-0.399997 -1.0399923,-0.959993 V 1.2799905 c 0,-0.55999583 0.4799965,-1.03999228 1.0399923,-1.03999228 z"
     id="path1" />
  <path
     style="fill:none;stroke:#005073;stroke-width:0.479996px;stroke-linecap:butt;stroke-linejoin:miter;stroke-miterlimit:10;stroke-dasharray:none;stroke-opacity:1"
     d="m 9.979926,0.23999822 h 15.359886 c 0.559996,0 0.959993,0.47999645 0.959993,1.03999228 V 12.719906 c 0,0.559996 -0.399997,0.959993 -0.959993,0.959993 H 9.979926 c -0.5599958,0 -1.0399923,-0.399997 -1.0399923,-0.959993 V 1.2799905 c 0,-0.55999583 0.4799965,-1.03999228 1.0399923,-1.03999228 z"
     id="path2" />
  <path
     style="fill:#ffffff;fill-opacity:1;fill-rule:nonzero;stroke:#005073;stroke-width:0.479996px;stroke-linecap:butt;stroke-linejoin:miter;stroke-miterlimit:10;stroke-dasharray:none;stroke-opacity:1"
     d="m 29.579781,23.359827 c 0,1.919986 0,1.919986 -2.239984,1.919986 H 3.0199776 c -2.15998397,0 -2.23998338,0 -2.23998338,-1.919986 L 1.7399871,18.079866 C 2.2199835,15.839883 3.499974,14.639892 5.7399574,14.639892 H 24.699817 c 2.239983,0 3.439974,1.199991 3.99997,3.439974 z"
     id="path3" />
  <path
     style="fill:#005073;fill-opacity:1;fill-rule:nonzero;stroke:none"
     d="m 18.779861,21.279842 c 0,0.319998 -0.239998,0.559996 -0.559996,0.559996 h -1.039992 c -0.239999,0 -0.479997,-0.239998 -0.479997,-0.559996 v 0 c 0,-0.319997 0.239998,-0.559995 0.479997,-0.559995 h 1.039992 c 0.319998,0 0.559996,0.239998 0.559996,0.559995 z"
     id="path4" />
  <path
     style="fill:#005073;fill-opacity:1;fill-rule:nonzero;stroke:none"
     d="m 23.659825,17.039874 c 0,0.239998 -0.239999,0.479996 -0.559996,0.479996 H 12.459908 c -0.239999,0 -0.479997,-0.239998 -0.479997,-0.479996 v 0 c 0,-0.319998 0.239998,-0.559996 0.559996,-0.559996 h 10.559922 c 0.319997,0 0.559996,0.239998 0.559996,0.559996 z"
     id="path5" />
  <path
     style="fill:#005073;fill-opacity:1;fill-rule:nonzero;stroke:none"
     d="m 21.979837,19.279857 c 0,0.319998 -0.239998,0.559996 -0.559996,0.559996 h -0.959993 c -0.319997,0 -0.559996,-0.239998 -0.559996,-0.559996 v 0 c 0,-0.319997 0.239999,-0.559996 0.559996,-0.559996 h 0.959993 c 0.319998,0 0.559996,0.239999 0.559996,0.559996 z"
     id="path6" />
  <path
     style="fill:#005073;fill-opacity:1;fill-rule:nonzero;stroke:none"
     d="m 22.379834,21.279842 c 0,0.319998 -0.239998,0.559996 -0.559996,0.559996 h -1.039992 c -0.239998,0 -0.479997,-0.239998 -0.479997,-0.559996 v 0 c 0,-0.319997 0.239999,-0.559995 0.479997,-0.559995 h 1.039992 c 0.319998,0 0.559996,0.239998 0.559996,0.559995 z"
     id="path7" />
  <path
     style="fill:#005073;fill-opacity:1;fill-rule:nonzero;stroke:none"
     d="m 22.779831,23.279828 c 0,0.319997 -0.239998,0.559995 -0.559996,0.559995 h -1.039992 c -0.239998,0 -0.479996,-0.239998 -0.479996,-0.559995 v 0 c 0,-0.319998 0.239998,-0.559996 0.479996,-0.559996 h 1.039992 c 0.319998,0 0.559996,0.239998 0.559996,0.559996 z"
     id="path8" />
  <path
     style="fill:#005073;fill-opacity:1;fill-rule:nonzero;stroke:none"
     d="m 18.779861,19.279857 c 0,0.319998 -0.239998,0.559996 -0.559996,0.559996 h -1.039992 c -0.239999,0 -0.479997,-0.239998 -0.479997,-0.559996 v 0 c 0,-0.319997 0.239998,-0.559996 0.479997,-0.559996 h 1.039992 c 0.319998,0 0.559996,0.239999 0.559996,0.559996 z"
     id="path9" />
  <path
     style="fill:#005073;fill-opacity:1;fill-rule:nonzero;stroke:none"
     d="m 18.779861,23.279828 c 0,0.319997 -0.239998,0.559995 -0.559996,0.559995 h -1.039992 c -0.239999,0 -0.479997,-0.239998 -0.479997,-0.559995 v 0 c 0,-0.319998 0.239998,-0.559996 0.479997,-0.559996 h 1.039992 c 0.319998,0 0.559996,0.239998 0.559996,0.559996 z"
     id="path10" />
  <path
     style="fill:#005073;fill-opacity:1;fill-rule:nonzero;stroke:none"
     d="m 15.579884,19.279857 c 0,0.319998 -0.239998,0.559996 -0.559995,0.559996 h -1.039993 c -0.319997,0 -0.559996,-0.239998 -0.479996,-0.559996 v 0 c -0.08,-0.319997 0.159999,-0.559996 0.479996,-0.559996 h 1.039993 c 0.239998,0 0.479996,0.239999 0.479996,0.559996 z"
     id="path11" />
  <path
     style="fill:#005073;fill-opacity:1;fill-rule:nonzero;stroke:none"
     d="m 15.179887,21.279842 c 0,0.319998 -0.239998,0.559996 -0.559995,0.559996 h -1.039993 c -0.239998,0 -0.479996,-0.239998 -0.479996,-0.559996 v 0 c 0,-0.319997 0.239998,-0.559995 0.479996,-0.559995 h 1.039993 c 0.319997,0 0.559995,0.239998 0.559995,0.559995 z"
     id="path12" />
  <path
     style="fill:#005073;fill-opacity:1;fill-rule:nonzero;stroke:none"
     d="m 14.77989,23.279828 c 0,0.319997 -0.239998,0.559995 -0.559995,0.559995 h -1.039993 c -0.239998,0 -0.479996,-0.239998 -0.479996,-0.559995 v 0 c 0,-0.319998 0.239998,-0.559996 0.479996,-0.559996 h 1.039993 c 0.319997,0 0.559995,0.239998 0.559995,0.559996 z"
     id="path13" />
  <path
     style="fill:#005073;fill-opacity:1;fill-rule:nonzero;stroke:#ffffff;stroke-width:0.479996px;stroke-linecap:butt;stroke-linejoin:miter;stroke-miterlimit:10;stroke-dasharray:none;stroke-opacity:1"
     d="m 8.0599402,19.119858 c 0,1.599989 -1.2799905,2.879979 -2.8799786,2.879979 v 0 c -1.5999882,0 -2.8799787,-1.27999 -2.8799787,-2.879979 V 5.9999556 c 0,-1.5999882 1.2799905,-2.8799787 2.8799787,-2.8799787 v 0 c 1.5999881,0 2.8799786,1.2799905 2.8799786,2.8799787 z"
     id="path14" />
  <path
     style="fill:#005073;fill-opacity:1;fill-rule:nonzero;stroke:none"
     d="m 11.739913,3.1199769 h 11.679913 c 0.559996,0 1.039993,0.4799964 1.039993,0.9599929 v 7.1199472 c 0,0.559996 -0.479997,0.959993 -1.039993,0.959993 H 11.739913 c -0.559996,0 -0.959993,-0.399997 -0.959993,-0.959993 V 4.0799698 c 0,-0.4799965 0.399997,-0.9599929 0.959993,-0.9599929 z"
     id="path15" />
  <path
     style="fill:#005073;fill-opacity:1;fill-rule:nonzero;stroke:none"
     d="m 18.299864,1.8399864 c 0,0.6399952 -0.719994,0.9599929 -1.199991,0.5599958 -0.479996,-0.4799964 -0.159999,-1.2799905 0.479997,-1.1999911 0.399997,-0.079999 0.719994,0.2399982 0.719994,0.6399953 z"
     id="path16" />
  <path
     style="fill:#005073;fill-opacity:1;fill-rule:nonzero;stroke:none"
     d="m 24.699817,27.199799 c 1.35999,0 4.639966,-0.08 4.799964,-0.08 0.159999,-0.08 0.479997,-0.159999 0.639996,-0.719995 0.08,-0.399997 0.08,-0.879993 0,-1.27999 0,0 -0.479997,0.799994 -1.119992,0.959993 l -4.319968,0.08 H 3.0199776 l -1.8399864,-0.16 c -0.6399952,-0.08 -1.11999164,-0.959992 -1.11999164,-0.959992 -0.07999941,0.399997 -0.07999941,0.879993 0,1.27999 0.15999881,0.559996 0.39999703,0.639995 0.63999526,0.719995 0.15999881,0 0.95999288,0 2.31998278,0.08 z"
     id="path17" />
</svg>
