<?xml version="1.0" encoding="UTF-8" standalone="no"?>
<svg
   version="1.0"
   width="100"
   height="100"
   id="svg8"
   xmlns="http://www.w3.org/2000/svg"
   xmlns:svg="http://www.w3.org/2000/svg" viewBox="-6.12 -0.00 39.04 39.04">
  <defs
     id="defs1">
    <pattern
       id="EMFhbasepattern"
       patternUnits="userSpaceOnUse"
       width="6"
       height="6"
       x="0"
       y="0" />
  </defs>
  <path
     style="fill:#fafafa;fill-opacity:1;fill-rule:nonzero;stroke:none"
     d="M 1.6799876,0.23999822 H 25.279813 c 0.719994,0 1.27999,0.55999585 1.27999,1.27999048 v 8.1599396 c 0,0.7199947 -0.559996,1.2799907 -1.27999,1.2799907 H 1.6799876 c -0.71999471,0 -1.27999056,-0.559996 -1.27999056,-1.2799907 V 1.5199887 c 0,-0.71999463 0.55999585,-1.27999048 1.27999056,-1.27999048 z"
     id="path1" />
  <path
     style="fill:#005073;fill-opacity:1;fill-rule:nonzero;stroke:none"
     d="m 25.279813,0.47999644 c 0.559996,0 1.039992,0.47999645 1.039992,1.03999226 v 8.1599396 c 0,0.5599957 -0.479996,1.0399927 -1.039992,1.0399927 H 1.6799876 c -0.5599959,0 -1.03999234,-0.479997 -1.03999234,-1.0399927 V 1.5199887 c 0,-0.55999581 0.47999644,-1.03999226 1.03999234,-1.03999226 z M 25.279813,0 H 1.6799876 C 0.87999348,0 0.15999881,0.63999526 0.15999881,1.5199887 v 8.1599396 c 0,0.7999937 0.71999467,1.5199887 1.51998879,1.5199887 H 25.279813 c 0.799994,0 1.519988,-0.719995 1.519988,-1.5199887 V 1.5199887 C 26.799801,0.63999526 26.079807,0 25.279813,0 Z"
     id="path2" />
  <path
     style="fill:#005073;fill-opacity:1;fill-rule:nonzero;stroke:none"
     d="M 19.439856,7.0399479 17.679869,3.9999704 h 0.959993 V 1.9999852 H 14.87989 V 3.6799727 L 13.4399,4.3999674 11.999911,3.6799727 V 1.9999852 H 8.1599396 V 3.9999704 H 9.1999319 L 7.3599455,7.0399479 H 5.1199621 V 9.039933 H 9.039933 V 7.2799461 l 2.71998,-1.35999 0.719995,1.1199918 H 11.439915 V 9.039933 h 3.919971 V 7.0399479 h -1.039992 l 0.719995,-1.1199918 2.719979,1.35999 V 9.039933 h 3.919971 V 7.0399479 Z m -4.07997,-3.0399775 h 0.479997 L 15.039889,5.1999615 13.999896,4.719965 Z m -3.839971,0 1.35999,0.7199946 -0.959993,0.5599959 -0.879994,-1.2799905 z M 8.4799372,7.0399479 H 7.9999407 l 1.759987,-3.0399775 h 0.7199943 l 0.959993,1.4399893 z m 5.3599598,0 h -0.719994 l -0.879994,-1.35999 1.199991,-0.6399952 1.279991,0.6399952 z m 2.559982,-3.0399775 h 0.719994 L 18.87986,7.0399479 H 18.399864 L 15.359886,5.4399597 Z"
     id="path3" />
  <path
     style="fill:#fafafa;fill-opacity:1;fill-rule:nonzero;stroke:none"
     d="M 1.5199887,12.559907 H 25.119814 c 0.719995,0 1.27999,0.559996 1.27999,1.27999 v 23.599826 c 0,0.719994 -0.559995,1.27999 -1.27999,1.27999 H 1.5199887 c -0.71999463,0 -1.27999048,-0.559996 -1.27999048,-1.27999 V 13.839897 c 0,-0.719994 0.55999585,-1.27999 1.27999048,-1.27999 z"
     id="path4" />
  <path
     style="fill:#005073;fill-opacity:1;fill-rule:nonzero;stroke:none"
     d="m 25.119814,12.879905 c 0.559996,0 0.959993,0.399997 0.959993,0.959992 v 23.599826 c 0,0.559996 -0.399997,1.039992 -0.959993,1.039992 H 1.5199887 c -0.55999581,0 -1.03999226,-0.479996 -1.03999226,-1.039992 V 13.839897 c 0,-0.559995 0.47999645,-0.959992 1.03999226,-0.959992 z m 0,-0.559996 H 1.5199887 C 0.63999526,12.319909 0,13.039903 0,13.839897 v 23.599826 c 0,0.879993 0.63999526,1.599988 1.5199887,1.599988 H 25.119814 c 0.799994,0 1.519989,-0.719995 1.519989,-1.519989 V 13.839897 c 0,-0.799994 -0.719995,-1.519988 -1.519989,-1.519988 z"
     id="path5" />
  <path
     style="fill:#005073;fill-opacity:1;fill-rule:nonzero;stroke:none"
     d="m 23.839823,17.51987 -3.039977,-2.959978 v 1.999985 H 10.79992 V 14.559892 L 7.8399419,17.51987 10.79992,20.559848 v -1.999985 h 3.99997 V 29.67978 c 0,2.399982 -0.959993,4.879964 -3.839971,4.879964 -2.7999794,0 -3.5199741,-2.399982 -3.6799729,-3.919971 H 9.2799313 L 6.2399538,27.679795 3.2799757,30.639773 h 1.9999852 c 0.3199976,3.599973 2.4799816,5.919956 5.7599571,5.919956 3.439975,0 5.839957,-2.799979 5.839957,-6.879949 V 18.559863 h 3.919971 v 1.999985 z"
     id="path6" />
  <path
     style="fill:none;stroke:#005073;stroke-width:0.479996px;stroke-linecap:round;stroke-linejoin:miter;stroke-miterlimit:2;stroke-dasharray:none;stroke-opacity:1"
     d="m 3.8399716,20.479848 h 4.4799668 c 0.399997,0 0.799994,0.319998 0.799994,0.799994 v 4.479967 c 0,0.399997 -0.399997,0.719995 -0.799994,0.719995 H 3.8399716 c -0.3999971,0 -0.7999941,-0.319998 -0.7999941,-0.719995 v -4.479967 c 0,-0.479996 0.399997,-0.799994 0.7999941,-0.799994 z"
     id="path7" />
  <path
     style="fill:#005073;fill-opacity:1;fill-rule:nonzero;stroke:none"
     d="m 5.3599603,21.839838 v 1.679988 H 6.079955 c 0.3199976,0 0.4799964,-0.08 0.6399952,-0.239998 0.1599988,-0.159999 0.2399982,-0.319998 0.2399982,-0.639996 0,-0.239998 -0.079999,-0.399997 -0.2399982,-0.559996 C 6.5599514,21.919838 6.3999526,21.839838 6.079955,21.839838 Z M 4.7999644,21.439841 H 6.079955 c 0.4799964,0 0.8799934,0.08 1.1199917,0.319998 0.2399982,0.159999 0.399997,0.479996 0.399997,0.879993 0,0.479997 -0.1599988,0.799994 -0.399997,0.959993 -0.2399983,0.239998 -0.6399953,0.319998 -1.1199917,0.319998 H 5.3599603 V 25.67981 H 4.7999644 Z"
     id="path8" />
</svg>
