<?xml version="1.0" encoding="UTF-8" standalone="no"?>
<svg
   version="1.0"
   width="100"
   height="100"
   id="svg5"
   xmlns="http://www.w3.org/2000/svg"
   xmlns:svg="http://www.w3.org/2000/svg" viewBox="-0.00 -2.60 26.64 26.64">
  <defs
     id="defs1">
    <pattern
       id="EMFhbasepattern"
       patternUnits="userSpaceOnUse"
       width="6"
       height="6"
       x="0"
       y="0" />
  </defs>
  <path
     style="fill:#ffffff;fill-opacity:1;fill-rule:nonzero;stroke:none"
     d="m 2.559981,0 h 21.359842 c 1.439989,0 2.63998,1.1199917 2.63998,2.559981 V 14.79989 c 0,1.43999 -1.199991,2.559981 -2.63998,2.559981 H 2.559981 C 1.1199917,17.359871 0,16.23988 0,14.79989 V 2.559981 C 0,1.1199917 1.1199917,0 2.559981,0 Z"
     id="path1" />
  <path
     style="fill:#005073;fill-opacity:1;fill-rule:nonzero;stroke:none"
     d="M 23.919823,0 H 2.6399804 C 1.1999911,0 0,1.1999911 0,2.6399804 V 14.79989 c 0,1.43999 1.1999911,2.559981 2.6399804,2.639981 h 8.3999376 v 1.759987 H 7.3599455 c -1.5199888,0 -1.5199888,2.239983 0,2.239983 H 19.199858 c 1.519989,0 1.519989,-2.239983 0,-2.239983 h -3.199977 v -1.839987 h 7.999941 c 1.43999,0 2.559981,-1.119991 2.639981,-2.559981 V 2.6399804 C 26.559803,1.1199917 25.359812,0 23.919823,0 Z m 1.27999,14.79989 c 0,0.719995 -0.559996,1.279991 -1.27999,1.279991 H 2.6399804 c -0.7199946,0 -1.3599899,-0.559996 -1.3599899,-1.279991 V 2.6399804 c 0,-0.7199946 0.6399953,-1.3599899 1.3599899,-1.3599899 H 23.919823 c 0.719994,0 1.27999,0.6399953 1.27999,1.3599899 z"
     id="path2" />
  <path
     style="fill:#005073;fill-opacity:1;fill-rule:nonzero;stroke:none"
     d="M 16.959874,3.8399716 C 12.239909,-1.4399893 4.319968,5.5999585 9.039933,10.879919 l -3.1999763,3.199977 1.2799906,1.27999 3.1999767,-3.279975 c 5.35996,3.439974 11.199917,-3.7599726 6.63995,-8.2399394 z M 16.15988,10.559922 C 12.879905,13.759898 7.5999437,10.239924 9.3599307,5.9999556 11.039918,1.8399864 17.359871,3.0399775 17.359871,7.5999437 c 0,1.1199917 -0.479996,2.159984 -1.199991,2.9599783 z"
     id="path3" />
  <path
     style="fill:#005073;fill-opacity:1;fill-rule:nonzero;stroke:none"
     d="M 12.399908,7.1999467 V 6.3199532 c 0,-1.1199917 1.679988,-1.1199917 1.679988,0 v 0.7999941 h 0.479996 V 6.3199532 c 0.159999,-1.9199858 -2.799979,-1.9199858 -2.63998,0 v 0.8799935 h -0.719995 v 2.559981 h 3.99997 v -2.559981 z"
     id="path4" />
  <path
     style="fill:#ffffff;fill-opacity:1;fill-rule:nonzero;stroke:none"
     d="m 13.4399,8.1599396 c -0.08,-0.3199977 -0.639995,0.1599988 -0.319997,0.3199976 v 0 0.5599958 h 0.159999 V 8.4799372 c 0.08,-0.079999 0.159998,-0.1599988 0.159998,-0.3199976 z"
     id="path5" />
</svg>
