<?xml version="1.0" encoding="UTF-8" standalone="no"?>
<svg
   version="1.0"
   width="100"
   height="100"
   id="svg8"
   xmlns="http://www.w3.org/2000/svg"
   xmlns:svg="http://www.w3.org/2000/svg" viewBox="-0.00 -4.44 35.52 35.52">
  <defs
     id="defs1">
    <pattern
       id="EMFhbasepattern"
       patternUnits="userSpaceOnUse"
       width="6"
       height="6"
       x="0"
       y="0" />
  </defs>
  <path
     style="fill:#fafafa;fill-opacity:1;fill-rule:nonzero;stroke:none"
     d="M 1.5199887,0.23999822 H 33.999748 c 0.639995,0 1.199991,0.55999585 1.199991,1.27999048 V 25.119814 c 0,0.719995 -0.559996,1.27999 -1.199991,1.27999 H 1.5199887 c -0.71999463,0 -1.27999048,-0.559995 -1.27999048,-1.27999 V 1.5199887 c 0,-0.71999463 0.55999585,-1.27999048 1.27999048,-1.27999048 z"
     id="path1" />
  <path
     style="fill:#005073;fill-opacity:1;fill-rule:nonzero;stroke:none"
     d="m 33.999748,0.47999644 c 0.559996,0 1.039992,0.47999645 1.039992,1.03999226 V 25.119814 c 0,0.559996 -0.479996,1.039992 -1.039992,1.039992 H 1.5199887 c -0.55999581,0 -1.03999226,-0.479996 -1.03999226,-1.039992 V 1.5199887 c 0,-0.55999581 0.47999645,-1.03999226 1.03999226,-1.03999226 z M 33.999748,0 H 1.5199887 C 0.63999526,0 0,0.63999526 0,1.5199887 V 25.119814 c 0,0.879993 0.63999526,1.519989 1.5199887,1.519989 H 33.999748 c 0.799994,0 1.519989,-0.639996 1.519989,-1.519989 V 1.5199887 C 35.519737,0.63999526 34.799742,0 33.999748,0 Z"
     id="path2" />
  <path
     style="fill:#005073;fill-opacity:1;fill-rule:nonzero;stroke:none"
     d="m 32.479759,17.51987 -0.719994,0.08 c 0.08,0.559995 -0.08,1.039992 -0.479997,1.439989 -0.239998,0.319998 -0.639995,0.479996 -0.959993,0.479996 -0.639995,0 -0.959992,-0.559995 -1.35999,-1.519988 -0.319997,-0.959993 -0.719994,-1.919986 -1.839986,-1.999986 h -0.399997 c -1.119992,0.08 -1.519989,1.119992 -1.839986,1.999986 -0.399997,0.879993 -0.719995,1.519988 -1.35999,1.519988 -0.799994,0 -1.199991,-0.559995 -1.599988,-1.519988 -0.479997,-1.039993 -0.879994,-1.919986 -2.159984,-1.919986 v 0 h -0.08 c 0,0 -0.08,0 -0.08,0 v 0 c -1.199991,0 -1.759987,1.039992 -2.159984,1.919986 -0.399997,0.799994 -0.799994,1.519988 -1.679988,1.519988 -0.639995,0 -0.879993,-0.559995 -1.27999,-1.519988 -0.399997,-0.959993 -0.799994,-1.919986 -1.919986,-1.999986 h -0.319998 c -1.119991,0.08 -1.599988,1.119992 -1.919985,1.999986 -0.3199981,0.879993 -0.6399957,1.519988 -1.279991,1.519988 -0.8799934,0 -1.1999911,-0.559995 -1.6799875,-1.519988 C 6.879949,16.959874 6.3999526,15.999881 5.0399627,16.079881 v 0 c -0.9599929,0.08 -1.8399864,0.719995 -2.0799846,1.759987 l 0.6399952,0.159999 c 0.1599988,-0.719995 0.7999941,-1.199991 1.5199888,-1.199991 0.8799935,-0.08 1.1999911,0.479996 1.5999881,1.439989 0.4799965,0.959993 0.9599929,1.999985 2.3199828,1.999985 1.119992,0 1.599988,-1.039992 1.919986,-1.999985 0.399997,-1.039992 0.719994,-1.599988 1.439989,-1.599988 0.719995,0 1.039992,0.639995 1.439989,1.599988 0.399998,0.959993 0.799995,1.999985 1.919986,1.999985 1.35999,0 1.839987,-1.039992 2.319983,-1.999985 0.399997,-1.039992 0.719995,-1.519989 1.599988,-1.439989 0.799994,0 1.199991,0.479996 1.599988,1.439989 0.479997,0.959993 0.959993,1.999985 2.319983,1.999985 1.119992,0 1.519989,-1.039992 1.919986,-1.999985 0.399997,-1.039992 0.719995,-1.599988 1.439989,-1.599988 0.719995,0 1.039993,0.639995 1.43999,1.599988 0.399997,0.959993 0.799994,1.999985 1.919985,1.999985 0.559996,0 1.119992,-0.239998 1.43999,-0.639995 0.559996,-0.559996 0.799994,-1.35999 0.719994,-2.079985 z"
     id="path3" />
  <path
     style="fill:#005073;fill-opacity:1;fill-rule:nonzero;stroke:none"
     d="m 30.319775,15.679884 c -1.35999,0 -1.839986,1.27999 -2.239983,2.159984 -0.399997,0.879993 -0.639995,1.35999 -1.039992,1.35999 h -0.159999 c -0.399997,0 -0.639995,-0.399997 -0.959993,-1.35999 -0.399997,-1.039992 -0.879993,-2.159984 -2.239983,-2.159984 -1.599989,0 -2.159984,1.199991 -2.639981,2.159984 -0.399997,0.879993 -0.719995,1.27999 -1.27999,1.27999 v 0.08 -0.08 c -0.559996,0.08 -0.799994,-0.239998 -1.279991,-1.27999 -0.479996,-1.039992 -1.039992,-2.159984 -2.559981,-2.159984 -1.439989,0 -1.919986,1.199991 -2.319983,2.159984 -0.319997,0.879993 -0.559996,1.35999 -0.959993,1.35999 h -0.159998 c -0.399997,0 -0.639996,-0.399997 -1.039993,-1.35999 -0.319997,-1.039992 -1.039992,-2.159984 -2.399982,-2.159984 -1.5999881,0 -2.159984,1.199991 -2.6399804,2.159984 -0.399997,0.879993 -0.7199947,1.35999 -1.2799905,1.27999 v 0 c -0.3199977,0 -0.5599959,-0.159998 -0.7199947,-0.399997 C 4.0799698,18.479863 3.919971,18.079866 3.9999704,17.679869 l -1.35999,-0.08 c -0.079999,0.719994 0.2399983,1.519988 0.7999941,2.079984 0.3999971,0.399997 0.9599929,0.639995 1.5999882,0.719995 v 0 h 0.1599988 v 0 c 1.4399893,0 1.9999852,-1.119992 2.3999822,-1.999985 0.4799964,-0.959993 0.7999941,-1.35999 1.4399893,-1.35999 0.3999971,0 0.5599959,0.399997 0.9599929,1.27999 0.3999971,0.879994 0.8799931,2.079985 2.1599841,2.239984 h 0.479996 c 1.279991,-0.159999 1.759987,-1.35999 2.159984,-2.239984 0.319998,-0.879993 0.559996,-1.27999 0.959993,-1.27999 0.639996,0 0.959993,0.399997 1.35999,1.35999 0.479997,0.959993 1.039992,2.079984 2.399982,2.079984 v 0 c 0.08,0 0.159999,0 0.159999,0 h 0.08 c 1.519988,0 1.999985,-1.199991 2.479981,-2.079984 0.399997,-0.879994 0.799994,-1.35999 1.35999,-1.35999 0.399997,0 0.639995,0.399997 0.959993,1.27999 0.399997,0.879994 0.879994,2.079985 2.159984,2.239984 h 0.479997 c 1.27999,-0.159999 1.759986,-1.35999 2.159984,-2.239984 0.319997,-0.879993 0.559995,-1.27999 0.959992,-1.27999 0.639996,-0.08 1.119992,0.399997 1.199992,0.959993 l 1.359989,-0.319998 c -0.239998,-1.199991 -1.359989,-2.079985 -2.559981,-1.999984 z"
     id="path4" />
  <path
     style="fill:#005073;fill-opacity:1;fill-rule:nonzero;stroke:none"
     d="m 5.1999615,6.3199532 h 1.3599899 l 1.9199858,5.1999618 v 0 L 10.399923,6.3199532 h 1.35999 V 12.719906 H 10.79992 v -5.2799611 0 L 8.7999348,12.719906 H 7.9999407 L 6.079955,7.4399449 v 0 5.2799611 H 5.1999615 Z"
     id="path5" />
  <path
     style="fill:#005073;fill-opacity:1;fill-rule:nonzero;stroke:none"
     d="M 13.039903,12.719906 V 6.3199532 h 3.999971 V 7.0399479 H 13.919897 V 9.039933 h 2.959978 v 0.7199947 h -2.959978 v 2.1599843 h 3.199976 v 0.799994 z"
     id="path6" />
  <path
     style="fill:#005073;fill-opacity:1;fill-rule:nonzero;stroke:none"
     d="m 23.039829,8.1599396 h -1.039992 c 0,-0.7199947 -0.479996,-1.2799906 -1.519989,-1.2799906 -1.039992,0 -1.439989,0.3999971 -1.439989,0.8799935 0,0.7199947 0.799994,0.9599929 1.679988,1.1999911 0.879993,0.2399983 2.559981,0.5599959 2.559981,1.9999854 0,1.119992 -0.959993,1.919986 -2.71998,1.919986 -1.519989,0 -2.71998,-0.799994 -2.71998,-2.319983 h 1.039992 c 0,0.799994 0.479997,1.599988 1.839987,1.599988 1.039992,0 1.599988,-0.479997 1.599988,-1.039992 0,-0.719995 -0.799994,-1.039993 -1.839987,-1.3599903 -1.039992,-0.2399982 -2.319983,-0.5599958 -2.319983,-1.9999852 0,-0.8799935 0.879994,-1.5999881 2.319983,-1.5999881 1.519989,0 2.559981,0.8799935 2.559981,1.9999852 z"
     id="path7" />
  <path
     style="fill:#005073;fill-opacity:1;fill-rule:nonzero;stroke:none"
     d="M 25.359812,9.7599277 V 12.719906 H 24.399819 V 6.3199532 h 0.959993 V 9.039933 h 3.279976 V 6.3199532 h 0.879993 V 12.719906 H 28.639788 V 9.7599277 Z"
     id="path8" />
</svg>
