<?xml version="1.0" encoding="UTF-8" standalone="no"?>
<svg
   version="1.0"
   width="100"
   height="100"
   id="svg21"
   xmlns="http://www.w3.org/2000/svg"
   xmlns:svg="http://www.w3.org/2000/svg" viewBox="-0.00 -0.37 47.70 47.70">
  <defs
     id="defs1">
    <pattern
       id="EMFhbasepattern"
       patternUnits="userSpaceOnUse"
       width="6"
       height="6"
       x="0"
       y="0" />
  </defs>
  <path
     style="fill:#fafafa;fill-opacity:1;fill-rule:nonzero;stroke:none"
     d="m 23.861331,41.844103 c -0.319997,0 -0.639995,-0.159999 -0.879993,-0.399997 L 6.2614619,24.72423 C 6.0214637,24.484232 5.8614648,24.164234 5.8614648,23.844236 c 0,-0.319997 0.1599989,-0.639995 0.3999971,-0.799994 L 22.981338,6.2443666 c 0.239998,-0.2399982 0.559996,-0.3999971 0.879993,-0.3999971 0.319998,0 0.639996,0.1599989 0.879994,0.3999971 L 41.461201,23.044242 c 0.239998,0.159999 0.399997,0.479997 0.399997,0.879994 0,0.319997 -0.159999,0.639995 -0.399997,0.879993 L 24.741325,41.444106 c -0.239998,0.239998 -0.559996,0.399997 -0.879994,0.399997 z"
     id="path1" />
  <path
     style="fill:#005073;fill-opacity:1;fill-rule:nonzero;stroke:none"
     d="m 23.861331,6.0843678 c 0.239999,0 0.479997,0.1599988 0.719995,0.3199976 L 41.301202,23.124242 c 0.399997,0.399997 0.399997,1.039992 0,1.439989 L 24.581326,41.284107 c -0.399997,0.399997 -1.039992,0.399997 -1.439989,0 L 6.4214607,24.564231 c -0.399997,-0.399997 -0.399997,-1.039992 0,-1.439989 L 23.141337,6.4043654 c 0.159999,-0.1599988 0.479996,-0.3199976 0.719994,-0.3199976 m 0,-0.4799965 c -0.399997,0 -0.799994,0.1599988 -1.039992,0.4799965 L 6.0214637,22.804244 c -0.5599959,0.559996 -0.5599959,1.519989 0,2.079985 L 22.821339,41.604105 c 0.559996,0.559996 1.519989,0.559996 2.079985,0 L 41.6212,24.884229 c 0.559996,-0.559996 0.559996,-1.519989 0,-2.079985 L 24.901324,6.0843678 C 24.661325,5.7643701 24.261328,5.6043713 23.861331,5.6043713 Z"
     id="path2" />
  <path
     style="fill:#ffffff;fill-opacity:1;fill-rule:nonzero;stroke:none"
     d="m 47.141159,23.684238 c 0,2.799979 -2.319983,5.119962 -5.119962,5.119962 v 0 c -2.799979,0 -5.119962,-2.319983 -5.119962,-5.119962 v 0 c 0,-2.879979 2.319983,-5.119962 5.119962,-5.119962 v 0 c 2.799979,0 5.119962,2.239983 5.119962,5.119962 z"
     id="path3" />
  <path
     style="fill:#005073;fill-opacity:1;fill-rule:nonzero;stroke:none"
     d="m 42.021197,29.364196 c -5.119962,0 -7.599944,-6.159955 -4.07997,-9.759928 3.599973,-3.599974 9.759928,-1.039992 9.759928,4.07997 0,3.119976 -2.559981,5.679958 -5.679958,5.679958 z m 0,-10.719921 c -4.479967,0 -6.71995,5.43996 -3.519974,8.559937 3.119977,3.119976 8.559937,0.879993 8.559937,-3.519974 0,-2.79998 -2.239984,-5.039963 -5.039963,-5.039963 z"
     id="path4" />
  <path
     style="fill:#005073;fill-opacity:1;fill-rule:nonzero;stroke:none"
     d="m 40.741206,22.964243 v -1.199991 c -0.239998,-1.919986 2.79998,-1.919986 2.639981,0 v 1.119992 h 0.399997 v -1.119992 c 0.159999,-2.479982 -3.679973,-2.479982 -3.439975,0 v 1.199991 h -1.119991 v 3.599973 h 5.679958 v -3.599973 z"
     id="path5" />
  <path
     style="fill:#005073;fill-opacity:1;fill-rule:nonzero;stroke:none"
     d="m 19.94136,27.044213 h -1.359989 l -0.479997,-1.43999 h -2.399982 l -0.479997,1.43999 h -1.27999 l 2.319983,-5.999956 h 1.27999 z m -2.239983,-2.399983 -0.799994,-2.239983 -0.879994,2.159984 z"
     id="path6" />
  <path
     style="fill:#005073;fill-opacity:1;fill-rule:nonzero;stroke:none"
     d="m 20.581356,27.044213 v -5.999956 h 1.919985 c 0.479997,-0.08 1.039993,-0.08 1.519989,0 0.319998,0.08 0.639995,0.239998 0.879994,0.559996 0.239998,0.319998 0.319997,0.719995 0.319997,1.199991 0,0.319998 -0.08,0.559996 -0.159998,0.879994 -0.159999,0.239998 -0.319998,0.479996 -0.559996,0.559995 -0.159999,0.159999 -0.399997,0.239999 -0.639996,0.319998 -0.399997,0.08 -0.799994,0.08 -1.199991,0.08 h -0.799994 v 2.399982 z m 1.199991,-5.039963 v 1.679988 h 0.639995 c 0.399997,0.08 0.719995,0 1.039992,-0.08 0.159999,-0.08 0.239999,-0.159999 0.399997,-0.239998 0.08,-0.159999 0.08,-0.319998 0.08,-0.479996 0,-0.239999 0,-0.399998 -0.159999,-0.559996 -0.159999,-0.159999 -0.319998,-0.239999 -0.479996,-0.239999 -0.319998,-0.08 -0.559996,-0.08 -0.879994,0 z"
     id="path7" />
  <path
     style="fill:#005073;fill-opacity:1;fill-rule:nonzero;stroke:none"
     d="m 26.181314,27.044213 v -5.999956 h 1.199991 v 5.999956 z"
     id="path8" />
  <path
     style="fill:#005073;fill-opacity:1;fill-rule:nonzero;stroke:none"
     d="m 32.341269,24.72423 1.199991,0.399997 c -0.159999,0.559996 -0.479997,1.119992 -0.879994,1.439989 -1.119991,0.799994 -2.63998,0.639996 -3.599973,-0.319997 -0.559996,-0.639996 -0.799994,-1.43999 -0.719995,-2.239984 -0.08,-0.879993 0.159999,-1.679987 0.719995,-2.319983 0.559996,-0.559995 1.27999,-0.879993 1.999985,-0.799994 0.639995,-0.08 1.279991,0.159999 1.839986,0.639996 0.239999,0.319997 0.479997,0.639995 0.559996,1.119991 l -1.199991,0.239999 c -0.08,-0.319998 -0.239998,-0.559996 -0.399997,-0.719995 -0.239998,-0.159999 -0.559996,-0.319998 -0.879993,-0.239998 -0.399997,-0.08 -0.799994,0.159998 -1.039993,0.479996 -0.319997,0.399997 -0.479996,0.959993 -0.399997,1.519989 -0.08,0.559996 0.08,1.119992 0.399997,1.599988 0.239999,0.319998 0.639996,0.479996 1.119992,0.479996 0.239998,0 0.559996,-0.08 0.799994,-0.319997 0.239998,-0.239998 0.399997,-0.559996 0.479997,-0.959993 z"
     id="path9" />
  <path
     style="fill:#ffffff;fill-opacity:1;fill-rule:nonzero;stroke:none"
     d="m 29.061293,5.6843707 c 0,2.8799787 -2.319983,5.1199623 -5.199962,5.1199623 v 0 c -2.799979,0.08 -5.119962,-2.2399836 -5.119962,-5.1199623 v 0 c 0,-2.7999792 2.239984,-5.11996203 5.119962,-5.11996203 v 0 c 2.79998,0 5.199962,2.31998283 5.199962,5.11996203 z"
     id="path10" />
  <path
     style="fill:#005073;fill-opacity:1;fill-rule:nonzero;stroke:none"
     d="m 24.661325,6.0043684 c 0.479997,-0.2399983 0.799995,-0.7999941 0.799995,-1.35999 0,-2.0799846 -3.199977,-2.0799846 -3.199977,0 0,0.5599959 0.319998,1.0399923 0.799994,1.35999 C 21.941346,6.324366 21.141352,7.2843589 21.141352,8.48435 h 5.35996 c 0,-1.1999911 -0.719995,-2.159984 -1.839987,-2.4799816 z"
     id="path11" />
  <path
     style="fill:#005073;fill-opacity:1;fill-rule:nonzero;stroke:none"
     d="m 23.861331,11.364329 c -5.119962,0 -7.679943,-6.0799553 -4.079969,-9.6799286 3.599973,-3.5999734 9.759927,-1.03999232 9.759927,3.9999703 0,3.1199769 -2.559981,5.6799583 -5.679958,5.6799583 z m 0,-10.63992151 c -4.479966,0 -6.71995,5.35996031 -3.519974,8.47993721 3.119977,3.1999763 8.479938,0.9599933 8.479938,-3.519974 0,-2.7199798 -2.239984,-4.95996321 -4.959964,-4.95996321 z"
     id="path12" />
  <path
     style="fill:#ffffff;fill-opacity:1;fill-rule:nonzero;stroke:none"
     d="m 10.821428,24.004235 c 0,2.799979 -2.2399833,5.119962 -5.119962,5.119962 v 0 c -2.7999792,0 -5.11996209,-2.319983 -5.11996209,-5.119962 v 0 c 0,-2.799979 2.31998289,-5.119962 5.11996209,-5.119962 v 0 c 2.8799787,0 5.119962,2.319983 5.119962,5.119962 z"
     id="path13" />
  <path
     style="fill:#005073;fill-opacity:1;fill-rule:nonzero;stroke:none"
     d="m 5.701466,29.684193 c -5.11996209,0 -7.5999437,-6.159954 -3.9999703,-9.759928 3.5999733,-3.599973 9.7599273,-1.039992 9.6799283,4.07997 0,3.119977 -2.5599811,5.679958 -5.679958,5.679958 z m 0,-10.639921 c -4.4799668,0 -6.63995083,5.35996 -3.5199739,8.479937 3.1199769,3.199976 8.5599369,0.959993 8.5599369,-3.519974 0,-2.799979 -2.2399837,-4.959963 -5.039963,-4.959963 z"
     id="path14" />
  <path
     style="fill:#005073;fill-opacity:1;fill-rule:nonzero;stroke:none"
     d="m 5.701466,25.924221 c 0.3199977,0 0.5599959,-0.239998 0.5599959,-0.479996 0,-0.159999 -0.079999,-0.239999 -0.079999,-0.239999 l 0.8799931,-1.919985 -0.1599989,-0.319998 -0.3199976,0.08 -0.8799935,1.839987 c -0.3199976,0 -0.4799964,0.239998 -0.4799964,0.479996 -0.079999,0.319998 0.1599988,0.559996 0.4799964,0.559996 z"
     id="path15" />
  <path
     style="fill:#005073;fill-opacity:1;fill-rule:nonzero;stroke:none"
     d="m 5.701466,20.72426 c -2.8799786,0 -4.319968,3.439974 -2.3199828,5.519959 2.0799846,1.999985 5.5199591,0.639995 5.5199591,-2.239984 C 8.9814413,22.244248 7.5414524,20.72426 5.701466,20.72426 Z m 0,5.999955 c -1.4399893,0 -2.7199798,-1.119992 -2.7999792,-2.63998 h 0.799994 c 0.079999,0 0.079999,0 0.1599989,-0.08 0,-0.08 -0.08,-0.159999 -0.1599989,-0.159999 h -0.799994 c 0.079999,-0.639995 0.3199976,-1.199991 0.7199946,-1.679987 l 0.5599959,0.479996 c 0,0.08 0.079999,0.08 0.079999,0 v 0 c 0.079999,0.08 0.079999,0.08 0.1599988,0 0,0 0,-0.159999 0,-0.159999 L 3.8614797,21.924251 C 4.3414761,21.524254 4.901472,21.284255 5.5414672,21.204256 v 0.799994 c 0,0.08 0.079999,0.159999 0.1599988,0.159999 0.079999,0 0.1599988,-0.08 0.1599988,-0.159999 v -0.799994 c 0.6399953,0.08 1.2799906,0.319998 1.759987,0.719995 L 7.061456,22.404247 c -0.079999,0.08 -0.079999,0.159999 0,0.239998 0,0 0,0 0.079999,0 0,0 0.079999,0 0.079999,0 l 0.5599958,-0.559996 c 0.3999971,0.479997 0.6399953,1.119992 0.7199947,1.679988 H 7.7814506 c -0.079999,0 -0.1599988,0.08 -0.1599988,0.159999 0,0.08 0.079999,0.159999 0.1599988,0.159999 h 0.7199947 c -0.079999,1.519988 -1.2799905,2.63998 -2.7999793,2.63998 z"
     id="path16" />
  <path
     style="fill:#005073;fill-opacity:1;fill-rule:nonzero;stroke:none"
     d="m 5.701466,26.08422 c -0.3199976,0 -0.6399952,-0.239998 -0.6399952,-0.559996 -0.3199977,0.08 -0.6399953,0.239998 -0.8799935,0.399997 0.8799935,0.719995 2.159984,0.719995 3.1199769,0 C 6.9814565,25.764222 6.7414583,25.604223 6.4214607,25.524224 6.3414617,25.844222 6.0214637,26.08422 5.701466,26.08422 Z"
     id="path17" />
  <path
     style="fill:#ffffff;fill-opacity:1;fill-rule:nonzero;stroke:none"
     d="m 29.061293,41.284107 c 0,2.799979 -2.319983,5.119962 -5.199962,5.119962 v 0 c -2.799979,0 -5.119962,-2.319983 -5.119962,-5.119962 v 0 c 0,-2.879978 2.319983,-5.199961 5.119962,-5.199961 v 0 c 2.879979,0 5.199962,2.319983 5.199962,5.199961 z"
     id="path18" />
  <path
     style="fill:#005073;fill-opacity:1;fill-rule:nonzero;stroke:none"
     d="m 23.861331,46.964065 c -5.039962,0 -7.599943,-6.159954 -3.99997,-9.759928 3.519974,-3.599973 9.679928,-1.039992 9.679928,4.07997 0,3.119977 -2.559981,5.679958 -5.679958,5.679958 z m 0,-10.71992 c -4.479966,0 -6.71995,5.35996 -3.519974,8.559936 3.119977,3.119977 8.479938,0.879994 8.479938,-3.519974 0,-2.799979 -2.239984,-5.039962 -4.959964,-5.039962 z"
     id="path19" />
  <path
     style="fill:#005073;fill-opacity:1;fill-rule:nonzero;stroke:none"
     d="M 25.861317,39.764118 C 25.38132,39.364121 24.821324,39.044124 24.181329,39.044124 v -0.639995 h 0.319998 c 0.399997,-0.08 0.399997,-0.639996 0,-0.719995 h -1.279991 c -0.399997,-0.08 -0.399997,0.799994 0,0.719995 h 0.239998 v 0.639995 c -2.959978,0.319997 -3.519974,4.399967 -0.799994,5.599958 2.71998,1.199991 5.359961,-1.999985 3.599974,-4.399967 m -2.399983,4.07997 c -2.159984,0 -3.199976,-2.559981 -1.679987,-4.07997 1.519989,-1.519989 4.07997,-0.479997 4.07997,1.679987 -0.08,1.279991 -1.119992,2.319983 -2.399983,2.319983 z"
     id="path20" />
  <path
     style="fill:#005073;fill-opacity:1;fill-rule:nonzero;stroke:none"
     d="m 23.621333,42.164101 h 0.08 v 0 l 1.35999,1.27999 c 0.08,0.159999 0.319997,-0.08 0.159998,-0.159999 l -0.879993,-1.519988 v 0 -0.08 c -0.399997,-0.399997 -1.039992,0.08 -0.639995,0.479997 z"
     id="path21" />
</svg>
