<svg width="13" height="13" viewBox="0 0 13 13" fill="none"
  xmlns="http://www.w3.org/2000/svg">
  <path d="M5.55334 8.14986L5.90701 7.79642L5.20013 7.08909L4.84646 7.44252L5.55334 8.14986ZM7.0999 9.39522V9.89522H8.0999V9.39522H7.0999ZM8.0999 8.5957V8.0957H7.0999V8.5957H8.0999ZM7.0999 2.1999V2.6999H8.0999V2.1999H7.0999ZM8.0999 1.40039V0.900391H7.0999V1.40039H8.0999ZM3.5999 4.89785H3.0999V5.89785H3.5999V4.89785ZM4.3999 5.89785H4.8999V4.89785H4.3999V5.89785ZM10.7999 4.89785H10.2999V5.89785H10.7999V4.89785ZM11.5999 5.89785H12.0999V4.89785H11.5999V5.89785ZM9.64646 2.64575L9.2928 2.9992L9.99969 3.70652L10.3533 3.35308L9.64646 2.64575ZM11.1533 2.55356L11.507 2.20012L10.8001 1.4928L10.4465 1.84624L11.1533 2.55356ZM4.75335 1.84624L4.39969 1.4928L3.6928 2.20012L4.04646 2.55356L4.75335 1.84624ZM4.84646 3.35308L5.20012 3.70652L5.90701 2.9992L5.55335 2.64575L4.84646 3.35308ZM10.3533 7.44253L9.99969 7.08909L9.2928 7.79641L9.64646 8.14985L10.3533 7.44253ZM10.4465 8.94937L10.8001 9.30281L11.507 8.59549L11.1533 8.24204L10.4465 8.94937ZM0.753341 12.9467L5.55334 8.14986L4.84646 7.44252L0.0464641 12.2394L0.753341 12.9467ZM8.0999 9.39522V8.5957H7.0999V9.39522H8.0999ZM8.0999 2.1999V1.40039H7.0999V2.1999H8.0999ZM3.5999 5.89785H4.3999V4.89785H3.5999V5.89785ZM10.7999 5.89785H11.5999V4.89785H10.7999V5.89785ZM10.3533 3.35308L11.1533 2.55356L10.4465 1.84624L9.64646 2.64575L10.3533 3.35308ZM4.04646 2.55356L4.84646 3.35308L5.55335 2.64575L4.75335 1.84624L4.04646 2.55356ZM9.64646 8.14985L10.4465 8.94937L11.1533 8.24204L10.3533 7.44253L9.64646 8.14985Z" fill="currentColor"/>
</svg>
